G04*
G04 #@! TF.GenerationSoftware,Altium Limited,Altium Designer,23.1.1 (15)*
G04*
G04 Layer_Physical_Order=2*
G04 Layer_Color=16711680*
%FSLAX44Y44*%
%MOMM*%
G71*
G04*
G04 #@! TF.SameCoordinates,9F4D0ECE-2CF4-41AA-81F9-B76AE3B11C26*
G04*
G04*
G04 #@! TF.FilePolarity,Positive*
G04*
G01*
G75*
%ADD10C,0.5000*%
%ADD13C,0.2540*%
%ADD14C,0.3000*%
%ADD19R,1.0000X1.8000*%
%ADD21R,1.8000X1.8400*%
%ADD24O,1.6000X2.2000*%
%ADD53C,2.0000*%
%ADD54R,2.0000X2.0000*%
%ADD55C,0.8000*%
%ADD56R,1.8400X1.8000*%
%ADD57O,1.4500X0.6000*%
%ADD58R,0.6500X0.9500*%
%ADD59R,1.8000X1.0000*%
%ADD60O,0.6000X1.5500*%
%ADD61O,1.4000X2.2000*%
G36*
X969072Y693499D02*
X973949Y692019D01*
X978444Y689617D01*
X982383Y686384D01*
X985617Y682444D01*
X988019Y677949D01*
X989499Y673072D01*
X989973Y668257D01*
X989922Y668000D01*
Y268000D01*
X989973Y267743D01*
X989499Y262928D01*
X988019Y258051D01*
X985617Y253556D01*
X982383Y249617D01*
X978444Y246383D01*
X973949Y243981D01*
X969072Y242501D01*
X964257Y242027D01*
X964000Y242078D01*
X284000D01*
X283743Y242027D01*
X278928Y242501D01*
X274051Y243981D01*
X269556Y246383D01*
X265616Y249617D01*
X262383Y253556D01*
X259981Y258051D01*
X258501Y262928D01*
X258027Y267743D01*
X258078Y268000D01*
Y439611D01*
X259348Y439778D01*
X259477Y439298D01*
X260392Y437713D01*
Y403929D01*
X260819Y401783D01*
X262035Y399964D01*
X264964Y397035D01*
X266783Y395819D01*
X268929Y395392D01*
X319071D01*
X321217Y395819D01*
X323036Y397035D01*
X325965Y399964D01*
X327181Y401783D01*
X327608Y403929D01*
Y415500D01*
X330000D01*
Y438392D01*
X333713D01*
X335298Y437477D01*
X337078Y437000D01*
X338922D01*
X340702Y437477D01*
X342298Y438399D01*
X343601Y439702D01*
X344523Y441298D01*
X345000Y443078D01*
Y444922D01*
X344523Y446702D01*
X343601Y448298D01*
X342298Y449601D01*
X340702Y450523D01*
X338922Y451000D01*
X337078D01*
X335298Y450523D01*
X333713Y449608D01*
X324929D01*
X322783Y449181D01*
X320964Y447965D01*
X318035Y445036D01*
X316819Y443217D01*
X316392Y441071D01*
Y439500D01*
X314000D01*
Y415500D01*
X316392D01*
Y406608D01*
X271608D01*
Y437713D01*
X272523Y439298D01*
X273000Y441078D01*
Y442922D01*
X272523Y444702D01*
X271601Y446298D01*
X270298Y447601D01*
X268702Y448523D01*
X266922Y449000D01*
X265078D01*
X263298Y448523D01*
X261702Y447601D01*
X260399Y446298D01*
X259477Y444702D01*
X259348Y444222D01*
X258078Y444389D01*
Y668000D01*
X258027Y668257D01*
X258501Y673072D01*
X259981Y677949D01*
X262383Y682444D01*
X265616Y686384D01*
X269556Y689617D01*
X274051Y692019D01*
X278928Y693499D01*
X283743Y693973D01*
X284000Y693922D01*
X450637D01*
X451163Y692652D01*
X433756Y675244D01*
X432761Y673756D01*
X432412Y672000D01*
Y612311D01*
X432399Y612298D01*
X431477Y610702D01*
X431000Y608922D01*
Y607078D01*
X431477Y605298D01*
X432399Y603702D01*
X433702Y602399D01*
X435298Y601477D01*
X437078Y601000D01*
X438922D01*
X440702Y601477D01*
X442298Y602399D01*
X443601Y603702D01*
X444523Y605298D01*
X445000Y607078D01*
Y608922D01*
X444523Y610702D01*
X443601Y612298D01*
X442298Y613601D01*
X441588Y614011D01*
Y670099D01*
X456900Y685412D01*
X763622D01*
X773016Y676018D01*
X773477Y674298D01*
X774399Y672702D01*
X775702Y671399D01*
X777298Y670477D01*
X779078Y670000D01*
X780922D01*
X782702Y670477D01*
X784298Y671399D01*
X785601Y672702D01*
X786523Y674298D01*
X787000Y676078D01*
Y677922D01*
X786523Y679702D01*
X785601Y681298D01*
X784298Y682601D01*
X782702Y683523D01*
X780922Y684000D01*
X779078D01*
X778237Y683774D01*
X769360Y692652D01*
X769886Y693922D01*
X964000D01*
X964257Y693973D01*
X969072Y693499D01*
D02*
G37*
%LPC*%
G36*
X520200Y682000D02*
X495800D01*
Y677812D01*
X494530Y676837D01*
X493922Y677000D01*
X492078D01*
X491707Y676901D01*
X490700Y677674D01*
Y682000D01*
X466300D01*
Y658000D01*
X490700D01*
Y662326D01*
X491707Y663099D01*
X492078Y663000D01*
X493922D01*
X494530Y663163D01*
X495800Y662188D01*
Y658000D01*
X520200D01*
Y682000D01*
D02*
G37*
G36*
X287989Y690257D02*
X284011D01*
X283716Y690198D01*
X283414D01*
X279513Y689422D01*
X279235Y689307D01*
X278939Y689248D01*
X275264Y687726D01*
X275013Y687559D01*
X274735Y687443D01*
X271428Y685233D01*
X271215Y685020D01*
X270964Y684853D01*
X268151Y682040D01*
X267984Y681790D01*
X267771Y681577D01*
X265561Y678269D01*
X265446Y677991D01*
X265278Y677740D01*
X263756Y674065D01*
X263697Y673770D01*
X263582Y673491D01*
X262806Y669590D01*
Y669289D01*
X262747Y668993D01*
Y665015D01*
X262806Y664720D01*
Y664418D01*
X263582Y660517D01*
X263697Y660239D01*
X263756Y659943D01*
X265278Y656268D01*
X265446Y656018D01*
X265561Y655739D01*
X267771Y652432D01*
X267984Y652219D01*
X268151Y651968D01*
X270964Y649155D01*
X271215Y648988D01*
X271428Y648775D01*
X274735Y646565D01*
X275014Y646450D01*
X275264Y646282D01*
X278939Y644760D01*
X279235Y644701D01*
X279513Y644586D01*
X283414Y643810D01*
X283716D01*
X284011Y643751D01*
X287989D01*
X288284Y643810D01*
X288586D01*
X292487Y644586D01*
X292766Y644701D01*
X293061Y644760D01*
X296736Y646282D01*
X296987Y646450D01*
X297265Y646565D01*
X300572Y648775D01*
X300785Y648988D01*
X301036Y649156D01*
X303849Y651968D01*
X304016Y652219D01*
X304229Y652432D01*
X306439Y655739D01*
X306554Y656018D01*
X306722Y656268D01*
X308244Y659943D01*
X308303Y660239D01*
X308418Y660517D01*
X309194Y664418D01*
Y664720D01*
X309253Y665015D01*
Y668993D01*
X309194Y669289D01*
Y669590D01*
X308418Y673491D01*
X308303Y673770D01*
X308244Y674065D01*
X306722Y677740D01*
X306554Y677991D01*
X306439Y678269D01*
X304229Y681577D01*
X304016Y681790D01*
X303849Y682040D01*
X301036Y684853D01*
X300785Y685020D01*
X300572Y685233D01*
X297265Y687443D01*
X296987Y687559D01*
X296736Y687726D01*
X293061Y689248D01*
X292766Y689307D01*
X292487Y689422D01*
X288586Y690198D01*
X288284D01*
X287989Y690257D01*
D02*
G37*
G36*
X962989Y690253D02*
X959011D01*
X958716Y690194D01*
X958414D01*
X954513Y689418D01*
X954234Y689303D01*
X953939Y689244D01*
X950264Y687722D01*
X950013Y687554D01*
X949735Y687439D01*
X946428Y685229D01*
X946215Y685016D01*
X945964Y684849D01*
X943151Y682036D01*
X942984Y681785D01*
X942771Y681572D01*
X940561Y678265D01*
X940446Y677987D01*
X940278Y677736D01*
X938756Y674061D01*
X938697Y673765D01*
X938582Y673487D01*
X937806Y669586D01*
Y669284D01*
X937747Y668989D01*
Y665011D01*
X937806Y664716D01*
Y664414D01*
X938582Y660513D01*
X938697Y660235D01*
X938756Y659939D01*
X940278Y656264D01*
X940446Y656013D01*
X940561Y655735D01*
X942771Y652428D01*
X942984Y652215D01*
X943151Y651964D01*
X945964Y649151D01*
X946215Y648984D01*
X946428Y648771D01*
X949735Y646561D01*
X950014Y646446D01*
X950264Y646278D01*
X953939Y644756D01*
X954234Y644697D01*
X954513Y644582D01*
X958414Y643806D01*
X958716D01*
X959011Y643747D01*
X962989D01*
X963284Y643806D01*
X963586D01*
X967487Y644582D01*
X967766Y644697D01*
X968061Y644756D01*
X971736Y646278D01*
X971986Y646446D01*
X972265Y646561D01*
X975572Y648771D01*
X975785Y648984D01*
X976036Y649151D01*
X978849Y651964D01*
X979016Y652215D01*
X979229Y652428D01*
X981439Y655735D01*
X981554Y656013D01*
X981722Y656264D01*
X983244Y659939D01*
X983303Y660235D01*
X983418Y660513D01*
X984194Y664414D01*
Y664716D01*
X984253Y665011D01*
Y668989D01*
X984194Y669284D01*
Y669586D01*
X983418Y673487D01*
X983303Y673765D01*
X983244Y674061D01*
X981722Y677736D01*
X981554Y677987D01*
X981439Y678265D01*
X979229Y681572D01*
X979016Y681785D01*
X978849Y682036D01*
X976036Y684849D01*
X975785Y685016D01*
X975572Y685229D01*
X972265Y687439D01*
X971986Y687554D01*
X971736Y687722D01*
X968061Y689244D01*
X967766Y689303D01*
X967487Y689418D01*
X963586Y690194D01*
X963284D01*
X962989Y690253D01*
D02*
G37*
G36*
X470000Y614904D02*
X466385D01*
Y611185D01*
X474227D01*
X474022Y612216D01*
X473078Y613629D01*
X471666Y614572D01*
X470000Y614904D01*
D02*
G37*
G36*
X465115D02*
X461500D01*
X459834Y614572D01*
X458422Y613629D01*
X457478Y612216D01*
X457273Y611185D01*
X465115D01*
Y614904D01*
D02*
G37*
G36*
X474227Y609915D02*
X466385D01*
Y606196D01*
X470000D01*
X471666Y606528D01*
X473078Y607472D01*
X474022Y608884D01*
X474227Y609915D01*
D02*
G37*
G36*
X465115D02*
X457273D01*
X457478Y608884D01*
X458422Y607472D01*
X459834Y606528D01*
X461500Y606196D01*
X465115D01*
Y609915D01*
D02*
G37*
G36*
X470000Y602204D02*
X466385D01*
Y598485D01*
X474227D01*
X474022Y599516D01*
X473078Y600928D01*
X471666Y601872D01*
X470000Y602204D01*
D02*
G37*
G36*
X465115D02*
X461500D01*
X459834Y601872D01*
X458422Y600928D01*
X457478Y599516D01*
X457273Y598485D01*
X465115D01*
Y602204D01*
D02*
G37*
G36*
X474227Y597215D02*
X466385D01*
Y593496D01*
X470000D01*
X471666Y593828D01*
X473078Y594771D01*
X474022Y596184D01*
X474227Y597215D01*
D02*
G37*
G36*
X465115D02*
X457273D01*
X457478Y596184D01*
X458422Y594771D01*
X459834Y593828D01*
X461500Y593496D01*
X465115D01*
Y597215D01*
D02*
G37*
G36*
X830650Y644786D02*
X828039Y644443D01*
X825607Y643435D01*
X823518Y641832D01*
X821915Y639743D01*
X820907Y637310D01*
X820564Y634700D01*
Y626700D01*
X820907Y624090D01*
X821915Y621657D01*
X823518Y619568D01*
X824734Y618635D01*
Y617365D01*
X823518Y616432D01*
X821915Y614343D01*
X820907Y611911D01*
X820564Y609300D01*
Y601300D01*
X820907Y598689D01*
X821915Y596257D01*
X823518Y594168D01*
X825607Y592565D01*
X828039Y591557D01*
X830650Y591214D01*
X833260Y591557D01*
X835693Y592565D01*
X837782Y594168D01*
X839385Y596257D01*
X840393Y598689D01*
X840736Y601300D01*
Y609300D01*
X840393Y611911D01*
X839385Y614343D01*
X837782Y616432D01*
X836566Y617365D01*
Y618635D01*
X837782Y619568D01*
X839385Y621657D01*
X840393Y624090D01*
X840736Y626700D01*
Y634700D01*
X840393Y637310D01*
X839385Y639743D01*
X837782Y641832D01*
X835693Y643435D01*
X833260Y644443D01*
X830650Y644786D01*
D02*
G37*
G36*
X779850D02*
X777240Y644443D01*
X774807Y643435D01*
X772718Y641832D01*
X771115Y639743D01*
X770107Y637310D01*
X769764Y634700D01*
Y626700D01*
X770107Y624090D01*
X771115Y621657D01*
X772718Y619568D01*
X773934Y618635D01*
Y617365D01*
X772718Y616432D01*
X771115Y614343D01*
X770107Y611911D01*
X769764Y609300D01*
Y601300D01*
X770107Y598689D01*
X771115Y596257D01*
X772718Y594168D01*
X774807Y592565D01*
X777240Y591557D01*
X779850Y591214D01*
X782460Y591557D01*
X784893Y592565D01*
X786982Y594168D01*
X788585Y596257D01*
X789593Y598689D01*
X789936Y601300D01*
Y609300D01*
X789593Y611911D01*
X788585Y614343D01*
X786982Y616432D01*
X785766Y617365D01*
Y618635D01*
X786982Y619568D01*
X788585Y621657D01*
X789593Y624090D01*
X789936Y626700D01*
Y634700D01*
X789593Y637310D01*
X788585Y639743D01*
X786982Y641832D01*
X784893Y643435D01*
X782460Y644443D01*
X779850Y644786D01*
D02*
G37*
G36*
X720000Y683588D02*
X540000D01*
X538244Y683239D01*
X536756Y682244D01*
X525756Y671244D01*
X524761Y669756D01*
X524412Y668000D01*
Y644588D01*
X520200D01*
Y652000D01*
X495800D01*
Y628000D01*
X501412D01*
Y612038D01*
X501761Y610282D01*
X502756Y608794D01*
X504244Y607306D01*
X505732Y606311D01*
X507488Y605962D01*
X512067D01*
X513659Y604898D01*
X513914Y604847D01*
Y603553D01*
X513659Y603502D01*
X512067Y602438D01*
X502051D01*
X483088Y621400D01*
Y628000D01*
X490700D01*
Y652000D01*
X466300D01*
Y628000D01*
X473912D01*
Y619500D01*
X474261Y617744D01*
X475256Y616256D01*
X496906Y594606D01*
X498394Y593611D01*
X500150Y593262D01*
X512067D01*
X513659Y592198D01*
X516000Y591732D01*
X524500D01*
X526841Y592198D01*
X528433Y593262D01*
X531310D01*
X533066Y593611D01*
X534554Y594606D01*
X539974Y600026D01*
X540969Y601514D01*
X541318Y603270D01*
Y644829D01*
X553273Y656784D01*
X554443Y656159D01*
X554412Y656000D01*
Y523200D01*
X554756Y521470D01*
X554800Y521240D01*
X554081Y520200D01*
X532000D01*
Y512354D01*
X528546D01*
X527298Y513601D01*
X525702Y514523D01*
X523922Y515000D01*
X522078D01*
X520298Y514523D01*
X518702Y513601D01*
X517399Y512298D01*
X516477Y510702D01*
X516000Y508922D01*
Y507078D01*
X516477Y505298D01*
X517399Y503702D01*
X518702Y502399D01*
X520298Y501477D01*
X522078Y501000D01*
X523922D01*
X525702Y501477D01*
X527298Y502399D01*
X528546Y503646D01*
X532000D01*
Y495800D01*
X556000D01*
Y518052D01*
X557173Y518538D01*
X562000Y513711D01*
Y495800D01*
X586000D01*
Y520200D01*
X568489D01*
X563588Y525101D01*
Y544152D01*
X563833Y544348D01*
X565535Y544086D01*
X565756Y543756D01*
X594412Y515100D01*
Y472588D01*
X586000D01*
Y480200D01*
X562000D01*
Y455800D01*
X586000D01*
Y463412D01*
X597512D01*
X599268Y463761D01*
X600756Y464756D01*
X602244Y466244D01*
X603239Y467732D01*
X603588Y469488D01*
Y517000D01*
X603239Y518756D01*
X602244Y520244D01*
X573588Y548900D01*
Y642100D01*
X579901Y648412D01*
X648262D01*
Y643623D01*
X647807Y643435D01*
X645718Y641832D01*
X644115Y639743D01*
X643107Y637310D01*
X642764Y634700D01*
Y626700D01*
X643107Y624090D01*
X644115Y621657D01*
X645718Y619568D01*
X646934Y618635D01*
Y617365D01*
X645718Y616432D01*
X644115Y614343D01*
X643107Y611911D01*
X642764Y609300D01*
Y601300D01*
X643107Y598689D01*
X644115Y596257D01*
X645718Y594168D01*
X647807Y592565D01*
X650239Y591557D01*
X652850Y591214D01*
X655461Y591557D01*
X657893Y592565D01*
X659982Y594168D01*
X661585Y596257D01*
X662593Y598689D01*
X662936Y601300D01*
Y609300D01*
X662593Y611911D01*
X661585Y614343D01*
X659982Y616432D01*
X658766Y617365D01*
Y618635D01*
X659982Y619568D01*
X661585Y621657D01*
X662593Y624090D01*
X662936Y626700D01*
Y634700D01*
X662593Y637310D01*
X661585Y639743D01*
X659982Y641832D01*
X657893Y643435D01*
X657438Y643623D01*
Y651512D01*
X657089Y653268D01*
X656094Y654756D01*
X654606Y656244D01*
X654276Y656465D01*
X654014Y658167D01*
X654211Y658412D01*
X669100D01*
X673662Y653849D01*
Y643623D01*
X673207Y643435D01*
X671118Y641832D01*
X669515Y639743D01*
X668507Y637310D01*
X668164Y634700D01*
Y626700D01*
X668507Y624090D01*
X669515Y621657D01*
X671118Y619568D01*
X672334Y618635D01*
Y617365D01*
X671118Y616432D01*
X669515Y614343D01*
X668507Y611911D01*
X668164Y609300D01*
Y601300D01*
X668507Y598689D01*
X669515Y596257D01*
X671118Y594168D01*
X673207Y592565D01*
X675639Y591557D01*
X678250Y591214D01*
X680861Y591557D01*
X683293Y592565D01*
X685382Y594168D01*
X686985Y596257D01*
X687993Y598689D01*
X688336Y601300D01*
Y609300D01*
X687993Y611911D01*
X686985Y614343D01*
X685382Y616432D01*
X684166Y617365D01*
Y618635D01*
X685382Y619568D01*
X686985Y621657D01*
X687993Y624090D01*
X688336Y626700D01*
Y634700D01*
X687993Y637310D01*
X686985Y639743D01*
X685382Y641832D01*
X683293Y643435D01*
X682838Y643623D01*
Y655750D01*
X682489Y657506D01*
X681494Y658994D01*
X675347Y665142D01*
X675873Y666412D01*
X691099D01*
X699062Y658449D01*
Y643623D01*
X698607Y643435D01*
X696518Y641832D01*
X694915Y639743D01*
X693907Y637310D01*
X693564Y634700D01*
Y626700D01*
X693907Y624090D01*
X694915Y621657D01*
X696518Y619568D01*
X697734Y618635D01*
Y617365D01*
X696518Y616432D01*
X694915Y614343D01*
X693907Y611911D01*
X693564Y609300D01*
Y601300D01*
X693907Y598689D01*
X694915Y596257D01*
X696518Y594168D01*
X698607Y592565D01*
X701040Y591557D01*
X703650Y591214D01*
X706261Y591557D01*
X708693Y592565D01*
X710782Y594168D01*
X712385Y596257D01*
X713393Y598689D01*
X713736Y601300D01*
Y609300D01*
X713393Y611911D01*
X712385Y614343D01*
X710782Y616432D01*
X709566Y617365D01*
Y618635D01*
X710782Y619568D01*
X712385Y621657D01*
X713393Y624090D01*
X713736Y626700D01*
Y634700D01*
X713393Y637310D01*
X712385Y639743D01*
X710782Y641832D01*
X708693Y643435D01*
X708238Y643623D01*
Y660350D01*
X707889Y662106D01*
X706894Y663594D01*
X697347Y673142D01*
X697873Y674412D01*
X718100D01*
X724462Y668049D01*
Y643623D01*
X724007Y643435D01*
X721918Y641832D01*
X720315Y639743D01*
X719307Y637310D01*
X718964Y634700D01*
Y626700D01*
X719307Y624090D01*
X720315Y621657D01*
X721918Y619568D01*
X723134Y618635D01*
Y617365D01*
X721918Y616432D01*
X720315Y614343D01*
X719307Y611911D01*
X718964Y609300D01*
Y601300D01*
X719307Y598689D01*
X720315Y596257D01*
X721918Y594168D01*
X724007Y592565D01*
X726440Y591557D01*
X729050Y591214D01*
X731661Y591557D01*
X734093Y592565D01*
X736182Y594168D01*
X737785Y596257D01*
X738793Y598689D01*
X739136Y601300D01*
Y609300D01*
X738793Y611911D01*
X737785Y614343D01*
X736182Y616432D01*
X734966Y617365D01*
Y618635D01*
X736182Y619568D01*
X737785Y621657D01*
X738793Y624090D01*
X739136Y626700D01*
Y634700D01*
X738793Y637310D01*
X737785Y639743D01*
X736182Y641832D01*
X734093Y643435D01*
X733638Y643623D01*
Y669950D01*
X733289Y671706D01*
X732294Y673194D01*
X723244Y682244D01*
X721756Y683239D01*
X720000Y683588D01*
D02*
G37*
G36*
X627450Y644786D02*
X624840Y644443D01*
X622407Y643435D01*
X620318Y641832D01*
X618715Y639743D01*
X617707Y637310D01*
X617364Y634700D01*
Y626700D01*
X617707Y624090D01*
X618715Y621657D01*
X620318Y619568D01*
X621534Y618635D01*
Y617365D01*
X620318Y616432D01*
X618715Y614343D01*
X617707Y611911D01*
X617364Y609300D01*
Y601300D01*
X617707Y598689D01*
X618715Y596257D01*
X620318Y594168D01*
X622407Y592565D01*
X624840Y591557D01*
X627450Y591214D01*
X630061Y591557D01*
X632493Y592565D01*
X634582Y594168D01*
X636185Y596257D01*
X637193Y598689D01*
X637536Y601300D01*
Y609300D01*
X637193Y611911D01*
X636185Y614343D01*
X634582Y616432D01*
X633366Y617365D01*
Y618635D01*
X634582Y619568D01*
X636185Y621657D01*
X637193Y624090D01*
X637536Y626700D01*
Y634700D01*
X637193Y637310D01*
X636185Y639743D01*
X634582Y641832D01*
X632493Y643435D01*
X630061Y644443D01*
X627450Y644786D01*
D02*
G37*
G36*
X524500Y589504D02*
X520885D01*
Y585785D01*
X528727D01*
X528522Y586816D01*
X527579Y588228D01*
X526166Y589172D01*
X524500Y589504D01*
D02*
G37*
G36*
X519615D02*
X516000D01*
X514334Y589172D01*
X512921Y588228D01*
X511978Y586816D01*
X511773Y585785D01*
X519615D01*
Y589504D01*
D02*
G37*
G36*
X470000D02*
X466385D01*
Y585785D01*
X474227D01*
X474022Y586816D01*
X473078Y588228D01*
X471666Y589172D01*
X470000Y589504D01*
D02*
G37*
G36*
X465115D02*
X461500D01*
X459834Y589172D01*
X458422Y588228D01*
X457478Y586816D01*
X457273Y585785D01*
X465115D01*
Y589504D01*
D02*
G37*
G36*
X395520Y591270D02*
X389885D01*
Y581635D01*
X395520D01*
Y591270D01*
D02*
G37*
G36*
X388615D02*
X382980D01*
Y581635D01*
X388615D01*
Y591270D01*
D02*
G37*
G36*
X528727Y584515D02*
X520885D01*
Y580796D01*
X524500D01*
X526166Y581128D01*
X527579Y582071D01*
X528522Y583484D01*
X528727Y584515D01*
D02*
G37*
G36*
X519615D02*
X511773D01*
X511978Y583484D01*
X512921Y582071D01*
X514334Y581128D01*
X516000Y580796D01*
X519615D01*
Y584515D01*
D02*
G37*
G36*
X474227Y584515D02*
X466385D01*
Y580796D01*
X470000D01*
X471666Y581128D01*
X473078Y582071D01*
X474022Y583484D01*
X474227Y584515D01*
D02*
G37*
G36*
X465115D02*
X457273D01*
X457478Y583484D01*
X458422Y582071D01*
X459834Y581128D01*
X461500Y580796D01*
X465115D01*
Y584515D01*
D02*
G37*
G36*
X961270Y590270D02*
X955635D01*
Y580635D01*
X961270D01*
Y590270D01*
D02*
G37*
G36*
X954365D02*
X948730D01*
Y580635D01*
X954365D01*
Y590270D01*
D02*
G37*
G36*
X538922Y580000D02*
X537078D01*
X535298Y579523D01*
X533702Y578601D01*
X533433Y578333D01*
X525681D01*
X524500Y578568D01*
X516000D01*
X513659Y578102D01*
X511674Y576776D01*
X510348Y574791D01*
X509882Y572450D01*
X510348Y570109D01*
X511674Y568124D01*
X513659Y566798D01*
X515392Y566453D01*
Y561000D01*
X499500D01*
Y537000D01*
X515500D01*
Y543392D01*
X516310D01*
X518456Y543819D01*
X520275Y545035D01*
X524965Y549725D01*
X526181Y551544D01*
X526608Y553690D01*
Y566752D01*
X526841Y566798D01*
X527319Y567117D01*
X534189D01*
X535298Y566477D01*
X537078Y566000D01*
X538922D01*
X540702Y566477D01*
X542298Y567399D01*
X543601Y568702D01*
X544523Y570298D01*
X545000Y572078D01*
Y573922D01*
X544523Y575702D01*
X543601Y577298D01*
X542298Y578601D01*
X540702Y579523D01*
X538922Y580000D01*
D02*
G37*
G36*
X470000Y576804D02*
X466385D01*
Y573085D01*
X474227D01*
X474022Y574116D01*
X473078Y575528D01*
X471666Y576472D01*
X470000Y576804D01*
D02*
G37*
G36*
X465115D02*
X461500D01*
X459834Y576472D01*
X458422Y575528D01*
X457478Y574116D01*
X457273Y573085D01*
X465115D01*
Y576804D01*
D02*
G37*
G36*
X395520Y580365D02*
X389885D01*
Y570730D01*
X395520D01*
Y580365D01*
D02*
G37*
G36*
X388615D02*
X382980D01*
Y570730D01*
X388615D01*
Y580365D01*
D02*
G37*
G36*
X961270Y579365D02*
X955635D01*
Y569730D01*
X961270D01*
Y579365D01*
D02*
G37*
G36*
X954365D02*
X948730D01*
Y569730D01*
X954365D01*
Y579365D01*
D02*
G37*
G36*
X474227Y571815D02*
X466385D01*
Y568096D01*
X470000D01*
X471666Y568428D01*
X473078Y569371D01*
X474022Y570784D01*
X474227Y571815D01*
D02*
G37*
G36*
X465115D02*
X457273D01*
X457478Y570784D01*
X458422Y569371D01*
X459834Y568428D01*
X461500Y568096D01*
X465115D01*
Y571815D01*
D02*
G37*
G36*
X482770Y559270D02*
X477135D01*
Y549635D01*
X482770D01*
Y559270D01*
D02*
G37*
G36*
X475865D02*
X470230D01*
Y549635D01*
X475865D01*
Y559270D01*
D02*
G37*
G36*
X347000Y561200D02*
X323000D01*
Y536800D01*
X347000D01*
Y543392D01*
X352713D01*
X354298Y542477D01*
X356078Y542000D01*
X357922D01*
X359702Y542477D01*
X361298Y543399D01*
X362601Y544702D01*
X363523Y546298D01*
X364000Y548078D01*
Y549922D01*
X363523Y551702D01*
X362601Y553298D01*
X361298Y554601D01*
X359702Y555523D01*
X357922Y556000D01*
X356078D01*
X354298Y555523D01*
X352713Y554608D01*
X347000D01*
Y561200D01*
D02*
G37*
G36*
X887000Y668588D02*
X764000D01*
X762244Y668239D01*
X760756Y667244D01*
X751206Y657694D01*
X750211Y656206D01*
X749862Y654450D01*
Y643623D01*
X749407Y643435D01*
X747318Y641832D01*
X745715Y639743D01*
X744707Y637310D01*
X744364Y634700D01*
Y626700D01*
X744707Y624090D01*
X745715Y621657D01*
X747318Y619568D01*
X748534Y618635D01*
Y617365D01*
X747318Y616432D01*
X745715Y614343D01*
X744707Y611911D01*
X744364Y609300D01*
Y601300D01*
X744707Y598689D01*
X745715Y596257D01*
X747318Y594168D01*
X749407Y592565D01*
X751840Y591557D01*
X754450Y591214D01*
X757060Y591557D01*
X759493Y592565D01*
X761582Y594168D01*
X763185Y596257D01*
X764193Y598689D01*
X764536Y601300D01*
Y609300D01*
X764193Y611911D01*
X763185Y614343D01*
X761582Y616432D01*
X760366Y617365D01*
Y618635D01*
X761582Y619568D01*
X763185Y621657D01*
X764193Y624090D01*
X764536Y626700D01*
Y634700D01*
X764193Y637310D01*
X763185Y639743D01*
X761582Y641832D01*
X759493Y643435D01*
X759038Y643623D01*
Y652550D01*
X765900Y659412D01*
X803889D01*
X804086Y659167D01*
X803824Y657465D01*
X803494Y657244D01*
X802006Y655756D01*
X801011Y654268D01*
X800662Y652512D01*
Y643623D01*
X800207Y643435D01*
X798118Y641832D01*
X796515Y639743D01*
X795507Y637310D01*
X795164Y634700D01*
Y626700D01*
X795507Y624090D01*
X796515Y621657D01*
X798118Y619568D01*
X799334Y618635D01*
Y617365D01*
X798118Y616432D01*
X796515Y614343D01*
X795507Y611911D01*
X795164Y609300D01*
Y601300D01*
X795507Y598689D01*
X796515Y596257D01*
X798118Y594168D01*
X800207Y592565D01*
X802639Y591557D01*
X805250Y591214D01*
X807860Y591557D01*
X810293Y592565D01*
X812382Y594168D01*
X813985Y596257D01*
X814993Y598689D01*
X815336Y601300D01*
Y609300D01*
X814993Y611911D01*
X813985Y614343D01*
X812382Y616432D01*
X811166Y617365D01*
Y618635D01*
X812382Y619568D01*
X813985Y621657D01*
X814993Y624090D01*
X815336Y626700D01*
Y634700D01*
X814993Y637310D01*
X813985Y639743D01*
X812382Y641832D01*
X810293Y643435D01*
X809838Y643623D01*
Y649412D01*
X873100D01*
X878412Y644100D01*
Y473588D01*
X833000D01*
X832064Y473402D01*
X831024Y474293D01*
X830958Y474459D01*
Y497343D01*
X831002Y497409D01*
X831052Y497664D01*
X832347D01*
X832398Y497409D01*
X833724Y495424D01*
X835709Y494098D01*
X838050Y493633D01*
X840391Y494098D01*
X842376Y495424D01*
X843702Y497409D01*
X843997Y498892D01*
X859392D01*
Y491500D01*
X853000D01*
Y475500D01*
X877000D01*
Y491500D01*
X870608D01*
Y501571D01*
X870181Y503717D01*
X868965Y505536D01*
X866036Y508465D01*
X864217Y509681D01*
X862071Y510108D01*
X843997D01*
X843702Y511591D01*
X843658Y511657D01*
Y547950D01*
X843231Y550096D01*
X842015Y551915D01*
X816965Y576965D01*
X815146Y578181D01*
X813000Y578608D01*
X614287D01*
X612702Y579523D01*
X610922Y580000D01*
X609078D01*
X607298Y579523D01*
X605702Y578601D01*
X604399Y577298D01*
X603477Y575702D01*
X603000Y573922D01*
Y572078D01*
X603477Y570298D01*
X604399Y568702D01*
X605702Y567399D01*
X607298Y566477D01*
X609078Y566000D01*
X610922D01*
X612702Y566477D01*
X614287Y567392D01*
X810677D01*
X832442Y545627D01*
Y511657D01*
X832398Y511591D01*
X832347Y511336D01*
X831052D01*
X831002Y511591D01*
X829676Y513576D01*
X827691Y514902D01*
X825350Y515368D01*
X823009Y514902D01*
X821024Y513576D01*
X819698Y511591D01*
X819647Y511336D01*
X818353D01*
X818302Y511591D01*
X817238Y513183D01*
Y533350D01*
X816889Y535106D01*
X815894Y536594D01*
X799215Y553274D01*
X797726Y554268D01*
X795971Y554618D01*
X596871D01*
X588588Y562901D01*
Y626900D01*
X591964D01*
Y626700D01*
X592307Y624090D01*
X593315Y621657D01*
X594918Y619568D01*
X596134Y618635D01*
Y617365D01*
X594918Y616432D01*
X593315Y614343D01*
X592307Y611911D01*
X591964Y609300D01*
Y601300D01*
X592307Y598689D01*
X593315Y596257D01*
X594918Y594168D01*
X597007Y592565D01*
X599440Y591557D01*
X602050Y591214D01*
X604660Y591557D01*
X607093Y592565D01*
X609182Y594168D01*
X610785Y596257D01*
X611793Y598689D01*
X612136Y601300D01*
Y609300D01*
X611793Y611911D01*
X610785Y614343D01*
X609182Y616432D01*
X607966Y617365D01*
Y618635D01*
X609182Y619568D01*
X610785Y621657D01*
X611793Y624090D01*
X612136Y626700D01*
Y634700D01*
X611793Y637310D01*
X610785Y639743D01*
X609182Y641832D01*
X607093Y643435D01*
X604660Y644443D01*
X602050Y644786D01*
X599440Y644443D01*
X597007Y643435D01*
X594918Y641832D01*
X593315Y639743D01*
X592307Y637310D01*
X592145Y636076D01*
X585488D01*
X583732Y635727D01*
X582244Y634732D01*
X580756Y633244D01*
X579761Y631756D01*
X579412Y630000D01*
Y561000D01*
X579761Y559244D01*
X580756Y557756D01*
X591726Y546785D01*
X593215Y545791D01*
X594971Y545441D01*
X794070D01*
X808062Y531450D01*
Y513183D01*
X806998Y511591D01*
X806947Y511336D01*
X805652D01*
X805602Y511591D01*
X804276Y513576D01*
X802291Y514902D01*
X799950Y515368D01*
X797609Y514902D01*
X795624Y513576D01*
X794298Y511591D01*
X793832Y509250D01*
Y509088D01*
X706500D01*
X704744Y508739D01*
X703256Y507744D01*
X589762Y394250D01*
X588588Y394736D01*
Y406100D01*
X622489Y440000D01*
X623922D01*
X625702Y440477D01*
X627298Y441399D01*
X628601Y442702D01*
X629523Y444298D01*
X630000Y446078D01*
Y447922D01*
X629523Y449702D01*
X628601Y451298D01*
X627298Y452601D01*
X625702Y453523D01*
X623922Y454000D01*
X622078D01*
X620298Y453523D01*
X618702Y452601D01*
X617399Y451298D01*
X616477Y449702D01*
X616000Y447922D01*
Y446489D01*
X587173Y417662D01*
X586000Y418148D01*
Y440200D01*
X562000D01*
Y415800D01*
X568412D01*
Y277311D01*
X567399Y276298D01*
X566477Y274702D01*
X566000Y272922D01*
Y271078D01*
X566477Y269298D01*
X567399Y267702D01*
X568242Y266858D01*
X567716Y265588D01*
X507901D01*
X453588Y319900D01*
Y418000D01*
X453239Y419756D01*
X452244Y421244D01*
X358244Y515244D01*
X356756Y516239D01*
X355000Y516588D01*
X347000D01*
X345244Y516239D01*
X343756Y515244D01*
X335756Y507244D01*
X334761Y505756D01*
X334412Y504000D01*
Y490000D01*
X334761Y488244D01*
X335756Y486756D01*
X339756Y482756D01*
X341244Y481761D01*
X343000Y481412D01*
X346689D01*
X347702Y480399D01*
X349298Y479477D01*
X351078Y479000D01*
X352922D01*
X354702Y479477D01*
X356298Y480399D01*
X357601Y481702D01*
X358523Y483298D01*
X358923Y484792D01*
X360146Y485366D01*
X430962Y414549D01*
Y312450D01*
X431311Y310694D01*
X432306Y309205D01*
X487750Y253762D01*
X487264Y252588D01*
X472701D01*
X459886Y265402D01*
Y273000D01*
X459543Y275611D01*
X458535Y278043D01*
X456932Y280132D01*
X454843Y281735D01*
X452411Y282743D01*
X449800Y283086D01*
X447189Y282743D01*
X444757Y281735D01*
X442668Y280132D01*
X441065Y278043D01*
X440057Y275611D01*
X439714Y273000D01*
Y265000D01*
X440057Y262390D01*
X441065Y259957D01*
X442668Y257868D01*
X444757Y256265D01*
X447189Y255257D01*
X449800Y254914D01*
X452411Y255257D01*
X454843Y256265D01*
X455524Y256787D01*
X467556Y244756D01*
X469044Y243761D01*
X470800Y243412D01*
X867000D01*
X868756Y243761D01*
X870244Y244756D01*
X925244Y299756D01*
X926239Y301244D01*
X926588Y303000D01*
Y342800D01*
X935000D01*
Y367200D01*
X928588D01*
Y371000D01*
X932000D01*
Y395000D01*
X916000D01*
Y371000D01*
X919412D01*
Y367200D01*
X911000D01*
Y342800D01*
X917412D01*
Y304900D01*
X865099Y252588D01*
X858848D01*
X858652Y252833D01*
X858914Y254535D01*
X859244Y254756D01*
X902244Y297756D01*
X903239Y299244D01*
X903588Y301000D01*
Y475099D01*
X906900Y478412D01*
X916000D01*
Y471000D01*
X919412D01*
Y467200D01*
X911000D01*
Y442800D01*
X935000D01*
Y467200D01*
X928588D01*
Y471000D01*
X932000D01*
Y495000D01*
X916000D01*
Y487588D01*
X905000D01*
X903244Y487239D01*
X901756Y486244D01*
X895756Y480244D01*
X894761Y478756D01*
X894412Y477000D01*
Y302901D01*
X889858Y298347D01*
X888588Y298873D01*
Y375000D01*
X888239Y376756D01*
X887244Y378244D01*
X842652Y422837D01*
X843702Y424409D01*
X844167Y426750D01*
Y436250D01*
X843702Y438591D01*
X842376Y440576D01*
X840391Y441902D01*
X838050Y442368D01*
X835709Y441902D01*
X833724Y440576D01*
X832398Y438591D01*
X832347Y438336D01*
X831052D01*
X831002Y438591D01*
X829938Y440183D01*
Y459450D01*
X834901Y464412D01*
X881512D01*
X883268Y464761D01*
X884756Y465756D01*
X886244Y467244D01*
X887239Y468732D01*
X887588Y470488D01*
Y646000D01*
X887239Y647756D01*
X886244Y649244D01*
X878244Y657244D01*
X877914Y657465D01*
X877652Y659167D01*
X877848Y659412D01*
X885099D01*
X919412Y625099D01*
Y592000D01*
X916000D01*
Y568000D01*
X919412D01*
Y563200D01*
X911000D01*
Y538800D01*
X935000D01*
Y563200D01*
X928588D01*
Y568000D01*
X932000D01*
Y592000D01*
X928588D01*
Y627000D01*
X928239Y628756D01*
X927244Y630244D01*
X890244Y667244D01*
X888756Y668239D01*
X887000Y668588D01*
D02*
G37*
G36*
X482770Y548365D02*
X477135D01*
Y538730D01*
X482770D01*
Y548365D01*
D02*
G37*
G36*
X475865D02*
X470230D01*
Y538730D01*
X475865D01*
Y548365D01*
D02*
G37*
G36*
X421000Y625608D02*
X319000D01*
X316854Y625181D01*
X315035Y623965D01*
X301035Y609965D01*
X299819Y608146D01*
X299392Y606000D01*
Y561200D01*
X293000D01*
Y536800D01*
X317000D01*
Y561200D01*
X310608D01*
Y603677D01*
X321323Y614392D01*
X415392D01*
Y593000D01*
X412250D01*
Y569000D01*
X415392D01*
Y563812D01*
X413155Y562095D01*
X411391Y559798D01*
X410283Y557122D01*
X409905Y554250D01*
Y548250D01*
X410283Y545378D01*
X411391Y542702D01*
X413155Y540405D01*
X415453Y538642D01*
X418128Y537533D01*
X421000Y537155D01*
X423872Y537533D01*
X426547Y538642D01*
X428845Y540405D01*
X430608Y542702D01*
X431717Y545378D01*
X432095Y548250D01*
Y554250D01*
X431717Y557122D01*
X430608Y559798D01*
X428845Y562095D01*
X426608Y563812D01*
Y569000D01*
X428250D01*
Y593000D01*
X426608D01*
Y620000D01*
X426181Y622146D01*
X424965Y623965D01*
X423146Y625181D01*
X421000Y625608D01*
D02*
G37*
G36*
X395600Y565345D02*
X392728Y564967D01*
X390053Y563858D01*
X387755Y562095D01*
X385992Y559798D01*
X384883Y557122D01*
X384505Y554250D01*
Y548250D01*
X384883Y545378D01*
X385992Y542702D01*
X387755Y540405D01*
X389992Y538688D01*
Y515929D01*
X390419Y513783D01*
X391635Y511964D01*
X394564Y509035D01*
X396383Y507819D01*
X398529Y507392D01*
X406000D01*
Y505000D01*
X430000D01*
Y507392D01*
X435000D01*
Y505250D01*
X459000D01*
Y521250D01*
X435000D01*
Y518608D01*
X430000D01*
Y521000D01*
X406000D01*
Y518608D01*
X401208D01*
Y538688D01*
X403445Y540405D01*
X405209Y542702D01*
X406317Y545378D01*
X406695Y548250D01*
Y554250D01*
X406317Y557122D01*
X405209Y559798D01*
X403445Y562095D01*
X401147Y563858D01*
X398472Y564967D01*
X395600Y565345D01*
D02*
G37*
G36*
X961270Y493270D02*
X955635D01*
Y483635D01*
X961270D01*
Y493270D01*
D02*
G37*
G36*
X954365D02*
X948730D01*
Y483635D01*
X954365D01*
Y493270D01*
D02*
G37*
G36*
X457270Y488520D02*
X447635D01*
Y482885D01*
X457270D01*
Y488520D01*
D02*
G37*
G36*
X446365D02*
X436730D01*
Y482885D01*
X446365D01*
Y488520D01*
D02*
G37*
G36*
X428270Y488270D02*
X418635D01*
Y482635D01*
X428270D01*
Y488270D01*
D02*
G37*
G36*
X417365D02*
X407730D01*
Y482635D01*
X417365D01*
Y488270D01*
D02*
G37*
G36*
X457270Y481615D02*
X447635D01*
Y475980D01*
X457270D01*
Y481615D01*
D02*
G37*
G36*
X446365D02*
X436730D01*
Y475980D01*
X446365D01*
Y481615D01*
D02*
G37*
G36*
X428270Y481365D02*
X418635D01*
Y475730D01*
X428270D01*
Y481365D01*
D02*
G37*
G36*
X417365D02*
X407730D01*
Y475730D01*
X417365D01*
Y481365D01*
D02*
G37*
G36*
X961270Y482365D02*
X955635D01*
Y472730D01*
X961270D01*
Y482365D01*
D02*
G37*
G36*
X954365D02*
X948730D01*
Y472730D01*
X954365D01*
Y482365D01*
D02*
G37*
G36*
X556000Y480200D02*
X532000D01*
Y472354D01*
X528546D01*
X527298Y473601D01*
X525702Y474523D01*
X523922Y475000D01*
X522078D01*
X520298Y474523D01*
X518702Y473601D01*
X517399Y472298D01*
X516477Y470702D01*
X516000Y468922D01*
Y467078D01*
X516477Y465298D01*
X517399Y463702D01*
X518702Y462399D01*
X520298Y461477D01*
X522078Y461000D01*
X523922D01*
X525702Y461477D01*
X527298Y462399D01*
X528546Y463646D01*
X532000D01*
Y455800D01*
X556000D01*
Y480200D01*
D02*
G37*
G36*
X965000Y563200D02*
X941000D01*
Y538800D01*
X965000D01*
Y542220D01*
X966173Y542706D01*
X967392Y541487D01*
Y460608D01*
X965000D01*
Y467200D01*
X941000D01*
Y442800D01*
X965000D01*
Y449392D01*
X967392D01*
Y364513D01*
X966173Y363294D01*
X965000Y363780D01*
Y367200D01*
X941000D01*
Y342800D01*
X965000D01*
Y349392D01*
X965810D01*
X967956Y349819D01*
X969775Y351035D01*
X976965Y358225D01*
X978181Y360044D01*
X978608Y362190D01*
Y450713D01*
X979523Y452298D01*
X980000Y454078D01*
Y455922D01*
X979523Y457702D01*
X978608Y459287D01*
Y543810D01*
X978181Y545956D01*
X976965Y547775D01*
X969775Y554965D01*
X967956Y556181D01*
X965810Y556608D01*
X965000D01*
Y563200D01*
D02*
G37*
G36*
X875270Y458770D02*
X865635D01*
Y453135D01*
X875270D01*
Y458770D01*
D02*
G37*
G36*
X864365D02*
X854730D01*
Y453135D01*
X864365D01*
Y458770D01*
D02*
G37*
G36*
X875270Y451865D02*
X865635D01*
Y446230D01*
X875270D01*
Y451865D01*
D02*
G37*
G36*
X864365D02*
X854730D01*
Y446230D01*
X864365D01*
Y451865D01*
D02*
G37*
G36*
X556000Y440200D02*
X532000D01*
Y433608D01*
X527287D01*
X525702Y434523D01*
X523922Y435000D01*
X522078D01*
X520298Y434523D01*
X518702Y433601D01*
X517399Y432298D01*
X516477Y430702D01*
X516000Y428922D01*
Y427078D01*
X516477Y425298D01*
X517399Y423702D01*
X518702Y422399D01*
X520298Y421477D01*
X522078Y421000D01*
X523922D01*
X525702Y421477D01*
X527287Y422392D01*
X532000D01*
Y415800D01*
X556000D01*
Y440200D01*
D02*
G37*
G36*
X297270Y437770D02*
X291635D01*
Y428135D01*
X297270D01*
Y437770D01*
D02*
G37*
G36*
X290365D02*
X284730D01*
Y428135D01*
X290365D01*
Y437770D01*
D02*
G37*
G36*
X297270Y426865D02*
X291635D01*
Y417230D01*
X297270D01*
Y426865D01*
D02*
G37*
G36*
X290365D02*
X284730D01*
Y417230D01*
X290365D01*
Y426865D01*
D02*
G37*
G36*
X485922Y436000D02*
X484078D01*
X482298Y435523D01*
X480702Y434601D01*
X479399Y433298D01*
X478477Y431702D01*
X478000Y429922D01*
Y428078D01*
X478477Y426298D01*
X479392Y424713D01*
Y415000D01*
X473550D01*
Y391000D01*
X497950D01*
Y415000D01*
X490608D01*
Y424713D01*
X491523Y426298D01*
X492000Y428078D01*
Y429922D01*
X491523Y431702D01*
X490601Y433298D01*
X489298Y434601D01*
X487702Y435523D01*
X485922Y436000D01*
D02*
G37*
G36*
X961270Y393270D02*
X955635D01*
Y383635D01*
X961270D01*
Y393270D01*
D02*
G37*
G36*
X954365D02*
X948730D01*
Y383635D01*
X954365D01*
Y393270D01*
D02*
G37*
G36*
X961270Y382365D02*
X955635D01*
Y372730D01*
X961270D01*
Y382365D01*
D02*
G37*
G36*
X954365D02*
X948730D01*
Y372730D01*
X954365D01*
Y382365D01*
D02*
G37*
G36*
X542922Y399000D02*
X541078D01*
X539298Y398523D01*
X537702Y397601D01*
X536399Y396298D01*
X535477Y394702D01*
X535000Y392922D01*
Y391078D01*
X535477Y389298D01*
X536392Y387713D01*
Y376750D01*
X530300D01*
Y352750D01*
X554700D01*
Y376750D01*
X547608D01*
Y387713D01*
X548523Y389298D01*
X549000Y391078D01*
Y392922D01*
X548523Y394702D01*
X547601Y396298D01*
X546298Y397601D01*
X544702Y398523D01*
X542922Y399000D01*
D02*
G37*
G36*
X509520Y357270D02*
X505635D01*
Y351885D01*
X509520D01*
Y357270D01*
D02*
G37*
G36*
X504365D02*
X500480D01*
Y351885D01*
X504365D01*
Y357270D01*
D02*
G37*
G36*
X509520Y350615D02*
X505635D01*
Y345230D01*
X509520D01*
Y350615D01*
D02*
G37*
G36*
X504365D02*
X500480D01*
Y345230D01*
X504365D01*
Y350615D01*
D02*
G37*
G36*
X497950Y385000D02*
X473550D01*
Y361000D01*
X480392D01*
Y359000D01*
X479750D01*
Y343500D01*
X492250D01*
Y359000D01*
X491608D01*
Y361000D01*
X497950D01*
Y385000D01*
D02*
G37*
G36*
X554700Y346750D02*
X530300D01*
Y322750D01*
X530300D01*
X530252Y321500D01*
X528450D01*
Y295500D01*
X554450D01*
Y321500D01*
X554450D01*
X554498Y322750D01*
X554700D01*
Y346750D01*
D02*
G37*
G36*
X501750Y336000D02*
X489250D01*
Y320500D01*
X489304D01*
X489608Y319230D01*
X488868Y318803D01*
X486447Y316382D01*
X484736Y313418D01*
X483850Y310112D01*
Y306688D01*
X484736Y303382D01*
X486447Y300418D01*
X488868Y297997D01*
X491832Y296286D01*
X495139Y295400D01*
X498562D01*
X501868Y296286D01*
X504832Y297997D01*
X507253Y300418D01*
X508964Y303382D01*
X509850Y306688D01*
Y310112D01*
X508964Y313418D01*
X507253Y316382D01*
X504832Y318803D01*
X501868Y320514D01*
X501750Y320546D01*
Y336000D01*
D02*
G37*
G36*
X348835Y281258D02*
Y269635D01*
X356541D01*
Y273000D01*
X356257Y275159D01*
X355424Y277171D01*
X354098Y278898D01*
X352371Y280224D01*
X350359Y281057D01*
X348835Y281258D01*
D02*
G37*
G36*
X347565D02*
X346041Y281057D01*
X344029Y280224D01*
X342302Y278898D01*
X340976Y277171D01*
X340143Y275159D01*
X339859Y273000D01*
Y269635D01*
X347565D01*
Y281258D01*
D02*
G37*
G36*
X356541Y268365D02*
X348835D01*
Y256742D01*
X350359Y256943D01*
X352371Y257776D01*
X354098Y259102D01*
X355424Y260829D01*
X356257Y262841D01*
X356541Y265000D01*
Y268365D01*
D02*
G37*
G36*
X347565D02*
X339859D01*
Y265000D01*
X340143Y262841D01*
X340976Y260829D01*
X342302Y259102D01*
X344029Y257776D01*
X346041Y256943D01*
X347565Y256742D01*
Y268365D01*
D02*
G37*
G36*
X424400Y283086D02*
X421790Y282743D01*
X419357Y281735D01*
X417268Y280132D01*
X415665Y278043D01*
X414657Y275611D01*
X414314Y273000D01*
Y265000D01*
X414657Y262390D01*
X415665Y259957D01*
X417268Y257868D01*
X419357Y256265D01*
X421790Y255257D01*
X424400Y254914D01*
X427010Y255257D01*
X429443Y256265D01*
X431532Y257868D01*
X433135Y259957D01*
X434143Y262390D01*
X434486Y265000D01*
Y273000D01*
X434143Y275611D01*
X433135Y278043D01*
X431532Y280132D01*
X429443Y281735D01*
X427010Y282743D01*
X424400Y283086D01*
D02*
G37*
G36*
X399000D02*
X396390Y282743D01*
X393957Y281735D01*
X391868Y280132D01*
X390265Y278043D01*
X389257Y275611D01*
X388914Y273000D01*
Y265000D01*
X389257Y262390D01*
X390265Y259957D01*
X391868Y257868D01*
X393957Y256265D01*
X396390Y255257D01*
X399000Y254914D01*
X401610Y255257D01*
X404043Y256265D01*
X406132Y257868D01*
X407735Y259957D01*
X408743Y262390D01*
X409086Y265000D01*
Y273000D01*
X408743Y275611D01*
X407735Y278043D01*
X406132Y280132D01*
X404043Y281735D01*
X401610Y282743D01*
X399000Y283086D01*
D02*
G37*
G36*
X373600D02*
X370989Y282743D01*
X368557Y281735D01*
X366468Y280132D01*
X364865Y278043D01*
X363857Y275611D01*
X363514Y273000D01*
Y265000D01*
X363857Y262390D01*
X364865Y259957D01*
X366468Y257868D01*
X368557Y256265D01*
X370989Y255257D01*
X373600Y254914D01*
X376211Y255257D01*
X378643Y256265D01*
X380732Y257868D01*
X382335Y259957D01*
X383343Y262390D01*
X383686Y265000D01*
Y273000D01*
X383343Y275611D01*
X382335Y278043D01*
X380732Y280132D01*
X378643Y281735D01*
X376211Y282743D01*
X373600Y283086D01*
D02*
G37*
G36*
X962989Y291257D02*
X959011D01*
X958716Y291198D01*
X958414D01*
X954513Y290422D01*
X954234Y290307D01*
X953939Y290248D01*
X950264Y288726D01*
X950013Y288559D01*
X949735Y288443D01*
X946428Y286233D01*
X946215Y286020D01*
X945964Y285853D01*
X943151Y283040D01*
X942984Y282790D01*
X942771Y282577D01*
X940561Y279269D01*
X940446Y278991D01*
X940278Y278740D01*
X938756Y275065D01*
X938697Y274770D01*
X938582Y274491D01*
X937806Y270590D01*
Y270289D01*
X937747Y269993D01*
Y266015D01*
X937806Y265720D01*
Y265418D01*
X938582Y261517D01*
X938697Y261239D01*
X938756Y260943D01*
X940278Y257268D01*
X940446Y257018D01*
X940561Y256739D01*
X942771Y253432D01*
X942984Y253219D01*
X943151Y252968D01*
X945964Y250155D01*
X946215Y249988D01*
X946428Y249775D01*
X949735Y247565D01*
X950014Y247450D01*
X950264Y247282D01*
X953939Y245760D01*
X954234Y245701D01*
X954513Y245586D01*
X958414Y244810D01*
X958716D01*
X959011Y244751D01*
X962989D01*
X963284Y244810D01*
X963586D01*
X967487Y245586D01*
X967766Y245701D01*
X968061Y245760D01*
X971736Y247282D01*
X971986Y247450D01*
X972265Y247565D01*
X975572Y249775D01*
X975785Y249988D01*
X976036Y250156D01*
X978849Y252968D01*
X979016Y253219D01*
X979229Y253432D01*
X981439Y256739D01*
X981554Y257018D01*
X981722Y257268D01*
X983244Y260943D01*
X983303Y261239D01*
X983418Y261517D01*
X984194Y265418D01*
Y265720D01*
X984253Y266015D01*
Y269993D01*
X984194Y270289D01*
Y270590D01*
X983418Y274491D01*
X983303Y274770D01*
X983244Y275065D01*
X981722Y278740D01*
X981554Y278991D01*
X981439Y279269D01*
X979229Y282577D01*
X979016Y282790D01*
X978849Y283040D01*
X976036Y285853D01*
X975785Y286020D01*
X975572Y286233D01*
X972265Y288443D01*
X971986Y288559D01*
X971736Y288726D01*
X968061Y290248D01*
X967766Y290307D01*
X967487Y290422D01*
X963586Y291198D01*
X963284D01*
X962989Y291257D01*
D02*
G37*
G36*
X287989Y291253D02*
X284011D01*
X283716Y291194D01*
X283414D01*
X279513Y290418D01*
X279235Y290303D01*
X278939Y290244D01*
X275264Y288722D01*
X275013Y288554D01*
X274735Y288439D01*
X271428Y286229D01*
X271215Y286016D01*
X270964Y285849D01*
X268151Y283036D01*
X267984Y282785D01*
X267771Y282572D01*
X265561Y279265D01*
X265446Y278986D01*
X265278Y278736D01*
X263756Y275061D01*
X263697Y274765D01*
X263582Y274487D01*
X262806Y270586D01*
Y270284D01*
X262747Y269989D01*
Y266011D01*
X262806Y265716D01*
Y265414D01*
X263582Y261513D01*
X263697Y261234D01*
X263756Y260939D01*
X265278Y257264D01*
X265446Y257013D01*
X265561Y256735D01*
X267771Y253428D01*
X267984Y253215D01*
X268151Y252964D01*
X270964Y250151D01*
X271215Y249984D01*
X271428Y249771D01*
X274735Y247561D01*
X275014Y247446D01*
X275264Y247278D01*
X278939Y245756D01*
X279235Y245697D01*
X279513Y245582D01*
X283414Y244806D01*
X283716D01*
X284011Y244747D01*
X287989D01*
X288284Y244806D01*
X288586D01*
X292487Y245582D01*
X292766Y245697D01*
X293061Y245756D01*
X296736Y247278D01*
X296987Y247446D01*
X297265Y247561D01*
X300572Y249771D01*
X300785Y249984D01*
X301036Y250151D01*
X303849Y252964D01*
X304016Y253215D01*
X304229Y253428D01*
X306439Y256735D01*
X306554Y257013D01*
X306722Y257264D01*
X308244Y260939D01*
X308303Y261234D01*
X308418Y261513D01*
X309194Y265414D01*
Y265716D01*
X309253Y266011D01*
Y269989D01*
X309194Y270284D01*
Y270586D01*
X308418Y274487D01*
X308303Y274765D01*
X308244Y275061D01*
X306722Y278736D01*
X306554Y278986D01*
X306439Y279265D01*
X304229Y282572D01*
X304016Y282785D01*
X303849Y283036D01*
X301036Y285849D01*
X300785Y286016D01*
X300572Y286229D01*
X297265Y288439D01*
X296987Y288554D01*
X296736Y288722D01*
X293061Y290244D01*
X292766Y290303D01*
X292487Y290418D01*
X288586Y291194D01*
X288284D01*
X287989Y291253D01*
D02*
G37*
%LPD*%
G36*
X793832Y499750D02*
X794298Y497409D01*
X795624Y495424D01*
X797609Y494098D01*
X799950Y493633D01*
X802291Y494098D01*
X804276Y495424D01*
X805602Y497409D01*
X805652Y497664D01*
X806947D01*
X806998Y497409D01*
X808324Y495424D01*
X810309Y494098D01*
X812650Y493633D01*
X814991Y494098D01*
X816976Y495424D01*
X817802Y496661D01*
X819382Y496823D01*
X819742Y496433D01*
Y476673D01*
X808685Y465615D01*
X807469Y463796D01*
X807042Y461650D01*
Y438657D01*
X806998Y438591D01*
X806532Y436250D01*
Y426750D01*
X806998Y424409D01*
X807042Y424343D01*
Y421350D01*
X807469Y419204D01*
X808685Y417385D01*
X867392Y358677D01*
Y301323D01*
X848677Y282608D01*
X816323D01*
X812608Y286323D01*
Y292998D01*
X814132Y294168D01*
X815735Y296257D01*
X816743Y298689D01*
X817086Y301300D01*
Y309300D01*
X816743Y311910D01*
X815735Y314343D01*
X814132Y316432D01*
X812916Y317365D01*
Y318635D01*
X814132Y319568D01*
X815735Y321657D01*
X816743Y324090D01*
X817086Y326700D01*
Y334700D01*
X816743Y337310D01*
X815735Y339743D01*
X814132Y341832D01*
X812043Y343435D01*
X809611Y344443D01*
X807000Y344786D01*
X804389Y344443D01*
X803700Y344157D01*
X751354Y396503D01*
Y429560D01*
X751022Y431226D01*
X750079Y432639D01*
X744639Y438078D01*
X743226Y439022D01*
X741560Y439354D01*
X740750D01*
Y447000D01*
X724750D01*
Y423000D01*
X740750D01*
Y427514D01*
X741991Y428065D01*
X742646Y427543D01*
Y394700D01*
X742978Y393034D01*
X743922Y391622D01*
X797543Y338000D01*
X797257Y337310D01*
X796914Y334700D01*
Y326700D01*
X797257Y324090D01*
X798265Y321657D01*
X799868Y319568D01*
X801084Y318635D01*
Y317365D01*
X799868Y316432D01*
X798265Y314343D01*
X797257Y311910D01*
X796914Y309300D01*
Y301300D01*
X797257Y298689D01*
X798265Y296257D01*
X799868Y294168D01*
X801392Y292998D01*
Y284000D01*
X801819Y281854D01*
X803035Y280035D01*
X810035Y273035D01*
X811796Y271858D01*
X811813Y271763D01*
X811377Y270588D01*
X807990D01*
X787105Y291474D01*
X787303Y293071D01*
X788732Y294168D01*
X790335Y296257D01*
X791343Y298689D01*
X791686Y301300D01*
Y309300D01*
X791343Y311910D01*
X790335Y314343D01*
X788732Y316432D01*
X787516Y317365D01*
Y318635D01*
X788732Y319568D01*
X790335Y321657D01*
X791343Y324090D01*
X791686Y326700D01*
Y334700D01*
X791343Y337310D01*
X790335Y339743D01*
X788732Y341832D01*
X786643Y343435D01*
X784211Y344443D01*
X781600Y344786D01*
X778989Y344443D01*
X778300Y344157D01*
X736854Y385603D01*
Y394500D01*
X740500D01*
Y418500D01*
X724500D01*
Y394500D01*
X728146D01*
Y383800D01*
X728478Y382134D01*
X729422Y380722D01*
X772143Y338000D01*
X771857Y337310D01*
X771514Y334700D01*
Y326700D01*
X771857Y324090D01*
X772865Y321657D01*
X774468Y319568D01*
X775684Y318635D01*
Y317365D01*
X774468Y316432D01*
X772865Y314343D01*
X771857Y311910D01*
X771514Y309300D01*
Y301300D01*
X771857Y298689D01*
X772865Y296257D01*
X774468Y294168D01*
X776557Y292565D01*
X777012Y292377D01*
Y290490D01*
X777361Y288734D01*
X778356Y287246D01*
X801743Y263858D01*
X801217Y262588D01*
X728652D01*
X709988Y281252D01*
Y292377D01*
X710443Y292565D01*
X712532Y294168D01*
X714135Y296257D01*
X715143Y298689D01*
X715486Y301300D01*
Y309300D01*
X715143Y311910D01*
X714135Y314343D01*
X712532Y316432D01*
X711316Y317365D01*
Y318635D01*
X712532Y319568D01*
X714135Y321657D01*
X715143Y324090D01*
X715486Y326700D01*
Y334700D01*
X715143Y337310D01*
X714135Y339743D01*
X712532Y341832D01*
X710443Y343435D01*
X708010Y344443D01*
X705400Y344786D01*
X702790Y344443D01*
X700357Y343435D01*
X698268Y341832D01*
X696665Y339743D01*
X695657Y337310D01*
X695314Y334700D01*
Y326700D01*
X695657Y324090D01*
X696665Y321657D01*
X698268Y319568D01*
X699484Y318635D01*
Y317365D01*
X698268Y316432D01*
X696665Y314343D01*
X695657Y311910D01*
X695314Y309300D01*
Y301300D01*
X695657Y298689D01*
X696665Y296257D01*
X698268Y294168D01*
X700357Y292565D01*
X700812Y292377D01*
Y279351D01*
X701161Y277595D01*
X702156Y276107D01*
X723507Y254756D01*
X723837Y254535D01*
X724099Y252833D01*
X723903Y252588D01*
X684588D01*
Y292377D01*
X685043Y292565D01*
X687132Y294168D01*
X688735Y296257D01*
X689743Y298689D01*
X690086Y301300D01*
Y309300D01*
X689743Y311910D01*
X688735Y314343D01*
X687132Y316432D01*
X685916Y317365D01*
Y318635D01*
X687132Y319568D01*
X688735Y321657D01*
X689743Y324090D01*
X690086Y326700D01*
Y334700D01*
X689743Y337310D01*
X688735Y339743D01*
X687132Y341832D01*
X685043Y343435D01*
X682610Y344443D01*
X680000Y344786D01*
X677390Y344443D01*
X674957Y343435D01*
X672868Y341832D01*
X671265Y339743D01*
X670257Y337310D01*
X669914Y334700D01*
Y326700D01*
X670257Y324090D01*
X671265Y321657D01*
X672868Y319568D01*
X674084Y318635D01*
Y317365D01*
X672868Y316432D01*
X671265Y314343D01*
X670257Y311910D01*
X669914Y309300D01*
Y301300D01*
X670257Y298689D01*
X671265Y296257D01*
X672868Y294168D01*
X674957Y292565D01*
X675412Y292377D01*
Y252588D01*
X624736D01*
X624250Y253762D01*
X657844Y287356D01*
X658839Y288844D01*
X659188Y290600D01*
Y292377D01*
X659643Y292565D01*
X661732Y294168D01*
X663335Y296257D01*
X664343Y298689D01*
X664686Y301300D01*
Y309300D01*
X664343Y311910D01*
X663335Y314343D01*
X661732Y316432D01*
X660516Y317365D01*
Y318635D01*
X661732Y319568D01*
X663335Y321657D01*
X664343Y324090D01*
X664686Y326700D01*
Y334700D01*
X664343Y337310D01*
X663335Y339743D01*
X661732Y341832D01*
X659643Y343435D01*
X657210Y344443D01*
X654600Y344786D01*
X651990Y344443D01*
X649557Y343435D01*
X647468Y341832D01*
X645865Y339743D01*
X644857Y337310D01*
X644514Y334700D01*
Y326700D01*
X644857Y324090D01*
X645865Y321657D01*
X647468Y319568D01*
X648684Y318635D01*
Y317365D01*
X647468Y316432D01*
X645865Y314343D01*
X644857Y311910D01*
X644514Y309300D01*
Y301300D01*
X644857Y298689D01*
X645865Y296257D01*
X647468Y294168D01*
X648835Y293119D01*
X649009Y291497D01*
X616100Y258588D01*
X580736D01*
X580250Y259762D01*
X587244Y266756D01*
X588239Y268244D01*
X588588Y270000D01*
Y301576D01*
X589161Y301813D01*
X589858Y301980D01*
X591234Y301061D01*
X592990Y300712D01*
X593791D01*
X594057Y298689D01*
X595065Y296257D01*
X596668Y294168D01*
X598757Y292565D01*
X601189Y291557D01*
X603800Y291214D01*
X606410Y291557D01*
X608843Y292565D01*
X610932Y294168D01*
X612535Y296257D01*
X613543Y298689D01*
X613886Y301300D01*
Y309300D01*
X613543Y311910D01*
X612535Y314343D01*
X610932Y316432D01*
X609716Y317365D01*
Y318635D01*
X610932Y319568D01*
X612535Y321657D01*
X613543Y324090D01*
X613886Y326700D01*
Y334700D01*
X613543Y337310D01*
X612535Y339743D01*
X610932Y341832D01*
X608843Y343435D01*
X606410Y344443D01*
X603800Y344786D01*
X601189Y344443D01*
X598757Y343435D01*
X597360Y342363D01*
X596090Y342990D01*
Y387602D01*
X708400Y499912D01*
X793832D01*
Y499750D01*
D02*
G37*
%LPC*%
G36*
X770020Y445270D02*
X764385D01*
Y435635D01*
X770020D01*
Y445270D01*
D02*
G37*
G36*
X763115D02*
X757480D01*
Y435635D01*
X763115D01*
Y445270D01*
D02*
G37*
G36*
X800585Y440477D02*
Y432135D01*
X804304D01*
Y436250D01*
X803972Y437916D01*
X803028Y439328D01*
X801616Y440272D01*
X800585Y440477D01*
D02*
G37*
G36*
X799315D02*
X798284Y440272D01*
X796871Y439328D01*
X795928Y437916D01*
X795596Y436250D01*
Y432135D01*
X799315D01*
Y440477D01*
D02*
G37*
G36*
X770020Y434365D02*
X764385D01*
Y424730D01*
X770020D01*
Y434365D01*
D02*
G37*
G36*
X763115D02*
X757480D01*
Y424730D01*
X763115D01*
Y434365D01*
D02*
G37*
G36*
X804304Y430865D02*
X800585D01*
Y422523D01*
X801616Y422728D01*
X803028Y423671D01*
X803972Y425084D01*
X804304Y426750D01*
Y430865D01*
D02*
G37*
G36*
X799315D02*
X795596D01*
Y426750D01*
X795928Y425084D01*
X796871Y423671D01*
X798284Y422728D01*
X799315Y422523D01*
Y430865D01*
D02*
G37*
G36*
X769770Y416770D02*
X764135D01*
Y407135D01*
X769770D01*
Y416770D01*
D02*
G37*
G36*
X762865D02*
X757230D01*
Y407135D01*
X762865D01*
Y416770D01*
D02*
G37*
G36*
X769770Y405865D02*
X764135D01*
Y396230D01*
X769770D01*
Y405865D01*
D02*
G37*
G36*
X762865D02*
X757230D01*
Y396230D01*
X762865D01*
Y405865D01*
D02*
G37*
G36*
X756835Y342958D02*
Y331335D01*
X764541D01*
Y334700D01*
X764257Y336859D01*
X763424Y338871D01*
X762098Y340598D01*
X760371Y341924D01*
X758359Y342757D01*
X756835Y342958D01*
D02*
G37*
G36*
X755565D02*
X754041Y342757D01*
X752029Y341924D01*
X750302Y340598D01*
X748976Y338871D01*
X748143Y336859D01*
X747859Y334700D01*
Y331335D01*
X755565D01*
Y342958D01*
D02*
G37*
G36*
X770000Y470588D02*
X687000D01*
X685244Y470239D01*
X683756Y469244D01*
X645511Y431000D01*
X644078D01*
X642298Y430523D01*
X640702Y429601D01*
X639399Y428298D01*
X638477Y426702D01*
X638000Y424922D01*
Y423078D01*
X638477Y421298D01*
X639399Y419702D01*
X640702Y418399D01*
X642298Y417477D01*
X644078Y417000D01*
X645922D01*
X647702Y417477D01*
X649298Y418399D01*
X650601Y419702D01*
X651523Y421298D01*
X652000Y423078D01*
Y424511D01*
X688901Y461412D01*
X768100D01*
X778412Y451100D01*
Y392249D01*
X778761Y390493D01*
X779756Y389005D01*
X784005Y384756D01*
X785493Y383761D01*
X787249Y383412D01*
X826099D01*
X852229Y357282D01*
Y320083D01*
X843380Y311235D01*
X842178Y311643D01*
X842143Y311910D01*
X841135Y314343D01*
X839532Y316432D01*
X838316Y317365D01*
Y318635D01*
X839532Y319568D01*
X841135Y321657D01*
X842143Y324090D01*
X842486Y326700D01*
Y334700D01*
X842143Y337310D01*
X841135Y339743D01*
X839532Y341832D01*
X837443Y343435D01*
X835011Y344443D01*
X832400Y344786D01*
X829790Y344443D01*
X827357Y343435D01*
X825268Y341832D01*
X823665Y339743D01*
X822657Y337310D01*
X822314Y334700D01*
Y326700D01*
X822657Y324090D01*
X823665Y321657D01*
X825268Y319568D01*
X826484Y318635D01*
Y317365D01*
X825268Y316432D01*
X823665Y314343D01*
X822657Y311910D01*
X822314Y309300D01*
Y301300D01*
X822657Y298689D01*
X823665Y296257D01*
X825268Y294168D01*
X827357Y292565D01*
X829790Y291557D01*
X832400Y291214D01*
X835011Y291557D01*
X837443Y292565D01*
X839532Y294168D01*
X841135Y296257D01*
X842143Y298689D01*
X842409Y300712D01*
X843934D01*
X845690Y301061D01*
X847178Y302056D01*
X860061Y314939D01*
X861056Y316427D01*
X861405Y318183D01*
Y359183D01*
X861056Y360939D01*
X860061Y362427D01*
X831244Y391244D01*
X829756Y392239D01*
X828000Y392588D01*
X789149D01*
X787588Y394150D01*
Y453000D01*
X787239Y454756D01*
X786244Y456244D01*
X773244Y469244D01*
X771756Y470239D01*
X770000Y470588D01*
D02*
G37*
G36*
X764541Y330065D02*
X747859D01*
Y326700D01*
X748143Y324541D01*
X748976Y322529D01*
X750302Y320802D01*
X752029Y319476D01*
X754041Y318643D01*
X754059Y318640D01*
Y317360D01*
X754041Y317357D01*
X752029Y316524D01*
X750302Y315198D01*
X748976Y313471D01*
X748143Y311459D01*
X747859Y309300D01*
Y305935D01*
X764541D01*
Y309300D01*
X764257Y311459D01*
X763424Y313471D01*
X762098Y315198D01*
X760371Y316524D01*
X758359Y317357D01*
X758341Y317360D01*
Y318640D01*
X758359Y318643D01*
X760371Y319476D01*
X762098Y320802D01*
X763424Y322529D01*
X764257Y324541D01*
X764541Y326700D01*
Y330065D01*
D02*
G37*
G36*
Y304665D02*
X756835D01*
Y293042D01*
X758359Y293243D01*
X760371Y294076D01*
X762098Y295402D01*
X763424Y297129D01*
X764257Y299141D01*
X764541Y301300D01*
Y304665D01*
D02*
G37*
G36*
X755565D02*
X747859D01*
Y301300D01*
X748143Y299141D01*
X748976Y297129D01*
X750302Y295402D01*
X752029Y294076D01*
X754041Y293243D01*
X755565Y293042D01*
Y304665D01*
D02*
G37*
G36*
X629200Y344786D02*
X626590Y344443D01*
X624157Y343435D01*
X622068Y341832D01*
X620465Y339743D01*
X619457Y337310D01*
X619114Y334700D01*
Y326700D01*
X619457Y324090D01*
X620465Y321657D01*
X622068Y319568D01*
X623284Y318635D01*
Y317365D01*
X622068Y316432D01*
X620465Y314343D01*
X619457Y311910D01*
X619114Y309300D01*
Y301300D01*
X619457Y298689D01*
X620465Y296257D01*
X622068Y294168D01*
X624157Y292565D01*
X626590Y291557D01*
X629200Y291214D01*
X631810Y291557D01*
X634243Y292565D01*
X636332Y294168D01*
X637935Y296257D01*
X638943Y298689D01*
X639286Y301300D01*
Y309300D01*
X638943Y311910D01*
X637935Y314343D01*
X636332Y316432D01*
X635116Y317365D01*
Y318635D01*
X636332Y319568D01*
X637935Y321657D01*
X638943Y324090D01*
X639286Y326700D01*
Y334700D01*
X638943Y337310D01*
X637935Y339743D01*
X636332Y341832D01*
X634243Y343435D01*
X631810Y344443D01*
X629200Y344786D01*
D02*
G37*
G36*
X730800D02*
X728189Y344443D01*
X725757Y343435D01*
X723668Y341832D01*
X722065Y339743D01*
X721057Y337310D01*
X720714Y334700D01*
Y326700D01*
X721057Y324090D01*
X722065Y321657D01*
X723668Y319568D01*
X724884Y318635D01*
Y317365D01*
X723668Y316432D01*
X722065Y314343D01*
X721057Y311910D01*
X720714Y309300D01*
Y301300D01*
X721057Y298689D01*
X722065Y296257D01*
X723668Y294168D01*
X725757Y292565D01*
X726812Y292128D01*
Y275711D01*
X726399Y275298D01*
X725477Y273702D01*
X725000Y271922D01*
Y270079D01*
X725477Y268298D01*
X726399Y266702D01*
X727702Y265399D01*
X729298Y264477D01*
X731078Y264000D01*
X732922D01*
X734702Y264477D01*
X736298Y265399D01*
X737601Y266702D01*
X738523Y268298D01*
X739000Y270079D01*
Y271922D01*
X738523Y273702D01*
X737601Y275298D01*
X736298Y276601D01*
X735988Y276780D01*
Y292676D01*
X737932Y294168D01*
X739535Y296257D01*
X740543Y298689D01*
X740886Y301300D01*
Y309300D01*
X740543Y311910D01*
X739535Y314343D01*
X737932Y316432D01*
X736716Y317365D01*
Y318635D01*
X737932Y319568D01*
X739535Y321657D01*
X740543Y324090D01*
X740886Y326700D01*
Y334700D01*
X740543Y337310D01*
X739535Y339743D01*
X737932Y341832D01*
X735843Y343435D01*
X733410Y344443D01*
X730800Y344786D01*
D02*
G37*
%LPD*%
D10*
X465559Y610741D02*
X465750Y610550D01*
X454000Y613757D02*
Y626000D01*
X457016Y610741D02*
X465559D01*
X454000Y613757D02*
X457016Y610741D01*
X953000Y455000D02*
X973000D01*
Y362190D02*
Y455000D01*
Y543810D01*
X953000Y355000D02*
X965810D01*
X973000Y362190D01*
X965810Y551000D02*
X973000Y543810D01*
X953000Y551000D02*
X965810D01*
X495500Y309750D02*
Y328250D01*
Y309750D02*
X496850Y308400D01*
X418000Y513000D02*
X446750D01*
X398529D02*
X418000D01*
X395600Y515929D02*
Y551250D01*
Y515929D02*
X398529Y513000D01*
X335000Y549000D02*
X357000D01*
X335000Y549000D02*
X335000Y549000D01*
X305000Y549000D02*
Y606000D01*
X421000Y551250D02*
Y620000D01*
X305000Y606000D02*
X319000Y620000D01*
X421000D01*
X812650Y431500D02*
Y461650D01*
Y421350D02*
Y431500D01*
X493000Y670000D02*
X508000D01*
X478500D02*
X493000D01*
X476500Y463500D02*
Y483000D01*
X476000Y463000D02*
X476500Y463500D01*
X476000Y463000D02*
X491000Y448000D01*
X601000D01*
X476500Y483000D02*
Y549000D01*
X601000Y448000D02*
X622000Y469000D01*
X812650Y421350D02*
X873000Y361000D01*
Y299000D02*
Y361000D01*
X807000Y284000D02*
X814000Y277000D01*
X851000D02*
X873000Y299000D01*
X814000Y277000D02*
X851000D01*
X807000Y284000D02*
Y305300D01*
X812650Y461650D02*
X825350Y474350D01*
Y504500D01*
X838050D01*
X865000Y483500D02*
Y501571D01*
X838050Y504500D02*
X862071D01*
X865000Y501571D01*
X813000Y573000D02*
X838050Y547950D01*
Y504500D02*
Y547950D01*
X610000Y573000D02*
X813000D01*
X622000Y469000D02*
X649000D01*
X366929Y581000D02*
X389250D01*
X364000Y571000D02*
Y578071D01*
X366929Y581000D01*
X364000Y571000D02*
X374000Y561000D01*
Y522000D02*
Y561000D01*
X418000Y482000D02*
X418250Y482250D01*
X447000D02*
X475750D01*
X418250D02*
X447000D01*
X474500Y551000D02*
X476500Y553000D01*
X465750Y597850D02*
Y610550D01*
Y585150D02*
Y597850D01*
Y572450D02*
Y585150D01*
Y563750D02*
Y572450D01*
Y563750D02*
X476500Y553000D01*
X763750Y435000D02*
Y454512D01*
X763625Y434875D02*
X763750Y435000D01*
X760262Y458000D02*
X763750Y454512D01*
X713000Y377900D02*
Y453000D01*
X718000Y458000D02*
X760262D01*
X713000Y453000D02*
X718000Y458000D01*
X756200Y330700D02*
Y334700D01*
X713000Y377900D02*
X756200Y334700D01*
X764089Y392118D02*
Y405911D01*
X785207Y371000D02*
X821000D01*
X763500Y406500D02*
X764089Y405911D01*
Y392118D02*
X785207Y371000D01*
X799975Y404025D02*
Y431475D01*
Y404025D02*
X800000Y404000D01*
X799950Y431500D02*
X799975Y431475D01*
X865000Y452500D02*
X865000Y452500D01*
Y426000D02*
Y452500D01*
X763500Y406500D02*
X763625Y406625D01*
Y434875D01*
X324929Y444000D02*
X338000D01*
X322000Y427500D02*
Y441071D01*
X324929Y444000D01*
X322000Y403929D02*
Y427500D01*
X266000Y403929D02*
X268929Y401000D01*
X319071D01*
X266000Y403929D02*
Y442000D01*
X319071Y401000D02*
X322000Y403929D01*
X372000Y524000D02*
X374000Y522000D01*
X310000Y524000D02*
X372000D01*
X374000Y522000D02*
X413000Y483000D01*
X291000Y427500D02*
Y505000D01*
X310000Y524000D01*
X955000Y383000D02*
Y406000D01*
Y580000D02*
Y603000D01*
X954985Y483015D02*
Y497985D01*
X961000Y504000D01*
X954985Y483015D02*
X955000Y483000D01*
X485000Y403750D02*
Y429000D01*
X520525Y572725D02*
X537725D01*
X520250Y572450D02*
X520525Y572725D01*
X537725D02*
X538000Y573000D01*
X507500Y549000D02*
X516310D01*
X542000Y365250D02*
Y392000D01*
X520250Y571602D02*
Y572450D01*
X516310Y549000D02*
X521000Y553690D01*
Y570852D01*
X523000Y428000D02*
X544000D01*
X520250Y571602D02*
X521000Y570852D01*
X465750Y585150D02*
X520250D01*
X486000Y351250D02*
Y372750D01*
X542500Y309550D02*
Y334750D01*
D13*
X747000Y394700D02*
X807000Y334700D01*
X747000Y394700D02*
Y429560D01*
X741560Y435000D02*
X747000Y429560D01*
X485000Y403750D02*
X485750Y403000D01*
X542000Y365250D02*
X542500Y364750D01*
X865000Y483500D02*
X865000Y483500D01*
X807000Y330700D02*
Y334700D01*
X732500Y383800D02*
X781600Y334700D01*
X732500Y383800D02*
Y406500D01*
X781600Y330700D02*
Y334700D01*
X523000Y468000D02*
X544000D01*
X523000Y508000D02*
X544000D01*
X732750Y435000D02*
X741560D01*
X446750Y513000D02*
X447000Y513250D01*
X485750Y373000D02*
X486000Y372750D01*
X541450Y308500D02*
X542500Y309550D01*
D14*
X339000Y504000D02*
X347000Y512000D01*
X355000D01*
X339000Y490000D02*
Y504000D01*
X355000Y512000D02*
X449000Y418000D01*
X339000Y490000D02*
X343000Y486000D01*
X352000D01*
X922000Y354000D02*
X924000Y356000D01*
Y383000D01*
X922000Y303000D02*
Y354000D01*
X867000Y248000D02*
X922000Y303000D01*
X923000Y455000D02*
X924000Y456000D01*
Y483000D01*
Y580000D02*
Y627000D01*
Y552000D02*
Y580000D01*
X923000Y551000D02*
X924000Y552000D01*
X575000Y261000D02*
X584000Y270000D01*
Y408000D02*
X623000Y447000D01*
X584000Y270000D02*
Y408000D01*
X506000Y261000D02*
X575000D01*
X618000Y254000D02*
X654600Y290600D01*
X494000Y254000D02*
X618000D01*
X435550Y312450D02*
X494000Y254000D01*
X449000Y318000D02*
X506000Y261000D01*
X573000Y272000D02*
Y427000D01*
X574000Y428000D01*
X731400Y271600D02*
Y304700D01*
X730800Y305300D02*
X731400Y304700D01*
Y271600D02*
X732000Y271000D01*
X449000Y318000D02*
Y418000D01*
X435550Y312450D02*
Y416450D01*
X470800Y248000D02*
X681000D01*
X455993Y262807D02*
X470800Y248000D01*
X500150Y597850D02*
X520250D01*
X478500Y619500D02*
Y640000D01*
Y619500D02*
X500150Y597850D01*
X520250D02*
X531310D01*
X884000Y298000D02*
Y375000D01*
X838050Y420950D02*
X884000Y375000D01*
X852000Y266000D02*
X884000Y298000D01*
X833000Y469000D02*
X881512D01*
X825350Y461350D02*
X833000Y469000D01*
X825350Y431500D02*
Y461350D01*
X883000Y470488D02*
Y646000D01*
X881512Y469000D02*
X883000Y470488D01*
X875000Y654000D02*
X883000Y646000D01*
X687000Y466000D02*
X770000D01*
X783000Y453000D01*
X645000Y424000D02*
X687000Y466000D01*
X856817Y318183D02*
Y359183D01*
X828000Y388000D02*
X856817Y359183D01*
X787249Y388000D02*
X828000D01*
X783000Y392249D02*
X787249Y388000D01*
X783000Y392249D02*
Y453000D01*
X765523Y690000D02*
X778522Y677000D01*
X780000D01*
X455000Y690000D02*
X765523D01*
X437000Y609000D02*
Y672000D01*
Y609000D02*
X438000Y608000D01*
X795971Y550029D02*
X812650Y533350D01*
Y504500D02*
Y533350D01*
X594971Y550029D02*
X795971D01*
X584000Y561000D02*
Y630000D01*
Y561000D02*
X594971Y550029D01*
X569000Y547000D02*
X599000Y517000D01*
Y469488D02*
Y517000D01*
X569000Y547000D02*
Y644000D01*
X578000Y653000D02*
X651362D01*
X569000Y644000D02*
X578000Y653000D01*
X678250Y630700D02*
Y655750D01*
X559000Y523200D02*
X574000Y508200D01*
X559000Y523200D02*
Y656000D01*
X574000Y508000D02*
Y508200D01*
X566000Y663000D02*
X671000D01*
X559000Y656000D02*
X566000Y663000D01*
X671000D02*
X678250Y655750D01*
X531310Y597850D02*
X536730Y603270D01*
X703650Y630700D02*
Y660350D01*
X536730Y603270D02*
Y646730D01*
X561000Y671000D02*
X693000D01*
X536730Y646730D02*
X561000Y671000D01*
X693000D02*
X703650Y660350D01*
X508000Y640000D02*
X527512D01*
X529000Y641488D01*
Y668000D01*
X540000Y679000D02*
X720000D01*
X529000Y668000D02*
X540000Y679000D01*
X720000D02*
X729050Y669950D01*
Y630700D02*
Y669950D01*
X507488Y610550D02*
X520250D01*
X506000Y612038D02*
Y638000D01*
X508000Y640000D01*
X506000Y612038D02*
X507488Y610550D01*
X681000Y248000D02*
X867000D01*
X680000Y249000D02*
Y305300D01*
Y249000D02*
X681000Y248000D01*
X781600Y290490D02*
X806090Y266000D01*
X852000D01*
X705400Y279351D02*
X726751Y258000D01*
X856000D01*
X899000Y301000D01*
X843934Y305300D02*
X856817Y318183D01*
X899000Y477000D02*
X905000Y483000D01*
X899000Y301000D02*
Y477000D01*
X905000Y483000D02*
X923000D01*
X806738Y654000D02*
X875000D01*
X805250Y630700D02*
Y652512D01*
X806738Y654000D01*
X764000Y664000D02*
X887000D01*
X754450Y630700D02*
Y654450D01*
X764000Y664000D01*
X887000D02*
X924000Y627000D01*
X832400Y305300D02*
X843934D01*
X838050Y420950D02*
Y431500D01*
X457000Y440460D02*
X496540D01*
X706500Y504500D02*
X799950D01*
X591502Y389502D02*
X706500Y504500D01*
X591502Y306788D02*
Y389502D01*
X449800Y268101D02*
Y269000D01*
Y268101D02*
X455094Y262807D01*
X455993D01*
X505000Y351250D02*
Y432000D01*
X496540Y440460D02*
X505000Y432000D01*
X597512Y468000D02*
X599000Y469488D01*
X574000Y468000D02*
X597512D01*
X585488Y631488D02*
X601262D01*
X584000Y630000D02*
X585488Y631488D01*
X651362Y653000D02*
X652850Y651512D01*
Y630700D02*
Y651512D01*
X437000Y672000D02*
X455000Y690000D01*
X705400Y279351D02*
Y305300D01*
X781600Y290490D02*
Y305300D01*
X591502Y306788D02*
X592990Y305300D01*
X603800D01*
X352000Y500000D02*
X435550Y416450D01*
X654600Y290600D02*
Y305300D01*
X601262Y631488D02*
X602050Y630700D01*
D19*
X322000Y427500D02*
D03*
X291000D02*
D03*
X476500Y549000D02*
D03*
X507500D02*
D03*
X732750Y435000D02*
D03*
X763750D02*
D03*
X732500Y406500D02*
D03*
X763500D02*
D03*
X924000Y383000D02*
D03*
X955000D02*
D03*
X924000Y483000D02*
D03*
X955000D02*
D03*
X924000Y580000D02*
D03*
X955000D02*
D03*
X389250Y581000D02*
D03*
X420250D02*
D03*
D21*
X923000Y355000D02*
D03*
X953000D02*
D03*
X923000Y455000D02*
D03*
X953000D02*
D03*
X923000Y551000D02*
D03*
X953000D02*
D03*
X544000Y508000D02*
D03*
X574000D02*
D03*
Y468000D02*
D03*
X544000D02*
D03*
X574000Y428000D02*
D03*
X544000D02*
D03*
X335000Y549000D02*
D03*
X305000D02*
D03*
D24*
X395600Y551250D02*
D03*
X421000D02*
D03*
D53*
X496850Y308400D02*
D03*
D54*
X541450Y308500D02*
D03*
D55*
X973000Y455000D02*
D03*
X573000Y272000D02*
D03*
X732000Y271000D02*
D03*
X476000Y463000D02*
D03*
X364000Y571000D02*
D03*
X352000Y486000D02*
D03*
X493000Y670000D02*
D03*
X821000Y371000D02*
D03*
X780000Y677000D02*
D03*
X438000Y608000D02*
D03*
X454000Y626000D02*
D03*
X357000Y549000D02*
D03*
X955000Y406000D02*
D03*
Y603000D02*
D03*
X961000Y504000D02*
D03*
X457000Y440460D02*
D03*
X623000Y447000D02*
D03*
X485000Y429000D02*
D03*
X538000Y573000D02*
D03*
X865000Y426000D02*
D03*
X800000Y404000D02*
D03*
X542000Y392000D02*
D03*
X610000Y573000D02*
D03*
X649000Y469000D02*
D03*
X266000Y442000D02*
D03*
X338000Y444000D02*
D03*
X645000Y424000D02*
D03*
X352000Y500000D02*
D03*
X523000Y428000D02*
D03*
Y468000D02*
D03*
Y508000D02*
D03*
D56*
X478500Y670000D02*
D03*
Y640000D02*
D03*
X542500Y334750D02*
D03*
Y364750D02*
D03*
X485750Y373000D02*
D03*
Y403000D02*
D03*
X508000Y670000D02*
D03*
Y640000D02*
D03*
D57*
X520250Y610550D02*
D03*
Y597850D02*
D03*
Y585150D02*
D03*
Y572450D02*
D03*
X465750Y610550D02*
D03*
Y597850D02*
D03*
Y585150D02*
D03*
Y572450D02*
D03*
D58*
X495500Y328250D02*
D03*
X505000Y351250D02*
D03*
X486000D02*
D03*
D59*
X447000Y482250D02*
D03*
Y513250D02*
D03*
X418000Y482000D02*
D03*
Y513000D02*
D03*
X865000Y452500D02*
D03*
Y483500D02*
D03*
D60*
X838050Y431500D02*
D03*
X825350D02*
D03*
X812650D02*
D03*
X799950D02*
D03*
X838050Y504500D02*
D03*
X825350D02*
D03*
X812650D02*
D03*
X799950D02*
D03*
D61*
X348200Y269000D02*
D03*
X373600D02*
D03*
X399000D02*
D03*
X424400D02*
D03*
X449800D02*
D03*
X832400Y330700D02*
D03*
X807000D02*
D03*
X781600D02*
D03*
X756200D02*
D03*
X730800D02*
D03*
X705400D02*
D03*
X680000D02*
D03*
X654600D02*
D03*
X629200D02*
D03*
X603800D02*
D03*
X832400Y305300D02*
D03*
X807000D02*
D03*
X781600D02*
D03*
X756200D02*
D03*
X730800D02*
D03*
X705400D02*
D03*
X680000D02*
D03*
X654600D02*
D03*
X629200D02*
D03*
X603800D02*
D03*
X602050Y605300D02*
D03*
X627450D02*
D03*
X652850D02*
D03*
X678250D02*
D03*
X703650D02*
D03*
X729050D02*
D03*
X754450D02*
D03*
X779850D02*
D03*
X805250D02*
D03*
X830650D02*
D03*
X602050Y630700D02*
D03*
X627450D02*
D03*
X652850D02*
D03*
X678250D02*
D03*
X703650D02*
D03*
X729050D02*
D03*
X754450D02*
D03*
X779850D02*
D03*
X805250D02*
D03*
X830650D02*
D03*
M02*
