G04*
G04 #@! TF.GenerationSoftware,Altium Limited,Altium Designer,23.1.1 (15)*
G04*
G04 Layer_Color=16711935*
%FSLAX44Y44*%
%MOMM*%
G71*
G04*
G04 #@! TF.SameCoordinates,9F4D0ECE-2CF4-41AA-81F9-B76AE3B11C26*
G04*
G04*
G04 #@! TF.FilePolarity,Negative*
G04*
G01*
G75*
%ADD32R,1.1500X1.9500*%
%ADD34R,1.9500X1.9900*%
%ADD47C,2.1500*%
%ADD48R,2.1500X2.1500*%
%ADD50O,1.7500X2.3500*%
%ADD62R,1.9900X1.9500*%
%ADD63O,1.6000X0.7500*%
%ADD64R,0.8000X1.1000*%
%ADD65R,1.9500X1.1500*%
%ADD66O,0.7500X1.7000*%
%ADD67O,1.6000X2.4000*%
%ADD68O,1.5500X2.3500*%
D32*
X322000Y427500D02*
D03*
X291000D02*
D03*
X476500Y549000D02*
D03*
X507500D02*
D03*
X732750Y435000D02*
D03*
X763750D02*
D03*
X732500Y406500D02*
D03*
X763500D02*
D03*
X924000Y383000D02*
D03*
X955000D02*
D03*
X924000Y483000D02*
D03*
X955000D02*
D03*
X924000Y580000D02*
D03*
X955000D02*
D03*
X389250Y581000D02*
D03*
X420250D02*
D03*
D34*
X923000Y355000D02*
D03*
X953000D02*
D03*
X923000Y455000D02*
D03*
X953000D02*
D03*
X923000Y551000D02*
D03*
X953000D02*
D03*
X544000Y508000D02*
D03*
X574000D02*
D03*
Y468000D02*
D03*
X544000D02*
D03*
X574000Y428000D02*
D03*
X544000D02*
D03*
X335000Y549000D02*
D03*
X305000D02*
D03*
D47*
X496850Y308400D02*
D03*
D48*
X541450Y308500D02*
D03*
D50*
X395600Y551250D02*
D03*
X421000D02*
D03*
D62*
X478500Y670000D02*
D03*
Y640000D02*
D03*
X542500Y334750D02*
D03*
Y364750D02*
D03*
X485750Y373000D02*
D03*
Y403000D02*
D03*
X508000Y670000D02*
D03*
Y640000D02*
D03*
D63*
X520250Y610550D02*
D03*
Y597850D02*
D03*
Y585150D02*
D03*
Y572450D02*
D03*
X465750Y610550D02*
D03*
Y597850D02*
D03*
Y585150D02*
D03*
Y572450D02*
D03*
D64*
X495500Y328250D02*
D03*
X505000Y351250D02*
D03*
X486000D02*
D03*
D65*
X447000Y482250D02*
D03*
Y513250D02*
D03*
X418000Y482000D02*
D03*
Y513000D02*
D03*
X865000Y452500D02*
D03*
Y483500D02*
D03*
D66*
X838050Y431500D02*
D03*
X825350D02*
D03*
X812650D02*
D03*
X799950D02*
D03*
X838050Y504500D02*
D03*
X825350D02*
D03*
X812650D02*
D03*
X799950D02*
D03*
D67*
X348200Y269000D02*
D03*
X373600D02*
D03*
X399000D02*
D03*
X424400D02*
D03*
X449800D02*
D03*
D68*
X832400Y330700D02*
D03*
X807000D02*
D03*
X781600D02*
D03*
X756200D02*
D03*
X730800D02*
D03*
X705400D02*
D03*
X680000D02*
D03*
X654600D02*
D03*
X629200D02*
D03*
X603800D02*
D03*
X832400Y305300D02*
D03*
X807000D02*
D03*
X781600D02*
D03*
X756200D02*
D03*
X730800D02*
D03*
X705400D02*
D03*
X680000D02*
D03*
X654600D02*
D03*
X629200D02*
D03*
X603800D02*
D03*
X602050Y605300D02*
D03*
X627450D02*
D03*
X652850D02*
D03*
X678250D02*
D03*
X703650D02*
D03*
X729050D02*
D03*
X754450D02*
D03*
X779850D02*
D03*
X805250D02*
D03*
X830650D02*
D03*
X602050Y630700D02*
D03*
X627450D02*
D03*
X652850D02*
D03*
X678250D02*
D03*
X703650D02*
D03*
X729050D02*
D03*
X754450D02*
D03*
X779850D02*
D03*
X805250D02*
D03*
X830650D02*
D03*
M02*
