G04*
G04 #@! TF.GenerationSoftware,Altium Limited,Altium Designer,23.1.1 (15)*
G04*
G04 Layer_Color=128*
%FSLAX44Y44*%
%MOMM*%
G71*
G04*
G04 #@! TF.SameCoordinates,9F4D0ECE-2CF4-41AA-81F9-B76AE3B11C26*
G04*
G04*
G04 #@! TF.FilePolarity,Positive*
G04*
G01*
G75*
%ADD19R,1.0000X1.8000*%
%ADD21R,1.8000X1.8400*%
%ADD56R,1.8400X1.8000*%
%ADD57O,1.4500X0.6000*%
%ADD58R,0.6500X0.9500*%
%ADD59R,1.8000X1.0000*%
%ADD60O,0.6000X1.5500*%
D19*
X322000Y427500D02*
D03*
X291000D02*
D03*
X476500Y549000D02*
D03*
X507500D02*
D03*
X732750Y435000D02*
D03*
X763750D02*
D03*
X732500Y406500D02*
D03*
X763500D02*
D03*
X924000Y383000D02*
D03*
X955000D02*
D03*
X924000Y483000D02*
D03*
X955000D02*
D03*
X924000Y580000D02*
D03*
X955000D02*
D03*
X389250Y581000D02*
D03*
X420250D02*
D03*
D21*
X923000Y355000D02*
D03*
X953000D02*
D03*
X923000Y455000D02*
D03*
X953000D02*
D03*
X923000Y551000D02*
D03*
X953000D02*
D03*
X544000Y508000D02*
D03*
X574000D02*
D03*
Y468000D02*
D03*
X544000D02*
D03*
X574000Y428000D02*
D03*
X544000D02*
D03*
X335000Y549000D02*
D03*
X305000D02*
D03*
D56*
X478500Y670000D02*
D03*
Y640000D02*
D03*
X542500Y334750D02*
D03*
Y364750D02*
D03*
X485750Y373000D02*
D03*
Y403000D02*
D03*
X508000Y670000D02*
D03*
Y640000D02*
D03*
D57*
X520250Y610550D02*
D03*
Y597850D02*
D03*
Y585150D02*
D03*
Y572450D02*
D03*
X465750Y610550D02*
D03*
Y597850D02*
D03*
Y585150D02*
D03*
Y572450D02*
D03*
D58*
X495500Y328250D02*
D03*
X505000Y351250D02*
D03*
X486000D02*
D03*
D59*
X447000Y482250D02*
D03*
Y513250D02*
D03*
X418000Y482000D02*
D03*
Y513000D02*
D03*
X865000Y452500D02*
D03*
Y483500D02*
D03*
D60*
X838050Y431500D02*
D03*
X825350D02*
D03*
X812650D02*
D03*
X799950D02*
D03*
X838050Y504500D02*
D03*
X825350D02*
D03*
X812650D02*
D03*
X799950D02*
D03*
M02*
