G04*
G04 #@! TF.GenerationSoftware,Altium Limited,Altium Designer,23.1.1 (15)*
G04*
G04 Layer_Color=8388736*
%FSLAX44Y44*%
%MOMM*%
G71*
G04*
G04 #@! TF.SameCoordinates,9F4D0ECE-2CF4-41AA-81F9-B76AE3B11C26*
G04*
G04*
G04 #@! TF.FilePolarity,Negative*
G04*
G01*
G75*
%ADD32R,1.1500X1.9500*%
G04:AMPARAMS|DCode=33|XSize=1.35mm|YSize=1.75mm|CornerRadius=0.375mm|HoleSize=0mm|Usage=FLASHONLY|Rotation=270.000|XOffset=0mm|YOffset=0mm|HoleType=Round|Shape=RoundedRectangle|*
%AMROUNDEDRECTD33*
21,1,1.3500,1.0000,0,0,270.0*
21,1,0.6000,1.7500,0,0,270.0*
1,1,0.7500,-0.5000,-0.3000*
1,1,0.7500,-0.5000,0.3000*
1,1,0.7500,0.5000,0.3000*
1,1,0.7500,0.5000,-0.3000*
%
%ADD33ROUNDEDRECTD33*%
%ADD34R,1.9500X1.9900*%
%ADD35R,1.7500X1.3500*%
%ADD36R,2.1500X3.4500*%
%ADD37O,1.8000X2.4000*%
%ADD38O,5.1500X1.6500*%
%ADD39R,2.0500X1.5500*%
%ADD40R,2.5000X2.0000*%
%ADD41R,1.6500X0.7000*%
G04:AMPARAMS|DCode=42|XSize=0.95mm|YSize=0.95mm|CornerRadius=0.275mm|HoleSize=0mm|Usage=FLASHONLY|Rotation=180.000|XOffset=0mm|YOffset=0mm|HoleType=Round|Shape=RoundedRectangle|*
%AMROUNDEDRECTD42*
21,1,0.9500,0.4000,0,0,180.0*
21,1,0.4000,0.9500,0,0,180.0*
1,1,0.5500,-0.2000,0.2000*
1,1,0.5500,0.2000,0.2000*
1,1,0.5500,0.2000,-0.2000*
1,1,0.5500,-0.2000,-0.2000*
%
%ADD42ROUNDEDRECTD42*%
%ADD43R,0.9500X0.9500*%
G04:AMPARAMS|DCode=44|XSize=1.46mm|YSize=0.77mm|CornerRadius=0.1525mm|HoleSize=0mm|Usage=FLASHONLY|Rotation=0.000|XOffset=0mm|YOffset=0mm|HoleType=Round|Shape=RoundedRectangle|*
%AMROUNDEDRECTD44*
21,1,1.4600,0.4650,0,0,0.0*
21,1,1.1550,0.7700,0,0,0.0*
1,1,0.3050,0.5775,-0.2325*
1,1,0.3050,-0.5775,-0.2325*
1,1,0.3050,-0.5775,0.2325*
1,1,0.3050,0.5775,0.2325*
%
%ADD44ROUNDEDRECTD44*%
%ADD45O,0.5140X1.8920*%
%ADD46C,1.6000*%
%ADD47C,2.1500*%
%ADD48R,2.1500X2.1500*%
%ADD49C,1.5500*%
%ADD50O,1.7500X2.3500*%
D32*
X389500Y608000D02*
D03*
X420500D02*
D03*
X504500Y626000D02*
D03*
X473500D02*
D03*
X385500Y327750D02*
D03*
X416500D02*
D03*
X348500Y326750D02*
D03*
X317500D02*
D03*
D33*
X507000Y660000D02*
D03*
X473000Y648000D02*
D03*
Y672000D02*
D03*
D34*
X413000D02*
D03*
X443000D02*
D03*
D35*
X364000Y585000D02*
D03*
Y608000D02*
D03*
Y631000D02*
D03*
D36*
X301520Y608000D02*
D03*
D37*
X924000Y533000D02*
D03*
Y603000D02*
D03*
Y433000D02*
D03*
Y503000D02*
D03*
Y333000D02*
D03*
Y403000D02*
D03*
D38*
X415530Y369500D02*
D03*
X316470D02*
D03*
D39*
X287875Y425000D02*
D03*
Y511000D02*
D03*
D40*
Y458500D02*
D03*
Y477500D02*
D03*
D41*
X314625Y481000D02*
D03*
Y474500D02*
D03*
Y468000D02*
D03*
Y461500D02*
D03*
Y455000D02*
D03*
D42*
X313000Y549000D02*
D03*
X551002Y428000D02*
D03*
Y468000D02*
D03*
Y508000D02*
D03*
D43*
X329000Y549000D02*
D03*
X567002Y428000D02*
D03*
Y468000D02*
D03*
Y508000D02*
D03*
D44*
X377000Y499750D02*
D03*
X432000Y474350D02*
D03*
X377000Y512450D02*
D03*
Y487050D02*
D03*
Y474350D02*
D03*
X432000Y487050D02*
D03*
Y461650D02*
D03*
Y448950D02*
D03*
X377000D02*
D03*
X432000Y423550D02*
D03*
X377000Y461650D02*
D03*
Y436250D02*
D03*
X432000D02*
D03*
X377000Y423550D02*
D03*
X432000Y499750D02*
D03*
Y512450D02*
D03*
D45*
X746250Y496710D02*
D03*
X739750D02*
D03*
X733250D02*
D03*
X726750D02*
D03*
X720250D02*
D03*
X713750D02*
D03*
X707250D02*
D03*
X700750D02*
D03*
X694250D02*
D03*
X687750D02*
D03*
X746250Y439290D02*
D03*
X739750D02*
D03*
X733250D02*
D03*
X726750D02*
D03*
X720250D02*
D03*
X713750D02*
D03*
X707250D02*
D03*
X700750D02*
D03*
X694250D02*
D03*
X687750D02*
D03*
D46*
X348200Y269000D02*
D03*
X373600D02*
D03*
X399000D02*
D03*
X424400D02*
D03*
X449800D02*
D03*
D47*
X496850Y308400D02*
D03*
D48*
X541450Y308500D02*
D03*
D49*
X832400Y330700D02*
D03*
X807000D02*
D03*
X781600D02*
D03*
X756200D02*
D03*
X730800D02*
D03*
X705400D02*
D03*
X680000D02*
D03*
X654600D02*
D03*
X629200D02*
D03*
X603800D02*
D03*
X832400Y305300D02*
D03*
X807000D02*
D03*
X781600D02*
D03*
X756200D02*
D03*
X730800D02*
D03*
X705400D02*
D03*
X680000D02*
D03*
X654600D02*
D03*
X629200D02*
D03*
X603800D02*
D03*
X602050Y605300D02*
D03*
X627450D02*
D03*
X652850D02*
D03*
X678250D02*
D03*
X703650D02*
D03*
X729050D02*
D03*
X754450D02*
D03*
X779850D02*
D03*
X805250D02*
D03*
X830650D02*
D03*
X602050Y630700D02*
D03*
X627450D02*
D03*
X652850D02*
D03*
X678250D02*
D03*
X703650D02*
D03*
X729050D02*
D03*
X754450D02*
D03*
X779850D02*
D03*
X805250D02*
D03*
X830650D02*
D03*
D50*
X395600Y551250D02*
D03*
X421000D02*
D03*
M02*
