G04*
G04 #@! TF.GenerationSoftware,Altium Limited,Altium Designer,23.1.1 (15)*
G04*
G04 Layer_Color=32768*
%FSLAX44Y44*%
%MOMM*%
G71*
G04*
G04 #@! TF.SameCoordinates,9F4D0ECE-2CF4-41AA-81F9-B76AE3B11C26*
G04*
G04*
G04 #@! TF.FilePolarity,Positive*
G04*
G01*
G75*
%ADD10C,0.5000*%
%ADD13C,0.2540*%
D10*
X1043000Y644992D02*
Y620000D01*
Y632496D01*
X1059661D01*
Y644992D01*
Y620000D01*
X1067992Y644992D02*
Y620000D01*
Y628331D01*
X1084653Y644992D01*
X1072157Y632496D01*
X1084653Y620000D01*
X1092984Y640827D02*
X1097149Y644992D01*
X1105480D01*
X1109645Y640827D01*
Y636661D01*
X1105480Y632496D01*
X1101314D01*
X1105480D01*
X1109645Y628331D01*
Y624165D01*
X1105480Y620000D01*
X1097149D01*
X1092984Y624165D01*
X1134637Y620000D02*
X1117976D01*
X1134637Y636661D01*
Y640827D01*
X1130472Y644992D01*
X1122141D01*
X1117976Y640827D01*
X1159629Y644992D02*
X1142968D01*
Y632496D01*
X1151298D01*
X1142968D01*
Y620000D01*
X1167960Y640827D02*
X1172125Y644992D01*
X1180456D01*
X1184621Y640827D01*
Y624165D01*
X1180456Y620000D01*
X1172125D01*
X1167960Y624165D01*
Y640827D01*
X1192952D02*
X1197117Y644992D01*
X1205447D01*
X1209613Y640827D01*
Y636661D01*
X1205447Y632496D01*
X1201282D01*
X1205447D01*
X1209613Y628331D01*
Y624165D01*
X1205447Y620000D01*
X1197117D01*
X1192952Y624165D01*
X1217943Y640827D02*
X1222109Y644992D01*
X1230439D01*
X1234605Y640827D01*
Y624165D01*
X1230439Y620000D01*
X1222109D01*
X1217943Y624165D01*
Y640827D01*
X1242935Y620000D02*
Y644992D01*
X1251266Y636661D01*
X1259597Y644992D01*
Y620000D01*
X1284589Y644992D02*
X1267927D01*
Y632496D01*
X1276258D01*
X1267927D01*
Y620000D01*
X1305415D02*
Y644992D01*
X1292919Y632496D01*
X1309581D01*
X1317911Y620000D02*
Y644992D01*
X1330407D01*
X1334572Y640827D01*
Y632496D01*
X1330407Y628331D01*
X1317911D01*
X1359564Y644992D02*
X1351234Y640827D01*
X1342903Y632496D01*
Y624165D01*
X1347068Y620000D01*
X1355399D01*
X1359564Y624165D01*
Y628331D01*
X1355399Y632496D01*
X1342903D01*
X1367895Y615835D02*
X1384556D01*
X1392887Y644992D02*
Y620000D01*
Y632496D01*
X1409548D01*
Y644992D01*
Y620000D01*
X1430375D02*
X1422044D01*
X1417879Y624165D01*
Y632496D01*
X1422044Y636661D01*
X1430375D01*
X1434540Y632496D01*
Y628331D01*
X1417879D01*
X1447036Y636661D02*
X1455367D01*
X1459532Y632496D01*
Y620000D01*
X1447036D01*
X1442871Y624165D01*
X1447036Y628331D01*
X1459532D01*
X1484524Y644992D02*
Y620000D01*
X1472028D01*
X1467863Y624165D01*
Y632496D01*
X1472028Y636661D01*
X1484524D01*
X1505351Y620000D02*
X1497020D01*
X1492855Y624165D01*
Y632496D01*
X1497020Y636661D01*
X1505351D01*
X1509516Y632496D01*
Y628331D01*
X1492855D01*
X1517847Y636661D02*
Y620000D01*
Y628331D01*
X1522012Y632496D01*
X1526177Y636661D01*
X1530343D01*
X1542838Y615835D02*
X1559500D01*
X1567830Y644992D02*
Y620000D01*
X1580326D01*
X1584492Y624165D01*
Y628331D01*
X1580326Y632496D01*
X1567830D01*
X1580326D01*
X1584492Y636661D01*
Y640827D01*
X1580326Y644992D01*
X1567830D01*
X1596988Y620000D02*
X1605318D01*
X1609484Y624165D01*
Y632496D01*
X1605318Y636661D01*
X1596988D01*
X1592822Y632496D01*
Y624165D01*
X1596988Y620000D01*
X1621980Y636661D02*
X1630310D01*
X1634476Y632496D01*
Y620000D01*
X1621980D01*
X1617814Y624165D01*
X1621980Y628331D01*
X1634476D01*
X1642806Y636661D02*
Y620000D01*
Y628331D01*
X1646971Y632496D01*
X1651137Y636661D01*
X1655302D01*
X1684459Y644992D02*
Y620000D01*
X1671963D01*
X1667798Y624165D01*
Y632496D01*
X1671963Y636661D01*
X1684459D01*
X1803000Y652990D02*
Y632997D01*
X1812997Y623000D01*
X1822993Y632997D01*
Y652990D01*
X1832990Y623000D02*
X1842987D01*
X1837989D01*
Y652990D01*
X1832990Y647992D01*
X1857982Y623000D02*
Y627998D01*
X1862981D01*
Y623000D01*
X1857982D01*
X1882974Y647992D02*
X1887973Y652990D01*
X1897969D01*
X1902968Y647992D01*
Y627998D01*
X1897969Y623000D01*
X1887973D01*
X1882974Y627998D01*
Y647992D01*
D13*
X1028000Y673000D02*
X1953000D01*
Y498000D02*
Y673000D01*
X1028000Y598000D02*
X1953000D01*
X1778000D02*
Y673000D01*
X1428000Y498000D02*
Y598000D01*
X1028000Y498000D02*
Y673000D01*
Y498000D02*
X1953000D01*
X1028000Y398750D02*
Y498750D01*
X1953000Y398750D02*
Y498750D01*
X1028000Y398000D02*
X1953000D01*
X1062617Y992000D02*
Y1007235D01*
X1055000Y999618D01*
X1065157D01*
X1070235Y992000D02*
Y994539D01*
X1072774D01*
Y992000D01*
X1070235D01*
X1108323Y1004696D02*
X1105784Y1007235D01*
X1100705D01*
X1098166Y1004696D01*
Y994539D01*
X1100705Y992000D01*
X1105784D01*
X1108323Y994539D01*
X1121019Y1007235D02*
X1115940D01*
X1113401Y1004696D01*
Y994539D01*
X1115940Y992000D01*
X1121019D01*
X1123558Y994539D01*
Y1004696D01*
X1121019Y1007235D01*
X1128636Y992000D02*
Y1007235D01*
X1133715Y1002157D01*
X1138793Y1007235D01*
Y992000D01*
X1143871D02*
Y1007235D01*
X1151489D01*
X1154028Y1004696D01*
Y999618D01*
X1151489Y997078D01*
X1143871D01*
X1166724Y1007235D02*
X1161646D01*
X1159106Y1004696D01*
Y994539D01*
X1161646Y992000D01*
X1166724D01*
X1169263Y994539D01*
Y1004696D01*
X1166724Y1007235D01*
X1174341Y992000D02*
Y1007235D01*
X1184498Y992000D01*
Y1007235D01*
X1199733D02*
X1189576D01*
Y992000D01*
X1199733D01*
X1189576Y999618D02*
X1194655D01*
X1204811Y992000D02*
Y1007235D01*
X1214968Y992000D01*
Y1007235D01*
X1220047D02*
X1230203D01*
X1225125D01*
Y992000D01*
X1250517Y1007235D02*
X1255595D01*
X1253056D01*
Y992000D01*
X1250517D01*
X1255595D01*
X1263213Y1007235D02*
Y992000D01*
X1270830D01*
X1273369Y994539D01*
Y1004696D01*
X1270830Y1007235D01*
X1263213D01*
X1288604D02*
X1278448D01*
Y992000D01*
X1288604D01*
X1278448Y999618D02*
X1283526D01*
X1293683Y992000D02*
Y1007235D01*
X1303840Y992000D01*
Y1007235D01*
X1308918D02*
X1319075D01*
X1313996D01*
Y992000D01*
X1324153Y1002157D02*
X1326692D01*
Y999618D01*
X1324153D01*
Y1002157D01*
Y994539D02*
X1326692D01*
Y992000D01*
X1324153D01*
Y994539D01*
X1362241Y1004696D02*
X1359701Y1007235D01*
X1354623D01*
X1352084Y1004696D01*
Y994539D01*
X1354623Y992000D01*
X1359701D01*
X1362241Y994539D01*
X1374937Y1007235D02*
X1369858D01*
X1367319Y1004696D01*
Y994539D01*
X1369858Y992000D01*
X1374937D01*
X1377476Y994539D01*
Y1004696D01*
X1374937Y1007235D01*
X1382554D02*
Y992000D01*
X1392711D01*
X1405407Y1007235D02*
X1400328D01*
X1397789Y1004696D01*
Y994539D01*
X1400328Y992000D01*
X1405407D01*
X1407946Y994539D01*
Y1004696D01*
X1405407Y1007235D01*
X1413024D02*
Y994539D01*
X1415563Y992000D01*
X1420642D01*
X1423181Y994539D01*
Y1007235D01*
X1428259Y992000D02*
Y1007235D01*
X1435877D01*
X1438416Y1004696D01*
Y999618D01*
X1435877Y997078D01*
X1428259D01*
X1433338D02*
X1438416Y992000D01*
X1458729Y1007235D02*
X1468886D01*
X1463808D01*
Y992000D01*
X1481582Y1007235D02*
X1476504D01*
X1473965Y1004696D01*
Y994539D01*
X1476504Y992000D01*
X1481582D01*
X1484121Y994539D01*
Y1004696D01*
X1481582Y1007235D01*
X1504435D02*
Y992000D01*
X1512052D01*
X1514591Y994539D01*
Y997078D01*
X1512052Y999618D01*
X1504435D01*
X1512052D01*
X1514591Y1002157D01*
Y1004696D01*
X1512052Y1007235D01*
X1504435D01*
X1529826D02*
X1519670D01*
Y992000D01*
X1529826D01*
X1519670Y999618D02*
X1524748D01*
X1550140Y1007235D02*
Y992000D01*
X1555218Y997078D01*
X1560296Y992000D01*
Y1007235D01*
X1565375D02*
Y992000D01*
Y999618D01*
X1575532D01*
Y1007235D01*
Y992000D01*
X1580610Y1007235D02*
X1585688D01*
X1583149D01*
Y992000D01*
X1580610D01*
X1585688D01*
X1593306Y1007235D02*
X1603463D01*
X1598384D01*
Y992000D01*
X1618698Y1007235D02*
X1608541D01*
Y992000D01*
X1618698D01*
X1608541Y999618D02*
X1613619D01*
X1055000Y1054696D02*
X1057539Y1057235D01*
X1062617D01*
X1065157Y1054696D01*
Y1052157D01*
X1062617Y1049618D01*
X1060078D01*
X1062617D01*
X1065157Y1047078D01*
Y1044539D01*
X1062617Y1042000D01*
X1057539D01*
X1055000Y1044539D01*
X1070235Y1042000D02*
Y1044539D01*
X1072774D01*
Y1042000D01*
X1070235D01*
X1108323Y1054696D02*
X1105784Y1057235D01*
X1100705D01*
X1098166Y1054696D01*
Y1052157D01*
X1100705Y1049618D01*
X1105784D01*
X1108323Y1047078D01*
Y1044539D01*
X1105784Y1042000D01*
X1100705D01*
X1098166Y1044539D01*
X1121019Y1057235D02*
X1115940D01*
X1113401Y1054696D01*
Y1044539D01*
X1115940Y1042000D01*
X1121019D01*
X1123558Y1044539D01*
Y1054696D01*
X1121019Y1057235D01*
X1128636D02*
Y1042000D01*
X1138793D01*
X1143871Y1057235D02*
Y1042000D01*
X1151489D01*
X1154028Y1044539D01*
Y1054696D01*
X1151489Y1057235D01*
X1143871D01*
X1169263D02*
X1159106D01*
Y1042000D01*
X1169263D01*
X1159106Y1049618D02*
X1164185D01*
X1174341Y1042000D02*
Y1057235D01*
X1181959D01*
X1184498Y1054696D01*
Y1049618D01*
X1181959Y1047078D01*
X1174341D01*
X1179420D02*
X1184498Y1042000D01*
X1204811D02*
Y1057235D01*
X1212429D01*
X1214968Y1054696D01*
Y1049618D01*
X1212429Y1047078D01*
X1204811D01*
X1209890D02*
X1214968Y1042000D01*
X1230203Y1057235D02*
X1220047D01*
Y1042000D01*
X1230203D01*
X1220047Y1049618D02*
X1225125D01*
X1245438Y1054696D02*
X1242899Y1057235D01*
X1237821D01*
X1235282Y1054696D01*
Y1052157D01*
X1237821Y1049618D01*
X1242899D01*
X1245438Y1047078D01*
Y1044539D01*
X1242899Y1042000D01*
X1237821D01*
X1235282Y1044539D01*
X1250517Y1057235D02*
X1255595D01*
X1253056D01*
Y1042000D01*
X1250517D01*
X1255595D01*
X1273369Y1054696D02*
X1270830Y1057235D01*
X1265752D01*
X1263213Y1054696D01*
Y1052157D01*
X1265752Y1049618D01*
X1270830D01*
X1273369Y1047078D01*
Y1044539D01*
X1270830Y1042000D01*
X1265752D01*
X1263213Y1044539D01*
X1278448Y1057235D02*
X1288604D01*
X1283526D01*
Y1042000D01*
X1293683Y1052157D02*
X1296222D01*
Y1049618D01*
X1293683D01*
Y1052157D01*
Y1044539D02*
X1296222D01*
Y1042000D01*
X1293683D01*
Y1044539D01*
X1321614Y1042000D02*
Y1052157D01*
X1326692Y1057235D01*
X1331770Y1052157D01*
Y1042000D01*
Y1049618D01*
X1321614D01*
X1336849Y1042000D02*
Y1057235D01*
X1344466D01*
X1347005Y1054696D01*
Y1049618D01*
X1344466Y1047078D01*
X1336849D01*
X1352084Y1042000D02*
Y1057235D01*
X1359701D01*
X1362241Y1054696D01*
Y1049618D01*
X1359701Y1047078D01*
X1352084D01*
X1367319Y1057235D02*
Y1042000D01*
X1377476D01*
X1382554Y1057235D02*
Y1054696D01*
X1387632Y1049618D01*
X1392711Y1054696D01*
Y1057235D01*
X1387632Y1049618D02*
Y1042000D01*
X1413024Y1057235D02*
X1423181D01*
X1418103D01*
Y1042000D01*
X1435877Y1057235D02*
X1430798D01*
X1428259Y1054696D01*
Y1044539D01*
X1430798Y1042000D01*
X1435877D01*
X1438416Y1044539D01*
Y1054696D01*
X1435877Y1057235D01*
X1458729D02*
Y1042000D01*
X1466347D01*
X1468886Y1044539D01*
Y1047078D01*
X1466347Y1049618D01*
X1458729D01*
X1466347D01*
X1468886Y1052157D01*
Y1054696D01*
X1466347Y1057235D01*
X1458729D01*
X1481582D02*
X1476504D01*
X1473965Y1054696D01*
Y1044539D01*
X1476504Y1042000D01*
X1481582D01*
X1484121Y1044539D01*
Y1054696D01*
X1481582Y1057235D01*
X1489200D02*
X1499356D01*
X1494278D01*
Y1042000D01*
X1504435Y1057235D02*
Y1042000D01*
Y1049618D01*
X1514591D01*
Y1057235D01*
Y1042000D01*
X1545061Y1054696D02*
X1542522Y1057235D01*
X1537444D01*
X1534905Y1054696D01*
Y1052157D01*
X1537444Y1049618D01*
X1542522D01*
X1545061Y1047078D01*
Y1044539D01*
X1542522Y1042000D01*
X1537444D01*
X1534905Y1044539D01*
X1550140Y1057235D02*
X1555218D01*
X1552679D01*
Y1042000D01*
X1550140D01*
X1555218D01*
X1562836Y1057235D02*
Y1042000D01*
X1570453D01*
X1572992Y1044539D01*
Y1054696D01*
X1570453Y1057235D01*
X1562836D01*
X1588228D02*
X1578071D01*
Y1042000D01*
X1588228D01*
X1578071Y1049618D02*
X1583149D01*
X1603463Y1054696D02*
X1600923Y1057235D01*
X1595845D01*
X1593306Y1054696D01*
Y1052157D01*
X1595845Y1049618D01*
X1600923D01*
X1603463Y1047078D01*
Y1044539D01*
X1600923Y1042000D01*
X1595845D01*
X1593306Y1044539D01*
X1633933Y1054696D02*
X1631393Y1057235D01*
X1626315D01*
X1623776Y1054696D01*
Y1044539D01*
X1626315Y1042000D01*
X1631393D01*
X1633933Y1044539D01*
X1646629Y1057235D02*
X1641550D01*
X1639011Y1054696D01*
Y1044539D01*
X1641550Y1042000D01*
X1646629D01*
X1649168Y1044539D01*
Y1054696D01*
X1646629Y1057235D01*
X1654246D02*
Y1042000D01*
X1664403D01*
X1677099Y1057235D02*
X1672020D01*
X1669481Y1054696D01*
Y1044539D01*
X1672020Y1042000D01*
X1677099D01*
X1679638Y1044539D01*
Y1054696D01*
X1677099Y1057235D01*
X1684716D02*
Y1044539D01*
X1687256Y1042000D01*
X1692334D01*
X1694873Y1044539D01*
Y1057235D01*
X1699951Y1042000D02*
Y1057235D01*
X1707569D01*
X1710108Y1054696D01*
Y1049618D01*
X1707569Y1047078D01*
X1699951D01*
X1705030D02*
X1710108Y1042000D01*
X1730421Y1049618D02*
X1740578D01*
X1760892Y1057235D02*
Y1042000D01*
X1768509D01*
X1771048Y1044539D01*
Y1047078D01*
X1768509Y1049618D01*
X1760892D01*
X1768509D01*
X1771048Y1052157D01*
Y1054696D01*
X1768509Y1057235D01*
X1760892D01*
X1776127D02*
Y1042000D01*
X1786283D01*
X1791362Y1057235D02*
Y1044539D01*
X1793901Y1042000D01*
X1798979D01*
X1801519Y1044539D01*
Y1057235D01*
X1816754D02*
X1806597D01*
Y1042000D01*
X1816754D01*
X1806597Y1049618D02*
X1811675D01*
X1065157Y1092000D02*
X1055000D01*
X1065157Y1102157D01*
Y1104696D01*
X1062617Y1107235D01*
X1057539D01*
X1055000Y1104696D01*
X1070235Y1092000D02*
Y1094539D01*
X1072774D01*
Y1092000D01*
X1070235D01*
X1098166Y1107235D02*
Y1092000D01*
X1105784D01*
X1108323Y1094539D01*
Y1097078D01*
X1105784Y1099618D01*
X1098166D01*
X1105784D01*
X1108323Y1102157D01*
Y1104696D01*
X1105784Y1107235D01*
X1098166D01*
X1121019D02*
X1115940D01*
X1113401Y1104696D01*
Y1094539D01*
X1115940Y1092000D01*
X1121019D01*
X1123558Y1094539D01*
Y1104696D01*
X1121019Y1107235D01*
X1128636Y1092000D02*
Y1102157D01*
X1133715Y1107235D01*
X1138793Y1102157D01*
Y1092000D01*
Y1099618D01*
X1128636D01*
X1143871Y1092000D02*
Y1107235D01*
X1151489D01*
X1154028Y1104696D01*
Y1099618D01*
X1151489Y1097078D01*
X1143871D01*
X1148950D02*
X1154028Y1092000D01*
X1159106Y1107235D02*
Y1092000D01*
X1166724D01*
X1169263Y1094539D01*
Y1104696D01*
X1166724Y1107235D01*
X1159106D01*
X1199733D02*
X1189576D01*
Y1099618D01*
X1194655D01*
X1189576D01*
Y1092000D01*
X1204811Y1107235D02*
X1209890D01*
X1207351D01*
Y1092000D01*
X1204811D01*
X1209890D01*
X1217507D02*
Y1107235D01*
X1227664Y1092000D01*
Y1107235D01*
X1232742D02*
X1237821D01*
X1235282D01*
Y1092000D01*
X1232742D01*
X1237821D01*
X1255595Y1104696D02*
X1253056Y1107235D01*
X1247978D01*
X1245438Y1104696D01*
Y1102157D01*
X1247978Y1099618D01*
X1253056D01*
X1255595Y1097078D01*
Y1094539D01*
X1253056Y1092000D01*
X1247978D01*
X1245438Y1094539D01*
X1260674Y1107235D02*
Y1092000D01*
Y1099618D01*
X1270830D01*
Y1107235D01*
Y1092000D01*
X1275909Y1102157D02*
X1278448D01*
Y1099618D01*
X1275909D01*
Y1102157D01*
Y1094539D02*
X1278448D01*
Y1092000D01*
X1275909D01*
Y1094539D01*
X1303840Y1107235D02*
X1308918D01*
X1306379D01*
Y1092000D01*
X1303840D01*
X1308918D01*
X1316535D02*
Y1107235D01*
X1321614Y1102157D01*
X1326692Y1107235D01*
Y1092000D01*
X1331770D02*
Y1107235D01*
X1336849Y1102157D01*
X1341927Y1107235D01*
Y1092000D01*
X1357162Y1107235D02*
X1347005D01*
Y1092000D01*
X1357162D01*
X1347005Y1099618D02*
X1352084D01*
X1362241Y1092000D02*
Y1107235D01*
X1369858D01*
X1372397Y1104696D01*
Y1099618D01*
X1369858Y1097078D01*
X1362241D01*
X1367319D02*
X1372397Y1092000D01*
X1387632Y1104696D02*
X1385093Y1107235D01*
X1380015D01*
X1377476Y1104696D01*
Y1102157D01*
X1380015Y1099618D01*
X1385093D01*
X1387632Y1097078D01*
Y1094539D01*
X1385093Y1092000D01*
X1380015D01*
X1377476Y1094539D01*
X1392711Y1107235D02*
X1397789D01*
X1395250D01*
Y1092000D01*
X1392711D01*
X1397789D01*
X1413024Y1107235D02*
X1407946D01*
X1405407Y1104696D01*
Y1094539D01*
X1407946Y1092000D01*
X1413024D01*
X1415563Y1094539D01*
Y1104696D01*
X1413024Y1107235D01*
X1420642Y1092000D02*
Y1107235D01*
X1430798Y1092000D01*
Y1107235D01*
X1451112Y1092000D02*
Y1102157D01*
X1456190Y1107235D01*
X1461269Y1102157D01*
Y1092000D01*
Y1099618D01*
X1451112D01*
X1466347Y1102157D02*
Y1094539D01*
X1468886Y1092000D01*
X1476504D01*
Y1102157D01*
X1481582Y1092000D02*
X1491739Y1102157D01*
X1506974Y1107235D02*
X1496817D01*
Y1092000D01*
X1506974D01*
X1496817Y1099618D02*
X1501895D01*
X1512052Y1107235D02*
Y1092000D01*
X1522209D01*
X1537444Y1107235D02*
X1527287D01*
Y1092000D01*
X1537444D01*
X1527287Y1099618D02*
X1532366D01*
X1552679Y1104696D02*
X1550140Y1107235D01*
X1545061D01*
X1542522Y1104696D01*
Y1094539D01*
X1545061Y1092000D01*
X1550140D01*
X1552679Y1094539D01*
X1557757Y1107235D02*
X1567914D01*
X1562836D01*
Y1092000D01*
X1572992D02*
Y1107235D01*
X1580610D01*
X1583149Y1104696D01*
Y1099618D01*
X1580610Y1097078D01*
X1572992D01*
X1578071D02*
X1583149Y1092000D01*
X1595845Y1107235D02*
X1590767D01*
X1588228Y1104696D01*
Y1094539D01*
X1590767Y1092000D01*
X1595845D01*
X1598384Y1094539D01*
Y1104696D01*
X1595845Y1107235D01*
X1603463D02*
Y1092000D01*
X1613619D01*
X1628854Y1107235D02*
X1618698D01*
Y1092000D01*
X1628854D01*
X1618698Y1099618D02*
X1623776D01*
X1644089Y1104696D02*
X1641550Y1107235D01*
X1636472D01*
X1633933Y1104696D01*
Y1102157D01*
X1636472Y1099618D01*
X1641550D01*
X1644089Y1097078D01*
Y1094539D01*
X1641550Y1092000D01*
X1636472D01*
X1633933Y1094539D01*
X1659324Y1104696D02*
X1656785Y1107235D01*
X1651707D01*
X1649168Y1104696D01*
Y1102157D01*
X1651707Y1099618D01*
X1656785D01*
X1659324Y1097078D01*
Y1094539D01*
X1656785Y1092000D01*
X1651707D01*
X1649168Y1094539D01*
X1679638Y1092000D02*
Y1107235D01*
X1689795Y1092000D01*
Y1107235D01*
X1694873Y1092000D02*
X1699951D01*
X1697412D01*
Y1102157D01*
X1694873D01*
X1707569Y1099618D02*
Y1102157D01*
X1710108D01*
Y1099618D01*
X1707569D01*
Y1094539D02*
X1710108D01*
Y1092000D01*
X1707569Y1089461D01*
X1710108Y1092000D02*
X1707569D01*
Y1094539D01*
X1735500Y1104696D02*
X1738039Y1107235D01*
X1743117D01*
X1745657Y1104696D01*
Y1094539D01*
X1743117Y1092000D01*
X1738039D01*
X1735500Y1094539D01*
Y1104696D01*
X1750735Y1092000D02*
Y1094539D01*
X1753274D01*
Y1092000D01*
X1750735D01*
X1763431Y1104696D02*
X1765970Y1107235D01*
X1771048D01*
X1773587Y1104696D01*
Y1094539D01*
X1771048Y1092000D01*
X1765970D01*
X1763431Y1094539D01*
Y1104696D01*
X1788823Y1107235D02*
X1778666D01*
Y1099618D01*
X1783744Y1102157D01*
X1786283D01*
X1788823Y1099618D01*
Y1094539D01*
X1786283Y1092000D01*
X1781205D01*
X1778666Y1094539D01*
X1793901Y1099618D02*
X1804058D01*
X1809136Y1104696D02*
X1811675Y1107235D01*
X1816754D01*
X1819293Y1104696D01*
Y1094539D01*
X1816754Y1092000D01*
X1811675D01*
X1809136Y1094539D01*
Y1104696D01*
X1824371Y1092000D02*
Y1094539D01*
X1826910D01*
Y1092000D01*
X1824371D01*
X1837067D02*
X1842145D01*
X1839606D01*
Y1107235D01*
X1837067Y1104696D01*
X1859920Y1092000D02*
X1849763D01*
X1859920Y1102157D01*
Y1104696D01*
X1857380Y1107235D01*
X1852302D01*
X1849763Y1104696D01*
X1880233Y1102157D02*
Y1094539D01*
X1882772Y1092000D01*
X1890390D01*
Y1102157D01*
X1895468Y1092000D02*
Y1102157D01*
X1898007D01*
X1900546Y1099618D01*
Y1092000D01*
Y1099618D01*
X1903086Y1102157D01*
X1905625Y1099618D01*
Y1092000D01*
X1936095Y1104696D02*
X1933556Y1107235D01*
X1928477D01*
X1925938Y1104696D01*
Y1094539D01*
X1928477Y1092000D01*
X1933556D01*
X1936095Y1094539D01*
Y1099618D01*
X1931017D01*
X1948791Y1107235D02*
X1943712D01*
X1941173Y1104696D01*
Y1094539D01*
X1943712Y1092000D01*
X1948791D01*
X1951330Y1094539D01*
Y1104696D01*
X1948791Y1107235D01*
X1956408D02*
Y1092000D01*
X1966565D01*
X1971643Y1107235D02*
Y1092000D01*
X1979261D01*
X1981800Y1094539D01*
Y1104696D01*
X1979261Y1107235D01*
X1971643D01*
X1986879Y1099618D02*
Y1102157D01*
X1989418D01*
Y1099618D01*
X1986879D01*
Y1094539D02*
X1989418D01*
Y1092000D01*
X1986879Y1089461D01*
X1989418Y1092000D02*
X1986879D01*
Y1094539D01*
X2014810Y1104696D02*
X2017349Y1107235D01*
X2022427D01*
X2024966Y1104696D01*
Y1102157D01*
X2022427Y1099618D01*
X2019888D01*
X2022427D01*
X2024966Y1097078D01*
Y1094539D01*
X2022427Y1092000D01*
X2017349D01*
X2014810Y1094539D01*
X2030045Y1099618D02*
X2040201D01*
X2055436Y1107235D02*
X2050358Y1104696D01*
X2045280Y1099618D01*
Y1094539D01*
X2047819Y1092000D01*
X2052897D01*
X2055436Y1094539D01*
Y1097078D01*
X2052897Y1099618D01*
X2045280D01*
X2060515Y1102157D02*
Y1094539D01*
X2063054Y1092000D01*
X2070671D01*
Y1102157D01*
X2075750Y1092000D02*
Y1102157D01*
X2078289D01*
X2080828Y1099618D01*
Y1092000D01*
Y1099618D01*
X2083367Y1102157D01*
X2085907Y1099618D01*
Y1092000D01*
X2106220D02*
Y1107235D01*
X2116377Y1092000D01*
Y1107235D01*
X2121455D02*
X2126533D01*
X2123994D01*
Y1092000D01*
X2121455D01*
X2126533D01*
X2144308Y1104696D02*
X2141768Y1107235D01*
X2136690D01*
X2134151Y1104696D01*
Y1094539D01*
X2136690Y1092000D01*
X2141768D01*
X2144308Y1094539D01*
X2149386Y1107235D02*
Y1092000D01*
Y1097078D01*
X2159543Y1107235D01*
X2151925Y1099618D01*
X2159543Y1092000D01*
X2174778Y1107235D02*
X2164621D01*
Y1092000D01*
X2174778D01*
X2164621Y1099618D02*
X2169699D01*
X2179856Y1107235D02*
Y1092000D01*
X2190013D01*
X1055000Y1142000D02*
X1060078D01*
X1057539D01*
Y1157235D01*
X1055000Y1154696D01*
X1067696Y1142000D02*
Y1144539D01*
X1070235D01*
Y1142000D01*
X1067696D01*
X1105784Y1157235D02*
X1095627D01*
Y1149618D01*
X1100705D01*
X1095627D01*
Y1142000D01*
X1110862Y1157235D02*
X1115940D01*
X1113401D01*
Y1142000D01*
X1110862D01*
X1115940D01*
X1123558D02*
Y1157235D01*
X1133715Y1142000D01*
Y1157235D01*
X1138793D02*
X1143871D01*
X1141332D01*
Y1142000D01*
X1138793D01*
X1143871D01*
X1161646Y1154696D02*
X1159106Y1157235D01*
X1154028D01*
X1151489Y1154696D01*
Y1152157D01*
X1154028Y1149618D01*
X1159106D01*
X1161646Y1147078D01*
Y1144539D01*
X1159106Y1142000D01*
X1154028D01*
X1151489Y1144539D01*
X1166724Y1157235D02*
Y1142000D01*
Y1149618D01*
X1176881D01*
Y1157235D01*
Y1142000D01*
X1192116Y1157235D02*
X1181959D01*
Y1142000D01*
X1192116D01*
X1181959Y1149618D02*
X1187037D01*
X1197194Y1157235D02*
Y1142000D01*
X1204811D01*
X1207351Y1144539D01*
Y1154696D01*
X1204811Y1157235D01*
X1197194D01*
X1227664Y1142000D02*
Y1157235D01*
X1235282D01*
X1237821Y1154696D01*
Y1149618D01*
X1235282Y1147078D01*
X1227664D01*
X1242899Y1142000D02*
Y1152157D01*
X1247978Y1157235D01*
X1253056Y1152157D01*
Y1142000D01*
Y1149618D01*
X1242899D01*
X1258134Y1142000D02*
Y1157235D01*
X1268291Y1142000D01*
Y1157235D01*
X1283526D02*
X1273369D01*
Y1142000D01*
X1283526D01*
X1273369Y1149618D02*
X1278448D01*
X1288604Y1157235D02*
Y1142000D01*
X1298761D01*
X1319075Y1157235D02*
X1329231D01*
X1324153D01*
Y1142000D01*
X1334310Y1157235D02*
Y1142000D01*
Y1149618D01*
X1344466D01*
Y1157235D01*
Y1142000D01*
X1349545Y1157235D02*
X1354623D01*
X1352084D01*
Y1142000D01*
X1349545D01*
X1354623D01*
X1372397Y1154696D02*
X1369858Y1157235D01*
X1364780D01*
X1362241Y1154696D01*
Y1144539D01*
X1364780Y1142000D01*
X1369858D01*
X1372397Y1144539D01*
X1377476Y1157235D02*
Y1142000D01*
Y1147078D01*
X1387632Y1157235D01*
X1380015Y1149618D01*
X1387632Y1142000D01*
X1392711D02*
Y1157235D01*
X1402867Y1142000D01*
Y1157235D01*
X1418103D02*
X1407946D01*
Y1142000D01*
X1418103D01*
X1407946Y1149618D02*
X1413024D01*
X1433338Y1154696D02*
X1430798Y1157235D01*
X1425720D01*
X1423181Y1154696D01*
Y1152157D01*
X1425720Y1149618D01*
X1430798D01*
X1433338Y1147078D01*
Y1144539D01*
X1430798Y1142000D01*
X1425720D01*
X1423181Y1144539D01*
X1448573Y1154696D02*
X1446033Y1157235D01*
X1440955D01*
X1438416Y1154696D01*
Y1152157D01*
X1440955Y1149618D01*
X1446033D01*
X1448573Y1147078D01*
Y1144539D01*
X1446033Y1142000D01*
X1440955D01*
X1438416Y1144539D01*
X1468886Y1157235D02*
X1473964D01*
X1471425D01*
Y1142000D01*
X1468886D01*
X1473964D01*
X1491739Y1154696D02*
X1489200Y1157235D01*
X1484121D01*
X1481582Y1154696D01*
Y1152157D01*
X1484121Y1149618D01*
X1489200D01*
X1491739Y1147078D01*
Y1144539D01*
X1489200Y1142000D01*
X1484121D01*
X1481582Y1144539D01*
X1512052Y1142000D02*
Y1157235D01*
X1522209Y1142000D01*
Y1157235D01*
X1534905D02*
X1529826D01*
X1527287Y1154696D01*
Y1144539D01*
X1529826Y1142000D01*
X1534905D01*
X1537444Y1144539D01*
Y1154696D01*
X1534905Y1157235D01*
X1542522D02*
X1552679D01*
X1547601D01*
Y1142000D01*
X1583149Y1154696D02*
X1580610Y1157235D01*
X1575532D01*
X1572992Y1154696D01*
Y1144539D01*
X1575532Y1142000D01*
X1580610D01*
X1583149Y1144539D01*
X1588228Y1142000D02*
Y1157235D01*
X1595845D01*
X1598384Y1154696D01*
Y1149618D01*
X1595845Y1147078D01*
X1588228D01*
X1593306D02*
X1598384Y1142000D01*
X1603463Y1157235D02*
X1608541D01*
X1606002D01*
Y1142000D01*
X1603463D01*
X1608541D01*
X1616158Y1157235D02*
X1626315D01*
X1621237D01*
Y1142000D01*
X1631393Y1157235D02*
X1636472D01*
X1633933D01*
Y1142000D01*
X1631393D01*
X1636472D01*
X1654246Y1154696D02*
X1651707Y1157235D01*
X1646629D01*
X1644089Y1154696D01*
Y1144539D01*
X1646629Y1142000D01*
X1651707D01*
X1654246Y1144539D01*
X1659324Y1142000D02*
Y1152157D01*
X1664403Y1157235D01*
X1669481Y1152157D01*
Y1142000D01*
Y1149618D01*
X1659324D01*
X1674559Y1157235D02*
Y1142000D01*
X1684716D01*
X1689795Y1152157D02*
X1692334D01*
Y1149618D01*
X1689795D01*
Y1152157D01*
Y1144539D02*
X1692334D01*
Y1142000D01*
X1689795D01*
Y1144539D01*
X1717726Y1157235D02*
X1727882D01*
X1722804D01*
Y1142000D01*
X1740578Y1157235D02*
X1735500D01*
X1732961Y1154696D01*
Y1144539D01*
X1735500Y1142000D01*
X1740578D01*
X1743117Y1144539D01*
Y1154696D01*
X1740578Y1157235D01*
X1763431D02*
Y1142000D01*
X1771048D01*
X1773587Y1144539D01*
Y1147078D01*
X1771048Y1149618D01*
X1763431D01*
X1771048D01*
X1773587Y1152157D01*
Y1154696D01*
X1771048Y1157235D01*
X1763431D01*
X1788823D02*
X1778666D01*
Y1142000D01*
X1788823D01*
X1778666Y1149618D02*
X1783744D01*
X1809136Y1142000D02*
Y1152157D01*
X1814214Y1157235D01*
X1819293Y1152157D01*
Y1142000D01*
Y1149618D01*
X1809136D01*
X1824371Y1142000D02*
Y1157235D01*
X1831989D01*
X1834528Y1154696D01*
Y1149618D01*
X1831989Y1147078D01*
X1824371D01*
X1839606Y1142000D02*
Y1157235D01*
X1847224D01*
X1849763Y1154696D01*
Y1149618D01*
X1847224Y1147078D01*
X1839606D01*
X1854841Y1142000D02*
Y1157235D01*
X1862459D01*
X1864998Y1154696D01*
Y1149618D01*
X1862459Y1147078D01*
X1854841D01*
X1859920D02*
X1864998Y1142000D01*
X1877694Y1157235D02*
X1872616D01*
X1870076Y1154696D01*
Y1144539D01*
X1872616Y1142000D01*
X1877694D01*
X1880233Y1144539D01*
Y1154696D01*
X1877694Y1157235D01*
X1885311D02*
X1895468Y1142000D01*
Y1157235D02*
X1885311Y1142000D01*
X1900546Y1157235D02*
X1905625D01*
X1903086D01*
Y1142000D01*
X1900546D01*
X1905625D01*
X1913242D02*
Y1157235D01*
X1918321Y1152157D01*
X1923399Y1157235D01*
Y1142000D01*
X1928477D02*
Y1152157D01*
X1933556Y1157235D01*
X1938634Y1152157D01*
Y1142000D01*
Y1149618D01*
X1928477D01*
X1943712Y1157235D02*
X1953869D01*
X1948791D01*
Y1142000D01*
X1969104Y1157235D02*
X1958947D01*
Y1142000D01*
X1969104D01*
X1958947Y1149618D02*
X1964026D01*
X1974183Y1157235D02*
Y1142000D01*
X1984339D01*
X1989418Y1157235D02*
Y1154696D01*
X1994496Y1149618D01*
X1999574Y1154696D01*
Y1157235D01*
X1994496Y1149618D02*
Y1142000D01*
X2019888D02*
X2024966D01*
X2022427D01*
Y1157235D01*
X2019888Y1154696D01*
X2032584Y1142000D02*
Y1144539D01*
X2035123D01*
Y1142000D01*
X2032584D01*
X2055436Y1157235D02*
X2050358Y1154696D01*
X2045280Y1149618D01*
Y1144539D01*
X2047819Y1142000D01*
X2052897D01*
X2055436Y1144539D01*
Y1147078D01*
X2052897Y1149618D01*
X2045280D01*
X2060515Y1142000D02*
Y1152157D01*
X2063054D01*
X2065593Y1149618D01*
Y1142000D01*
Y1149618D01*
X2068132Y1152157D01*
X2070671Y1149618D01*
Y1142000D01*
X2075750D02*
Y1152157D01*
X2078289D01*
X2080828Y1149618D01*
Y1142000D01*
Y1149618D01*
X2083367Y1152157D01*
X2085907Y1149618D01*
Y1142000D01*
X1055000Y1192000D02*
Y1207235D01*
X1060078Y1202157D01*
X1065157Y1207235D01*
Y1192000D01*
X1070235D02*
X1075313D01*
X1072774D01*
Y1202157D01*
X1070235D01*
X1082931Y1192000D02*
Y1202157D01*
X1090548D01*
X1093088Y1199618D01*
Y1192000D01*
X1098166D02*
X1103244D01*
X1100705D01*
Y1202157D01*
X1098166D01*
X1110862Y1192000D02*
Y1202157D01*
X1113401D01*
X1115940Y1199618D01*
Y1192000D01*
Y1199618D01*
X1118479Y1202157D01*
X1121019Y1199618D01*
Y1192000D01*
X1126097Y1202157D02*
Y1194539D01*
X1128636Y1192000D01*
X1136254D01*
Y1202157D01*
X1141332Y1192000D02*
Y1202157D01*
X1143871D01*
X1146410Y1199618D01*
Y1192000D01*
Y1199618D01*
X1148950Y1202157D01*
X1151489Y1199618D01*
Y1192000D01*
X1171802Y1207235D02*
X1181959D01*
X1176881D01*
Y1192000D01*
X1187037Y1207235D02*
Y1192000D01*
Y1199618D01*
X1189576Y1202157D01*
X1194655D01*
X1197194Y1199618D01*
Y1192000D01*
X1202272Y1202157D02*
Y1192000D01*
Y1197078D01*
X1204811Y1199618D01*
X1207351Y1202157D01*
X1209890D01*
X1220047Y1192000D02*
X1225125D01*
X1227664Y1194539D01*
Y1199618D01*
X1225125Y1202157D01*
X1220047D01*
X1217507Y1199618D01*
Y1194539D01*
X1220047Y1192000D01*
X1232742Y1202157D02*
Y1194539D01*
X1235282Y1192000D01*
X1242899D01*
Y1202157D01*
X1253056Y1186922D02*
X1255595D01*
X1258134Y1189461D01*
Y1202157D01*
X1250517D01*
X1247978Y1199618D01*
Y1194539D01*
X1250517Y1192000D01*
X1258134D01*
X1263213Y1207235D02*
Y1192000D01*
Y1199618D01*
X1265752Y1202157D01*
X1270830D01*
X1273369Y1199618D01*
Y1192000D01*
X1293683Y1207235D02*
Y1192000D01*
Y1199618D01*
X1303840D01*
Y1207235D01*
Y1192000D01*
X1311457D02*
X1316535D01*
X1319075Y1194539D01*
Y1199618D01*
X1316535Y1202157D01*
X1311457D01*
X1308918Y1199618D01*
Y1194539D01*
X1311457Y1192000D01*
X1324153D02*
X1329231D01*
X1326692D01*
Y1207235D01*
X1324153D01*
X1344466Y1192000D02*
X1339388D01*
X1336849Y1194539D01*
Y1199618D01*
X1339388Y1202157D01*
X1344466D01*
X1347005Y1199618D01*
Y1197078D01*
X1336849D01*
X1367319Y1207235D02*
Y1197078D01*
X1372397Y1192000D01*
X1377476Y1197078D01*
Y1207235D01*
X1382554D02*
X1387632D01*
X1385093D01*
Y1192000D01*
X1382554D01*
X1387632D01*
X1395250D02*
Y1202157D01*
X1400328Y1207235D01*
X1405407Y1202157D01*
Y1192000D01*
Y1199618D01*
X1395250D01*
X1410485Y1202157D02*
X1413024D01*
Y1199618D01*
X1410485D01*
Y1202157D01*
Y1194539D02*
X1413024D01*
Y1192000D01*
X1410485D01*
Y1194539D01*
X1438416Y1204696D02*
X1440955Y1207235D01*
X1446033D01*
X1448573Y1204696D01*
Y1194539D01*
X1446033Y1192000D01*
X1440955D01*
X1438416Y1194539D01*
Y1204696D01*
X1453651Y1192000D02*
Y1194539D01*
X1456190D01*
Y1192000D01*
X1453651D01*
X1466347Y1204696D02*
X1468886Y1207235D01*
X1473964D01*
X1476504Y1204696D01*
Y1202157D01*
X1473964Y1199618D01*
X1476504Y1197078D01*
Y1194539D01*
X1473964Y1192000D01*
X1468886D01*
X1466347Y1194539D01*
Y1197078D01*
X1468886Y1199618D01*
X1466347Y1202157D01*
Y1204696D01*
X1468886Y1199618D02*
X1473964D01*
X1481582Y1192000D02*
Y1202157D01*
X1484121D01*
X1486660Y1199618D01*
Y1192000D01*
Y1199618D01*
X1489200Y1202157D01*
X1491739Y1199618D01*
Y1192000D01*
X1496817D02*
Y1202157D01*
X1499356D01*
X1501895Y1199618D01*
Y1192000D01*
Y1199618D01*
X1504435Y1202157D01*
X1506974Y1199618D01*
Y1192000D01*
X1532366D02*
X1527287Y1197078D01*
Y1202157D01*
X1532366Y1207235D01*
X1539983Y1186922D02*
Y1202157D01*
X1547601D01*
X1550140Y1199618D01*
Y1194539D01*
X1547601Y1192000D01*
X1539983D01*
X1557757Y1202157D02*
X1562836D01*
X1565375Y1199618D01*
Y1192000D01*
X1557757D01*
X1555218Y1194539D01*
X1557757Y1197078D01*
X1565375D01*
X1580610Y1207235D02*
Y1192000D01*
X1572992D01*
X1570453Y1194539D01*
Y1199618D01*
X1572992Y1202157D01*
X1580610D01*
X1585688Y1192000D02*
X1590767Y1197078D01*
Y1202157D01*
X1585688Y1207235D01*
X1613619Y1192000D02*
X1623776Y1202157D01*
X1644089Y1204696D02*
X1646629Y1207235D01*
X1651707D01*
X1654246Y1204696D01*
Y1194539D01*
X1651707Y1192000D01*
X1646629D01*
X1644089Y1194539D01*
Y1204696D01*
X1659324Y1192000D02*
Y1194539D01*
X1661864D01*
Y1192000D01*
X1659324D01*
X1679638D02*
Y1207235D01*
X1672020Y1199618D01*
X1682177D01*
X1687255Y1192000D02*
Y1202157D01*
X1689795D01*
X1692334Y1199618D01*
Y1192000D01*
Y1199618D01*
X1694873Y1202157D01*
X1697412Y1199618D01*
Y1192000D01*
X1702491D02*
Y1202157D01*
X1705030D01*
X1707569Y1199618D01*
Y1192000D01*
Y1199618D01*
X1710108Y1202157D01*
X1712647Y1199618D01*
Y1192000D01*
X1738039D02*
X1732961Y1197078D01*
Y1202157D01*
X1738039Y1207235D01*
X1755813D02*
Y1192000D01*
X1748196D01*
X1745656Y1194539D01*
Y1199618D01*
X1748196Y1202157D01*
X1755813D01*
X1760892D02*
Y1192000D01*
Y1197078D01*
X1763431Y1199618D01*
X1765970Y1202157D01*
X1768509D01*
X1776127Y1192000D02*
X1781205D01*
X1778666D01*
Y1202157D01*
X1776127D01*
X1788823Y1192000D02*
X1793901D01*
X1791362D01*
Y1207235D01*
X1788823D01*
X1801518Y1192000D02*
X1806597D01*
X1804058D01*
Y1207235D01*
X1801518D01*
X1814214Y1192000D02*
X1819293Y1197078D01*
Y1202157D01*
X1814214Y1207235D01*
X1826910Y1192000D02*
Y1194539D01*
X1829449D01*
Y1192000D01*
X1826910D01*
X1854841Y1207235D02*
Y1192000D01*
X1862459D01*
X1864998Y1194539D01*
Y1204696D01*
X1862459Y1207235D01*
X1854841D01*
X1870076Y1202157D02*
Y1192000D01*
Y1197078D01*
X1872615Y1199618D01*
X1875155Y1202157D01*
X1877694D01*
X1885311Y1192000D02*
X1890390D01*
X1887850D01*
Y1202157D01*
X1885311D01*
X1898007Y1192000D02*
X1903086D01*
X1900546D01*
Y1207235D01*
X1898007D01*
X1910703Y1192000D02*
X1915781D01*
X1913242D01*
Y1207235D01*
X1910703D01*
X1923399Y1192000D02*
X1928477D01*
X1925938D01*
Y1202157D01*
X1923399D01*
X1936095Y1192000D02*
Y1202157D01*
X1943712D01*
X1946252Y1199618D01*
Y1192000D01*
X1956408Y1186922D02*
X1958947D01*
X1961487Y1189461D01*
Y1202157D01*
X1953869D01*
X1951330Y1199618D01*
Y1194539D01*
X1953869Y1192000D01*
X1961487D01*
X1966565Y1202157D02*
X1969104D01*
Y1199618D01*
X1966565D01*
Y1202157D01*
Y1194539D02*
X1969104D01*
Y1192000D01*
X1966565D01*
Y1194539D01*
X1994496Y1207235D02*
Y1192000D01*
X2004653D01*
X2009731D02*
X2014809D01*
X2012270D01*
Y1207235D01*
X2009731Y1204696D01*
X2022427Y1199618D02*
X2032584D01*
X2037662Y1207235D02*
Y1192000D01*
X2047819D01*
X2063054D02*
X2052897D01*
X2063054Y1202157D01*
Y1204696D01*
X2060515Y1207235D01*
X2055436D01*
X2052897Y1204696D01*
X1055000Y1217000D02*
Y1232235D01*
X1060078Y1227157D01*
X1065157Y1232235D01*
Y1217000D01*
X1070235D02*
X1075313D01*
X1072774D01*
Y1227157D01*
X1070235D01*
X1082931Y1217000D02*
Y1227157D01*
X1090548D01*
X1093088Y1224618D01*
Y1217000D01*
X1098166D02*
X1103244D01*
X1100705D01*
Y1227157D01*
X1098166D01*
X1110862Y1217000D02*
Y1227157D01*
X1113401D01*
X1115940Y1224618D01*
Y1217000D01*
Y1224618D01*
X1118479Y1227157D01*
X1121019Y1224618D01*
Y1217000D01*
X1126097Y1227157D02*
Y1219539D01*
X1128636Y1217000D01*
X1136254D01*
Y1227157D01*
X1141332Y1217000D02*
Y1227157D01*
X1143871D01*
X1146410Y1224618D01*
Y1217000D01*
Y1224618D01*
X1148950Y1227157D01*
X1151489Y1224618D01*
Y1217000D01*
X1181959Y1229696D02*
X1179420Y1232235D01*
X1174341D01*
X1171802Y1229696D01*
Y1219539D01*
X1174341Y1217000D01*
X1179420D01*
X1181959Y1219539D01*
Y1224618D01*
X1176881D01*
X1189576Y1227157D02*
X1194655D01*
X1197194Y1224618D01*
Y1217000D01*
X1189576D01*
X1187037Y1219539D01*
X1189576Y1222078D01*
X1197194D01*
X1202272Y1211922D02*
Y1227157D01*
X1209890D01*
X1212429Y1224618D01*
Y1219539D01*
X1209890Y1217000D01*
X1202272D01*
X1217507Y1227157D02*
X1220047D01*
Y1224618D01*
X1217507D01*
Y1227157D01*
Y1219539D02*
X1220047D01*
Y1217000D01*
X1217507D01*
Y1219539D01*
X1230203Y1229696D02*
X1232742Y1232235D01*
X1237821D01*
X1240360Y1229696D01*
Y1219539D01*
X1237821Y1217000D01*
X1232742D01*
X1230203Y1219539D01*
Y1229696D01*
X1245438Y1217000D02*
Y1219539D01*
X1247978D01*
Y1217000D01*
X1245438D01*
X1258134D02*
X1263213D01*
X1260674D01*
Y1232235D01*
X1258134Y1229696D01*
X1280987Y1217000D02*
X1270830D01*
X1280987Y1227157D01*
Y1229696D01*
X1278448Y1232235D01*
X1273369D01*
X1270830Y1229696D01*
X1286065Y1232235D02*
X1296222D01*
Y1229696D01*
X1286065Y1219539D01*
Y1217000D01*
X1301300D02*
Y1227157D01*
X1303840D01*
X1306379Y1224618D01*
Y1217000D01*
Y1224618D01*
X1308918Y1227157D01*
X1311457Y1224618D01*
Y1217000D01*
X1316535D02*
Y1227157D01*
X1319075D01*
X1321614Y1224618D01*
Y1217000D01*
Y1224618D01*
X1324153Y1227157D01*
X1326692Y1224618D01*
Y1217000D01*
X1055000Y1242000D02*
Y1257235D01*
X1060078Y1252157D01*
X1065157Y1257235D01*
Y1242000D01*
X1070235D02*
X1075313D01*
X1072774D01*
Y1252157D01*
X1070235D01*
X1082931Y1242000D02*
Y1252157D01*
X1090548D01*
X1093088Y1249618D01*
Y1242000D01*
X1098166D02*
X1103244D01*
X1100705D01*
Y1252157D01*
X1098166D01*
X1110862Y1242000D02*
Y1252157D01*
X1113401D01*
X1115940Y1249618D01*
Y1242000D01*
Y1249618D01*
X1118479Y1252157D01*
X1121019Y1249618D01*
Y1242000D01*
X1126097Y1252157D02*
Y1244539D01*
X1128636Y1242000D01*
X1136254D01*
Y1252157D01*
X1141332Y1242000D02*
Y1252157D01*
X1143871D01*
X1146410Y1249618D01*
Y1242000D01*
Y1249618D01*
X1148950Y1252157D01*
X1151489Y1249618D01*
Y1242000D01*
X1171802Y1257235D02*
X1181959D01*
X1176881D01*
Y1242000D01*
X1187037Y1252157D02*
Y1242000D01*
Y1247078D01*
X1189576Y1249618D01*
X1192116Y1252157D01*
X1194655D01*
X1204811D02*
X1209890D01*
X1212429Y1249618D01*
Y1242000D01*
X1204811D01*
X1202272Y1244539D01*
X1204811Y1247078D01*
X1212429D01*
X1227664Y1252157D02*
X1220047D01*
X1217507Y1249618D01*
Y1244539D01*
X1220047Y1242000D01*
X1227664D01*
X1232742D02*
Y1257235D01*
Y1247078D02*
X1240360Y1252157D01*
X1232742Y1247078D02*
X1240360Y1242000D01*
X1247978Y1252157D02*
X1250517D01*
Y1249618D01*
X1247978D01*
Y1252157D01*
Y1244539D02*
X1250517D01*
Y1242000D01*
X1247978D01*
Y1244539D01*
X1275909Y1254696D02*
X1278448Y1257235D01*
X1283526D01*
X1286065Y1254696D01*
Y1244539D01*
X1283526Y1242000D01*
X1278448D01*
X1275909Y1244539D01*
Y1254696D01*
X1291144Y1242000D02*
Y1244539D01*
X1293683D01*
Y1242000D01*
X1291144D01*
X1303840Y1254696D02*
X1306379Y1257235D01*
X1311457D01*
X1313996Y1254696D01*
Y1252157D01*
X1311457Y1249618D01*
X1308918D01*
X1311457D01*
X1313996Y1247078D01*
Y1244539D01*
X1311457Y1242000D01*
X1306379D01*
X1303840Y1244539D01*
X1319075Y1242000D02*
Y1252157D01*
X1321614D01*
X1324153Y1249618D01*
Y1242000D01*
Y1249618D01*
X1326692Y1252157D01*
X1329231Y1249618D01*
Y1242000D01*
X1334310D02*
Y1252157D01*
X1336849D01*
X1339388Y1249618D01*
Y1242000D01*
Y1249618D01*
X1341927Y1252157D01*
X1344466Y1249618D01*
Y1242000D01*
X1055000Y1282235D02*
Y1267000D01*
X1062617D01*
X1065157Y1269539D01*
Y1272078D01*
X1062617Y1274618D01*
X1055000D01*
X1062617D01*
X1065157Y1277157D01*
Y1279696D01*
X1062617Y1282235D01*
X1055000D01*
X1072774Y1267000D02*
X1077853D01*
X1080392Y1269539D01*
Y1274618D01*
X1077853Y1277157D01*
X1072774D01*
X1070235Y1274618D01*
Y1269539D01*
X1072774Y1267000D01*
X1088009Y1277157D02*
X1093088D01*
X1095627Y1274618D01*
Y1267000D01*
X1088009D01*
X1085470Y1269539D01*
X1088009Y1272078D01*
X1095627D01*
X1100705Y1277157D02*
Y1267000D01*
Y1272078D01*
X1103244Y1274618D01*
X1105784Y1277157D01*
X1108323D01*
X1126097Y1282235D02*
Y1267000D01*
X1118480D01*
X1115940Y1269539D01*
Y1274618D01*
X1118480Y1277157D01*
X1126097D01*
X1146410Y1267000D02*
X1151489D01*
X1148950D01*
Y1277157D01*
X1146410D01*
X1159106Y1267000D02*
Y1277157D01*
X1166724D01*
X1169263Y1274618D01*
Y1267000D01*
X1176881D02*
Y1279696D01*
Y1274618D01*
X1174341D01*
X1179420D01*
X1176881D01*
Y1279696D01*
X1179420Y1282235D01*
X1189576Y1267000D02*
X1194655D01*
X1197194Y1269539D01*
Y1274618D01*
X1194655Y1277157D01*
X1189576D01*
X1187037Y1274618D01*
Y1269539D01*
X1189576Y1267000D01*
X1065157Y957235D02*
X1055000D01*
Y949618D01*
X1060078Y952157D01*
X1062617D01*
X1065157Y949618D01*
Y944539D01*
X1062617Y942000D01*
X1057539D01*
X1055000Y944539D01*
X1070235Y942000D02*
Y944539D01*
X1072774D01*
Y942000D01*
X1070235D01*
X1098166D02*
Y957235D01*
X1105784D01*
X1108323Y954696D01*
Y949618D01*
X1105784Y947078D01*
X1098166D01*
X1113401Y942000D02*
Y952157D01*
X1118479Y957235D01*
X1123558Y952157D01*
Y942000D01*
Y949618D01*
X1113401D01*
X1128636Y942000D02*
Y957235D01*
X1138793Y942000D01*
Y957235D01*
X1154028D02*
X1143871D01*
Y942000D01*
X1154028D01*
X1143871Y949618D02*
X1148950D01*
X1159106Y957235D02*
Y942000D01*
X1169263D01*
X1174341Y957235D02*
X1179420D01*
X1176881D01*
Y942000D01*
X1174341D01*
X1179420D01*
X1187037Y957235D02*
X1197194D01*
Y954696D01*
X1187037Y944539D01*
Y942000D01*
X1197194D01*
X1212429Y957235D02*
X1202272D01*
Y942000D01*
X1212429D01*
X1202272Y949618D02*
X1207351D01*
X1232742Y957235D02*
X1242899D01*
X1237821D01*
Y942000D01*
X1247978Y957235D02*
Y942000D01*
Y949618D01*
X1258134D01*
Y957235D01*
Y942000D01*
X1273369Y957235D02*
X1263213D01*
Y942000D01*
X1273369D01*
X1263213Y949618D02*
X1268291D01*
X1293683Y957235D02*
Y942000D01*
X1301300D01*
X1303840Y944539D01*
Y947078D01*
X1301300Y949618D01*
X1293683D01*
X1301300D01*
X1303840Y952157D01*
Y954696D01*
X1301300Y957235D01*
X1293683D01*
X1316535D02*
X1311457D01*
X1308918Y954696D01*
Y944539D01*
X1311457Y942000D01*
X1316535D01*
X1319075Y944539D01*
Y954696D01*
X1316535Y957235D01*
X1324153Y942000D02*
Y952157D01*
X1329231Y957235D01*
X1334310Y952157D01*
Y942000D01*
Y949618D01*
X1324153D01*
X1339388Y942000D02*
Y957235D01*
X1347005D01*
X1349545Y954696D01*
Y949618D01*
X1347005Y947078D01*
X1339388D01*
X1344466D02*
X1349545Y942000D01*
X1354623Y957235D02*
Y942000D01*
X1362241D01*
X1364780Y944539D01*
Y954696D01*
X1362241Y957235D01*
X1354623D01*
X1390172Y942000D02*
X1385093Y947078D01*
Y952157D01*
X1390172Y957235D01*
X1405407Y942000D02*
Y957235D01*
X1397789Y949618D01*
X1407946D01*
X1413024Y942000D02*
Y957235D01*
X1420642D01*
X1423181Y954696D01*
Y949618D01*
X1420642Y947078D01*
X1413024D01*
X1438416Y954696D02*
X1435877Y957235D01*
X1430798D01*
X1428259Y954696D01*
Y944539D01*
X1430798Y942000D01*
X1435877D01*
X1438416Y944539D01*
X1453651Y954696D02*
X1451112Y957235D01*
X1446033D01*
X1443494Y954696D01*
Y952157D01*
X1446033Y949618D01*
X1451112D01*
X1453651Y947078D01*
Y944539D01*
X1451112Y942000D01*
X1446033D01*
X1443494Y944539D01*
X1473965Y942000D02*
Y957235D01*
X1481582D01*
X1484121Y954696D01*
Y949618D01*
X1481582Y947078D01*
X1473965D01*
X1499356Y957235D02*
X1489200D01*
Y942000D01*
X1499356D01*
X1489200Y949618D02*
X1494278D01*
X1504435Y942000D02*
Y957235D01*
X1512052D01*
X1514591Y954696D01*
Y949618D01*
X1512052Y947078D01*
X1504435D01*
X1509513D02*
X1514591Y942000D01*
X1534905D02*
Y957235D01*
X1542522D01*
X1545061Y954696D01*
Y949618D01*
X1542522Y947078D01*
X1534905D01*
X1550140Y942000D02*
Y952157D01*
X1555218Y957235D01*
X1560296Y952157D01*
Y942000D01*
Y949618D01*
X1550140D01*
X1565375Y942000D02*
Y957235D01*
X1575532Y942000D01*
Y957235D01*
X1590767D02*
X1580610D01*
Y942000D01*
X1590767D01*
X1580610Y949618D02*
X1585688D01*
X1595845Y957235D02*
Y942000D01*
X1606002D01*
X1611080D02*
X1616158Y947078D01*
Y952157D01*
X1611080Y957235D01*
X1623776Y942000D02*
Y944539D01*
X1626315D01*
Y942000D01*
X1623776D01*
X1651707D02*
Y957235D01*
X1659324D01*
X1661864Y954696D01*
Y949618D01*
X1659324Y947078D01*
X1651707D01*
X1666942Y957235D02*
Y942000D01*
X1677099D01*
X1682177D02*
Y952157D01*
X1687256Y957235D01*
X1692334Y952157D01*
Y942000D01*
Y949618D01*
X1682177D01*
X1707569Y954696D02*
X1705030Y957235D01*
X1699951D01*
X1697412Y954696D01*
Y944539D01*
X1699951Y942000D01*
X1705030D01*
X1707569Y944539D01*
X1722804Y957235D02*
X1712647D01*
Y942000D01*
X1722804D01*
X1712647Y949618D02*
X1717726D01*
X1753274Y957235D02*
X1743117D01*
Y949618D01*
X1748196D01*
X1743117D01*
Y942000D01*
X1758353Y957235D02*
X1763431D01*
X1760892D01*
Y942000D01*
X1758353D01*
X1763431D01*
X1771048Y957235D02*
Y942000D01*
X1778666D01*
X1781205Y944539D01*
Y954696D01*
X1778666Y957235D01*
X1771048D01*
X1786283D02*
Y944539D01*
X1788823Y942000D01*
X1793901D01*
X1796440Y944539D01*
Y957235D01*
X1811675Y954696D02*
X1809136Y957235D01*
X1804058D01*
X1801519Y954696D01*
Y944539D01*
X1804058Y942000D01*
X1809136D01*
X1811675Y944539D01*
X1816754Y957235D02*
X1821832D01*
X1819293D01*
Y942000D01*
X1816754D01*
X1821832D01*
X1829449D02*
Y952157D01*
X1834528Y957235D01*
X1839606Y952157D01*
Y942000D01*
Y949618D01*
X1829449D01*
X1844684Y957235D02*
Y942000D01*
X1854841D01*
X1870076Y954696D02*
X1867537Y957235D01*
X1862459D01*
X1859920Y954696D01*
Y952157D01*
X1862459Y949618D01*
X1867537D01*
X1870076Y947078D01*
Y944539D01*
X1867537Y942000D01*
X1862459D01*
X1859920Y944539D01*
X1898007Y957235D02*
X1892929D01*
X1890390Y954696D01*
Y944539D01*
X1892929Y942000D01*
X1898007D01*
X1900547Y944539D01*
Y954696D01*
X1898007Y957235D01*
X1905625Y942000D02*
Y957235D01*
X1915782Y942000D01*
Y957235D01*
X1936095D02*
X1946252D01*
X1941173D01*
Y942000D01*
X1951330Y957235D02*
Y942000D01*
Y949618D01*
X1961487D01*
Y957235D01*
Y942000D01*
X1976722Y957235D02*
X1966565D01*
Y942000D01*
X1976722D01*
X1966565Y949618D02*
X1971644D01*
X1997035Y942000D02*
Y957235D01*
X2004653D01*
X2007192Y954696D01*
Y949618D01*
X2004653Y947078D01*
X1997035D01*
X2012270Y942000D02*
Y952157D01*
X2017349Y957235D01*
X2022427Y952157D01*
Y942000D01*
Y949618D01*
X2012270D01*
X2027505Y942000D02*
Y957235D01*
X2037662Y942000D01*
Y957235D01*
X2052897D02*
X2042740D01*
Y942000D01*
X2052897D01*
X2042740Y949618D02*
X2047819D01*
X2057975Y957235D02*
Y942000D01*
X2068132D01*
X2098602Y954696D02*
X2096063Y957235D01*
X2090985D01*
X2088446Y954696D01*
Y952157D01*
X2090985Y949618D01*
X2096063D01*
X2098602Y947078D01*
Y944539D01*
X2096063Y942000D01*
X2090985D01*
X2088446Y944539D01*
X2103681Y957235D02*
X2113837D01*
X2108759D01*
Y942000D01*
X2118916D02*
Y957235D01*
X2126533D01*
X2129073Y954696D01*
Y949618D01*
X2126533Y947078D01*
X2118916D01*
X2123994D02*
X2129073Y942000D01*
X2134151Y957235D02*
X2139229D01*
X2136690D01*
Y942000D01*
X2134151D01*
X2139229D01*
X2146847D02*
Y957235D01*
X2154464D01*
X2157003Y954696D01*
Y949618D01*
X2154464Y947078D01*
X2146847D01*
X2172239Y954696D02*
X2169699Y957235D01*
X2164621D01*
X2162082Y954696D01*
Y952157D01*
X2164621Y949618D01*
X2169699D01*
X2172239Y947078D01*
Y944539D01*
X2169699Y942000D01*
X2164621D01*
X2162082Y944539D01*
X2192552Y942000D02*
Y952157D01*
X2197630Y957235D01*
X2202709Y952157D01*
Y942000D01*
Y949618D01*
X2192552D01*
X2217944Y954696D02*
X2215405Y957235D01*
X2210326D01*
X2207787Y954696D01*
Y952157D01*
X2210326Y949618D01*
X2215405D01*
X2217944Y947078D01*
Y944539D01*
X2215405Y942000D01*
X2210326D01*
X2207787Y944539D01*
X2248414Y957235D02*
X2238257D01*
Y949618D01*
X2243336D01*
X2238257D01*
Y942000D01*
X2261110Y957235D02*
X2256031D01*
X2253492Y954696D01*
Y944539D01*
X2256031Y942000D01*
X2261110D01*
X2263649Y944539D01*
Y954696D01*
X2261110Y957235D01*
X2268727D02*
Y942000D01*
X2278884D01*
X2283962Y957235D02*
Y942000D01*
X2294119D01*
X2306815Y957235D02*
X2301737D01*
X2299198Y954696D01*
Y944539D01*
X2301737Y942000D01*
X2306815D01*
X2309354Y944539D01*
Y954696D01*
X2306815Y957235D01*
X2314433D02*
Y942000D01*
X2319511Y947078D01*
X2324589Y942000D01*
Y957235D01*
X2339824Y954696D02*
X2337285Y957235D01*
X2332207D01*
X2329668Y954696D01*
Y952157D01*
X2332207Y949618D01*
X2337285D01*
X2339824Y947078D01*
Y944539D01*
X2337285Y942000D01*
X2332207D01*
X2329668Y944539D01*
X2344903Y952157D02*
X2347442D01*
Y949618D01*
X2344903D01*
Y952157D01*
Y944539D02*
X2347442D01*
Y942000D01*
X2344903D01*
Y944539D01*
X1105000Y924618D02*
X1115157D01*
X1145627Y932235D02*
X1135470D01*
Y924618D01*
X1140548D01*
X1135470D01*
Y917000D01*
X1150705Y932235D02*
X1155783D01*
X1153244D01*
Y917000D01*
X1150705D01*
X1155783D01*
X1163401Y932235D02*
Y917000D01*
X1171019D01*
X1173558Y919539D01*
Y929696D01*
X1171019Y932235D01*
X1163401D01*
X1178636D02*
Y919539D01*
X1181175Y917000D01*
X1186254D01*
X1188793Y919539D01*
Y932235D01*
X1204028Y929696D02*
X1201489Y932235D01*
X1196410D01*
X1193871Y929696D01*
Y919539D01*
X1196410Y917000D01*
X1201489D01*
X1204028Y919539D01*
X1209106Y932235D02*
X1214185D01*
X1211646D01*
Y917000D01*
X1209106D01*
X1214185D01*
X1221802D02*
Y927157D01*
X1226880Y932235D01*
X1231959Y927157D01*
Y917000D01*
Y924618D01*
X1221802D01*
X1237037Y932235D02*
Y917000D01*
X1247194D01*
X1267507Y932235D02*
Y917000D01*
X1275125D01*
X1277664Y919539D01*
Y929696D01*
X1275125Y932235D01*
X1267507D01*
X1282742D02*
X1287821D01*
X1285282D01*
Y917000D01*
X1282742D01*
X1287821D01*
X1295438D02*
Y927157D01*
X1300517Y932235D01*
X1305595Y927157D01*
Y917000D01*
Y924618D01*
X1295438D01*
X1310673Y917000D02*
Y932235D01*
X1315752Y927157D01*
X1320830Y932235D01*
Y917000D01*
X1325909Y932235D02*
X1336065D01*
X1330987D01*
Y917000D01*
X1351300Y932235D02*
X1341144D01*
Y917000D01*
X1351300D01*
X1341144Y924618D02*
X1346222D01*
X1356379Y917000D02*
Y932235D01*
X1363996D01*
X1366535Y929696D01*
Y924618D01*
X1363996Y922078D01*
X1356379D01*
X1361457D02*
X1366535Y917000D01*
X1386849Y929696D02*
X1389388Y932235D01*
X1394466D01*
X1397005Y929696D01*
Y927157D01*
X1394466Y924618D01*
X1391927D01*
X1394466D01*
X1397005Y922078D01*
Y919539D01*
X1394466Y917000D01*
X1389388D01*
X1386849Y919539D01*
X1402084Y924618D02*
X1412241D01*
X1417319Y929696D02*
X1419858Y932235D01*
X1424937D01*
X1427476Y929696D01*
Y927157D01*
X1424937Y924618D01*
X1422397D01*
X1424937D01*
X1427476Y922078D01*
Y919539D01*
X1424937Y917000D01*
X1419858D01*
X1417319Y919539D01*
X1432554Y917000D02*
Y919539D01*
X1435093D01*
Y917000D01*
X1432554D01*
X1455407Y932235D02*
X1445250D01*
Y924618D01*
X1450328Y927157D01*
X1452867D01*
X1455407Y924618D01*
Y919539D01*
X1452867Y917000D01*
X1447789D01*
X1445250Y919539D01*
X1460485Y917000D02*
Y932235D01*
X1465563Y927157D01*
X1470642Y932235D01*
Y917000D01*
X1475720D02*
Y932235D01*
X1480798Y927157D01*
X1485877Y932235D01*
Y917000D01*
X1493494Y914461D02*
X1496033Y917000D01*
Y919539D01*
X1493494D01*
Y917000D01*
X1496033D01*
X1493494Y914461D01*
X1490955Y911922D01*
X1531582Y929696D02*
X1529043Y932235D01*
X1523964D01*
X1521425Y929696D01*
Y927157D01*
X1523964Y924618D01*
X1529043D01*
X1531582Y922078D01*
Y919539D01*
X1529043Y917000D01*
X1523964D01*
X1521425Y919539D01*
X1544278Y932235D02*
X1539200D01*
X1536660Y929696D01*
Y919539D01*
X1539200Y917000D01*
X1544278D01*
X1546817Y919539D01*
Y929696D01*
X1544278Y932235D01*
X1551895D02*
Y917000D01*
X1562052D01*
X1567130Y932235D02*
Y917000D01*
X1574748D01*
X1577287Y919539D01*
Y929696D01*
X1574748Y932235D01*
X1567130D01*
X1592522D02*
X1582366D01*
Y917000D01*
X1592522D01*
X1582366Y924618D02*
X1587444D01*
X1597601Y917000D02*
Y932235D01*
X1605218D01*
X1607757Y929696D01*
Y924618D01*
X1605218Y922078D01*
X1597601D01*
X1602679D02*
X1607757Y917000D01*
X1628071D02*
Y932235D01*
X1633149Y927157D01*
X1638228Y932235D01*
Y917000D01*
X1643306D02*
Y927157D01*
X1648384Y932235D01*
X1653463Y927157D01*
Y917000D01*
Y924618D01*
X1643306D01*
X1668698Y929696D02*
X1666158Y932235D01*
X1661080D01*
X1658541Y929696D01*
Y927157D01*
X1661080Y924618D01*
X1666158D01*
X1668698Y922078D01*
Y919539D01*
X1666158Y917000D01*
X1661080D01*
X1658541Y919539D01*
X1673776Y932235D02*
Y917000D01*
Y922078D01*
X1683933Y932235D01*
X1676315Y924618D01*
X1683933Y917000D01*
X1711864Y932235D02*
X1706785D01*
X1704246Y929696D01*
Y919539D01*
X1706785Y917000D01*
X1711864D01*
X1714403Y919539D01*
Y929696D01*
X1711864Y932235D01*
X1719481Y917000D02*
Y932235D01*
X1727099D01*
X1729638Y929696D01*
Y924618D01*
X1727099Y922078D01*
X1719481D01*
X1744873Y932235D02*
X1734716D01*
Y917000D01*
X1744873D01*
X1734716Y924618D02*
X1739795D01*
X1749951Y917000D02*
Y932235D01*
X1760108Y917000D01*
Y932235D01*
X1765186D02*
X1770265D01*
X1767726D01*
Y917000D01*
X1765186D01*
X1770265D01*
X1777882D02*
Y932235D01*
X1788039Y917000D01*
Y932235D01*
X1803274Y929696D02*
X1800735Y932235D01*
X1795657D01*
X1793117Y929696D01*
Y919539D01*
X1795657Y917000D01*
X1800735D01*
X1803274Y919539D01*
Y924618D01*
X1798196D01*
X1823587Y917000D02*
Y927157D01*
X1828666Y932235D01*
X1833744Y927157D01*
Y917000D01*
Y924618D01*
X1823587D01*
X1838823Y932235D02*
X1848979D01*
X1843901D01*
Y917000D01*
X1869293Y932235D02*
Y917000D01*
X1879449D01*
X1894684Y932235D02*
X1884528D01*
Y917000D01*
X1894684D01*
X1884528Y924618D02*
X1889606D01*
X1899763Y917000D02*
Y927157D01*
X1904841Y932235D01*
X1909920Y927157D01*
Y917000D01*
Y924618D01*
X1899763D01*
X1925155Y929696D02*
X1922616Y932235D01*
X1917537D01*
X1914998Y929696D01*
Y927157D01*
X1917537Y924618D01*
X1922616D01*
X1925155Y922078D01*
Y919539D01*
X1922616Y917000D01*
X1917537D01*
X1914998Y919539D01*
X1930233Y932235D02*
X1940390D01*
X1935311D01*
Y917000D01*
X1960703Y929696D02*
X1963242Y932235D01*
X1968321D01*
X1970860Y929696D01*
Y927157D01*
X1968321Y924618D01*
X1965782D01*
X1968321D01*
X1970860Y922078D01*
Y919539D01*
X1968321Y917000D01*
X1963242D01*
X1960703Y919539D01*
X1975938Y917000D02*
Y932235D01*
X1981017Y927157D01*
X1986095Y932235D01*
Y917000D01*
X1991173D02*
Y932235D01*
X1996252Y927157D01*
X2001330Y932235D01*
Y917000D01*
X2031800Y929696D02*
X2029261Y932235D01*
X2024183D01*
X2021644Y929696D01*
Y919539D01*
X2024183Y917000D01*
X2029261D01*
X2031800Y919539D01*
Y924618D01*
X2026722D01*
X2036879Y917000D02*
Y932235D01*
X2044496D01*
X2047035Y929696D01*
Y924618D01*
X2044496Y922078D01*
X2036879D01*
X2041957D02*
X2047035Y917000D01*
X2062270Y932235D02*
X2052114D01*
Y917000D01*
X2062270D01*
X2052114Y924618D02*
X2057192D01*
X2067349Y917000D02*
Y927157D01*
X2072427Y932235D01*
X2077505Y927157D01*
Y917000D01*
Y924618D01*
X2067349D01*
X2082584Y932235D02*
X2092740D01*
X2087662D01*
Y917000D01*
X2107975Y932235D02*
X2097819D01*
Y917000D01*
X2107975D01*
X2097819Y924618D02*
X2102897D01*
X2113054Y917000D02*
Y932235D01*
X2120671D01*
X2123211Y929696D01*
Y924618D01*
X2120671Y922078D01*
X2113054D01*
X2118132D02*
X2123211Y917000D01*
X2143524Y932235D02*
X2153681D01*
X2148602D01*
Y917000D01*
X2158759Y932235D02*
Y917000D01*
Y924618D01*
X2168916D01*
Y932235D01*
Y917000D01*
X2173994D02*
Y927157D01*
X2179073Y932235D01*
X2184151Y927157D01*
Y917000D01*
Y924618D01*
X2173994D01*
X2189229Y917000D02*
Y932235D01*
X2199386Y917000D01*
Y932235D01*
X2229856D02*
X2219699D01*
Y924618D01*
X2224778D01*
X2219699D01*
Y917000D01*
X2234935Y932235D02*
X2240013D01*
X2237474D01*
Y917000D01*
X2234935D01*
X2240013D01*
X2247630Y932235D02*
Y917000D01*
X2255248D01*
X2257787Y919539D01*
Y929696D01*
X2255248Y932235D01*
X2247630D01*
X2262865D02*
Y919539D01*
X2265405Y917000D01*
X2270483D01*
X2273022Y919539D01*
Y932235D01*
X2288257Y929696D02*
X2285718Y932235D01*
X2280640D01*
X2278100Y929696D01*
Y919539D01*
X2280640Y917000D01*
X2285718D01*
X2288257Y919539D01*
X2293336Y932235D02*
X2298414D01*
X2295875D01*
Y917000D01*
X2293336D01*
X2298414D01*
X2306031D02*
Y927157D01*
X2311110Y932235D01*
X2316188Y927157D01*
Y917000D01*
Y924618D01*
X2306031D01*
X2321266Y932235D02*
Y917000D01*
X2331423D01*
X1105000Y899618D02*
X1115157D01*
X1135470Y892000D02*
Y907235D01*
X1140548Y902157D01*
X1145627Y907235D01*
Y892000D01*
X1150705Y907235D02*
X1155783D01*
X1153244D01*
Y892000D01*
X1150705D01*
X1155783D01*
X1163401D02*
Y907235D01*
X1173558Y892000D01*
Y907235D01*
X1178636D02*
X1183715D01*
X1181175D01*
Y892000D01*
X1178636D01*
X1183715D01*
X1191332D02*
Y907235D01*
X1196410Y902157D01*
X1201489Y907235D01*
Y892000D01*
X1206567Y907235D02*
Y894539D01*
X1209106Y892000D01*
X1214185D01*
X1216724Y894539D01*
Y907235D01*
X1221802Y892000D02*
Y907235D01*
X1226880Y902157D01*
X1231959Y907235D01*
Y892000D01*
X1252272Y904696D02*
X1254811Y907235D01*
X1259890D01*
X1262429Y904696D01*
Y902157D01*
X1259890Y899618D01*
X1257351D01*
X1259890D01*
X1262429Y897078D01*
Y894539D01*
X1259890Y892000D01*
X1254811D01*
X1252272Y894539D01*
X1267507Y892000D02*
Y907235D01*
X1272586Y902157D01*
X1277664Y907235D01*
Y892000D01*
X1282742D02*
Y907235D01*
X1287821Y902157D01*
X1292899Y907235D01*
Y892000D01*
X1313213Y907235D02*
Y892000D01*
X1320830D01*
X1323369Y894539D01*
Y904696D01*
X1320830Y907235D01*
X1313213D01*
X1328448D02*
X1333526D01*
X1330987D01*
Y892000D01*
X1328448D01*
X1333526D01*
X1351300Y904696D02*
X1348761Y907235D01*
X1343683D01*
X1341144Y904696D01*
Y902157D01*
X1343683Y899618D01*
X1348761D01*
X1351300Y897078D01*
Y894539D01*
X1348761Y892000D01*
X1343683D01*
X1341144Y894539D01*
X1356379Y907235D02*
X1366535D01*
X1361457D01*
Y892000D01*
X1371614D02*
Y902157D01*
X1376692Y907235D01*
X1381770Y902157D01*
Y892000D01*
Y899618D01*
X1371614D01*
X1386849Y892000D02*
Y907235D01*
X1397005Y892000D01*
Y907235D01*
X1412241Y904696D02*
X1409701Y907235D01*
X1404623D01*
X1402084Y904696D01*
Y894539D01*
X1404623Y892000D01*
X1409701D01*
X1412241Y894539D01*
X1427476Y907235D02*
X1417319D01*
Y892000D01*
X1427476D01*
X1417319Y899618D02*
X1422397D01*
X1457946Y907235D02*
X1447789D01*
Y899618D01*
X1452867D01*
X1447789D01*
Y892000D01*
X1463024D02*
Y907235D01*
X1470642D01*
X1473181Y904696D01*
Y899618D01*
X1470642Y897078D01*
X1463024D01*
X1468103D02*
X1473181Y892000D01*
X1485877Y907235D02*
X1480798D01*
X1478259Y904696D01*
Y894539D01*
X1480798Y892000D01*
X1485877D01*
X1488416Y894539D01*
Y904696D01*
X1485877Y907235D01*
X1493494Y892000D02*
Y907235D01*
X1498573Y902157D01*
X1503651Y907235D01*
Y892000D01*
X1523964Y907235D02*
X1534121D01*
X1529043D01*
Y892000D01*
X1539200Y907235D02*
Y892000D01*
Y899618D01*
X1549356D01*
Y907235D01*
Y892000D01*
X1564591Y907235D02*
X1554435D01*
Y892000D01*
X1564591D01*
X1554435Y899618D02*
X1559513D01*
X1584905Y892000D02*
Y907235D01*
X1592522D01*
X1595061Y904696D01*
Y899618D01*
X1592522Y897078D01*
X1584905D01*
X1600140Y892000D02*
Y902157D01*
X1605218Y907235D01*
X1610296Y902157D01*
Y892000D01*
Y899618D01*
X1600140D01*
X1615375Y892000D02*
Y907235D01*
X1625532Y892000D01*
Y907235D01*
X1640767D02*
X1630610D01*
Y892000D01*
X1640767D01*
X1630610Y899618D02*
X1635688D01*
X1645845Y907235D02*
Y892000D01*
X1656002D01*
X1686472Y907235D02*
X1676315D01*
Y892000D01*
X1686472D01*
X1676315Y899618D02*
X1681393D01*
X1691550Y907235D02*
Y892000D01*
X1699168D01*
X1701707Y894539D01*
Y904696D01*
X1699168Y907235D01*
X1691550D01*
X1716942Y904696D02*
X1714403Y907235D01*
X1709324D01*
X1706785Y904696D01*
Y894539D01*
X1709324Y892000D01*
X1714403D01*
X1716942Y894539D01*
Y899618D01*
X1711864D01*
X1732177Y907235D02*
X1722020D01*
Y892000D01*
X1732177D01*
X1722020Y899618D02*
X1727099D01*
X1105000Y874618D02*
X1115157D01*
X1135470Y867000D02*
Y882235D01*
X1143088D01*
X1145627Y879696D01*
Y874618D01*
X1143088Y872078D01*
X1135470D01*
X1150705Y882235D02*
Y867000D01*
X1160862D01*
X1165940D02*
Y877157D01*
X1171019Y882235D01*
X1176097Y877157D01*
Y867000D01*
Y874618D01*
X1165940D01*
X1191332Y879696D02*
X1188793Y882235D01*
X1183715D01*
X1181175Y879696D01*
Y869539D01*
X1183715Y867000D01*
X1188793D01*
X1191332Y869539D01*
X1206567Y882235D02*
X1196410D01*
Y867000D01*
X1206567D01*
X1196410Y874618D02*
X1201489D01*
X1234498Y867000D02*
Y882235D01*
X1226881Y874618D01*
X1237037D01*
X1267507Y882235D02*
X1257351D01*
Y874618D01*
X1262429D01*
X1257351D01*
Y867000D01*
X1272586Y882235D02*
X1277664D01*
X1275125D01*
Y867000D01*
X1272586D01*
X1277664D01*
X1285282Y882235D02*
Y867000D01*
X1292899D01*
X1295438Y869539D01*
Y879696D01*
X1292899Y882235D01*
X1285282D01*
X1300517D02*
Y869539D01*
X1303056Y867000D01*
X1308134D01*
X1310674Y869539D01*
Y882235D01*
X1325909Y879696D02*
X1323369Y882235D01*
X1318291D01*
X1315752Y879696D01*
Y869539D01*
X1318291Y867000D01*
X1323369D01*
X1325909Y869539D01*
X1330987Y882235D02*
X1336065D01*
X1333526D01*
Y867000D01*
X1330987D01*
X1336065D01*
X1343683D02*
Y877157D01*
X1348761Y882235D01*
X1353840Y877157D01*
Y867000D01*
Y874618D01*
X1343683D01*
X1358918Y882235D02*
Y867000D01*
X1369075D01*
X1389388Y882235D02*
X1394466D01*
X1391927D01*
Y867000D01*
X1389388D01*
X1394466D01*
X1402084D02*
Y882235D01*
X1412241Y867000D01*
Y882235D01*
X1417319D02*
X1427476D01*
X1422397D01*
Y867000D01*
X1440172Y882235D02*
X1435093D01*
X1432554Y879696D01*
Y869539D01*
X1435093Y867000D01*
X1440172D01*
X1442711Y869539D01*
Y879696D01*
X1440172Y882235D01*
X1473181D02*
X1463024D01*
Y867000D01*
X1473181D01*
X1463024Y874618D02*
X1468103D01*
X1478259Y867000D02*
Y877157D01*
X1483338Y882235D01*
X1488416Y877157D01*
Y867000D01*
Y874618D01*
X1478259D01*
X1503651Y879696D02*
X1501112Y882235D01*
X1496033D01*
X1493494Y879696D01*
Y869539D01*
X1496033Y867000D01*
X1501112D01*
X1503651Y869539D01*
X1508729Y882235D02*
Y867000D01*
Y874618D01*
X1518886D01*
Y882235D01*
Y867000D01*
X1539200D02*
Y882235D01*
X1546817D01*
X1549356Y879696D01*
Y874618D01*
X1546817Y872078D01*
X1539200D01*
X1554435Y867000D02*
Y877157D01*
X1559513Y882235D01*
X1564591Y877157D01*
Y867000D01*
Y874618D01*
X1554435D01*
X1569670Y867000D02*
Y882235D01*
X1579826Y867000D01*
Y882235D01*
X1595061D02*
X1584905D01*
Y867000D01*
X1595061D01*
X1584905Y874618D02*
X1589983D01*
X1600140Y882235D02*
Y867000D01*
X1610296D01*
X1640767Y879696D02*
X1638228Y882235D01*
X1633149D01*
X1630610Y879696D01*
Y869539D01*
X1633149Y867000D01*
X1638228D01*
X1640767Y869539D01*
X1653463Y882235D02*
X1648384D01*
X1645845Y879696D01*
Y869539D01*
X1648384Y867000D01*
X1653463D01*
X1656002Y869539D01*
Y879696D01*
X1653463Y882235D01*
X1661080Y867000D02*
Y882235D01*
X1668698D01*
X1671237Y879696D01*
Y874618D01*
X1668698Y872078D01*
X1661080D01*
X1666158D02*
X1671237Y867000D01*
X1676315D02*
Y882235D01*
X1686472Y867000D01*
Y882235D01*
X1701707D02*
X1691550D01*
Y867000D01*
X1701707D01*
X1691550Y874618D02*
X1696629D01*
X1706785Y867000D02*
Y882235D01*
X1714403D01*
X1716942Y879696D01*
Y874618D01*
X1714403Y872078D01*
X1706785D01*
X1711864D02*
X1716942Y867000D01*
X1742334D02*
X1737256Y872078D01*
Y877157D01*
X1742334Y882235D01*
X1760108D02*
X1749951D01*
Y874618D01*
X1755030D01*
X1749951D01*
Y867000D01*
X1772804Y882235D02*
X1767726D01*
X1765186Y879696D01*
Y869539D01*
X1767726Y867000D01*
X1772804D01*
X1775343Y869539D01*
Y879696D01*
X1772804Y882235D01*
X1780421D02*
Y869539D01*
X1782961Y867000D01*
X1788039D01*
X1790578Y869539D01*
Y882235D01*
X1795657Y867000D02*
Y882235D01*
X1803274D01*
X1805813Y879696D01*
Y874618D01*
X1803274Y872078D01*
X1795657D01*
X1800735D02*
X1805813Y867000D01*
X1833744Y882235D02*
X1828666D01*
X1826127Y879696D01*
Y869539D01*
X1828666Y867000D01*
X1833744D01*
X1836283Y869539D01*
Y879696D01*
X1833744Y882235D01*
X1841362Y867000D02*
Y882235D01*
X1851519Y867000D01*
Y882235D01*
X1871832D02*
X1881989D01*
X1876910D01*
Y867000D01*
X1887067Y882235D02*
Y867000D01*
Y874618D01*
X1897224D01*
Y882235D01*
Y867000D01*
X1912459Y882235D02*
X1902302D01*
Y867000D01*
X1912459D01*
X1902302Y874618D02*
X1907380D01*
X1932772Y882235D02*
X1942929D01*
X1937851D01*
Y867000D01*
X1955625Y882235D02*
X1950547D01*
X1948007Y879696D01*
Y869539D01*
X1950547Y867000D01*
X1955625D01*
X1958164Y869539D01*
Y879696D01*
X1955625Y882235D01*
X1963242Y867000D02*
Y882235D01*
X1970860D01*
X1973399Y879696D01*
Y874618D01*
X1970860Y872078D01*
X1963242D01*
X1993712Y882235D02*
Y867000D01*
X2003869D01*
X2008948D02*
Y877157D01*
X2014026Y882235D01*
X2019104Y877157D01*
Y867000D01*
Y874618D01*
X2008948D01*
X2024183Y882235D02*
Y879696D01*
X2029261Y874618D01*
X2034339Y879696D01*
Y882235D01*
X2029261Y874618D02*
Y867000D01*
X2049574Y882235D02*
X2039418D01*
Y867000D01*
X2049574D01*
X2039418Y874618D02*
X2044496D01*
X2054653Y867000D02*
Y882235D01*
X2062270D01*
X2064810Y879696D01*
Y874618D01*
X2062270Y872078D01*
X2054653D01*
X2059731D02*
X2064810Y867000D01*
X2069888D02*
X2074966Y872078D01*
Y877157D01*
X2069888Y882235D01*
X298000Y1001696D02*
X308157Y991539D01*
X298000D02*
X308157Y1001696D01*
X298000Y996618D02*
X308157D01*
X303078Y991539D02*
Y1001696D01*
X313235Y989000D02*
Y991539D01*
X315774D01*
Y989000D01*
X313235D01*
X336088Y1001696D02*
X333549Y1004235D01*
X328470D01*
X325931Y1001696D01*
Y991539D01*
X328470Y989000D01*
X333549D01*
X336088Y991539D01*
Y996618D01*
X331009D01*
X341166Y989000D02*
Y1004235D01*
X346244Y999157D01*
X351323Y1004235D01*
Y989000D01*
X366558D02*
X356401D01*
X366558Y999157D01*
Y1001696D01*
X364019Y1004235D01*
X358940D01*
X356401Y1001696D01*
X371636D02*
X374175Y1004235D01*
X379254D01*
X381793Y1001696D01*
Y999157D01*
X379254Y996618D01*
X381793Y994078D01*
Y991539D01*
X379254Y989000D01*
X374175D01*
X371636Y991539D01*
Y994078D01*
X374175Y996618D01*
X371636Y999157D01*
Y1001696D01*
X374175Y996618D02*
X379254D01*
X402106D02*
X412263D01*
X432576Y1004235D02*
Y989000D01*
X440194D01*
X442733Y991539D01*
Y994078D01*
X440194Y996618D01*
X432576D01*
X440194D01*
X442733Y999157D01*
Y1001696D01*
X440194Y1004235D01*
X432576D01*
X450351Y989000D02*
X455429D01*
X457968Y991539D01*
Y996618D01*
X455429Y999157D01*
X450351D01*
X447812Y996618D01*
Y991539D01*
X450351Y989000D01*
X465586Y999157D02*
X470664D01*
X473203Y996618D01*
Y989000D01*
X465586D01*
X463047Y991539D01*
X465586Y994078D01*
X473203D01*
X478282Y999157D02*
Y989000D01*
Y994078D01*
X480821Y996618D01*
X483360Y999157D01*
X485899D01*
X503674Y1004235D02*
Y989000D01*
X496056D01*
X493517Y991539D01*
Y996618D01*
X496056Y999157D01*
X503674D01*
X531604Y1004235D02*
X526526D01*
X523987Y1001696D01*
Y991539D01*
X526526Y989000D01*
X531604D01*
X534144Y991539D01*
Y1001696D01*
X531604Y1004235D01*
X539222Y999157D02*
Y991539D01*
X541761Y989000D01*
X549379D01*
Y999157D01*
X556996Y1001696D02*
Y999157D01*
X554457D01*
X559535D01*
X556996D01*
Y991539D01*
X559535Y989000D01*
X567153D02*
X572231D01*
X569692D01*
Y1004235D01*
X567153D01*
X579849Y989000D02*
X584927D01*
X582388D01*
Y999157D01*
X579849D01*
X592545Y989000D02*
Y999157D01*
X600162D01*
X602701Y996618D01*
Y989000D01*
X615397D02*
X610319D01*
X607780Y991539D01*
Y996618D01*
X610319Y999157D01*
X615397D01*
X617937Y996618D01*
Y994078D01*
X607780D01*
X308157Y1279235D02*
X298000D01*
Y1271618D01*
X303078D01*
X298000D01*
Y1264000D01*
X313235D02*
X318313D01*
X315774D01*
Y1274157D01*
X313235D01*
X325931Y1264000D02*
X331009D01*
X328470D01*
Y1279235D01*
X325931D01*
X346244Y1264000D02*
X341166D01*
X338627Y1266539D01*
Y1271618D01*
X341166Y1274157D01*
X346244D01*
X348784Y1271618D01*
Y1269078D01*
X338627D01*
X353862Y1264000D02*
X361479D01*
X364019Y1266539D01*
X361479Y1269078D01*
X356401D01*
X353862Y1271618D01*
X356401Y1274157D01*
X364019D01*
X298000Y1251696D02*
X308157Y1241539D01*
X298000D02*
X308157Y1251696D01*
X298000Y1246618D02*
X308157D01*
X303078Y1241539D02*
Y1251696D01*
X313235Y1239000D02*
Y1241539D01*
X315774D01*
Y1239000D01*
X313235D01*
X336088Y1251696D02*
X333549Y1254235D01*
X328470D01*
X325931Y1251696D01*
Y1241539D01*
X328470Y1239000D01*
X333549D01*
X336088Y1241539D01*
Y1246618D01*
X331009D01*
X341166Y1254235D02*
X351323D01*
X346244D01*
Y1239000D01*
X364019Y1254235D02*
X358940D01*
X356401Y1251696D01*
Y1241539D01*
X358940Y1239000D01*
X364019D01*
X366558Y1241539D01*
Y1251696D01*
X364019Y1254235D01*
X386871Y1246618D02*
X397028D01*
X417341Y1254235D02*
X427498D01*
X422420D01*
Y1239000D01*
X435116D02*
X440194D01*
X442733Y1241539D01*
Y1246618D01*
X440194Y1249157D01*
X435116D01*
X432576Y1246618D01*
Y1241539D01*
X435116Y1239000D01*
X447812Y1233922D02*
Y1249157D01*
X455429D01*
X457968Y1246618D01*
Y1241539D01*
X455429Y1239000D01*
X447812D01*
X485899Y1254235D02*
X480821D01*
X478282Y1251696D01*
Y1241539D01*
X480821Y1239000D01*
X485899D01*
X488438Y1241539D01*
Y1251696D01*
X485899Y1254235D01*
X493517Y1249157D02*
X498595Y1239000D01*
X503674Y1249157D01*
X516369Y1239000D02*
X511291D01*
X508752Y1241539D01*
Y1246618D01*
X511291Y1249157D01*
X516369D01*
X518909Y1246618D01*
Y1244078D01*
X508752D01*
X523987Y1249157D02*
Y1239000D01*
Y1244078D01*
X526526Y1246618D01*
X529065Y1249157D01*
X531604D01*
X539222Y1239000D02*
X544300D01*
X541761D01*
Y1254235D01*
X539222D01*
X554457Y1249157D02*
X559535D01*
X562075Y1246618D01*
Y1239000D01*
X554457D01*
X551918Y1241539D01*
X554457Y1244078D01*
X562075D01*
X567153Y1249157D02*
Y1241539D01*
X569692Y1239000D01*
X577310D01*
Y1236461D01*
X574771Y1233922D01*
X572231D01*
X577310Y1239000D02*
Y1249157D01*
X298000Y1226696D02*
X308157Y1216539D01*
X298000D02*
X308157Y1226696D01*
X298000Y1221618D02*
X308157D01*
X303078Y1216539D02*
Y1226696D01*
X313235Y1214000D02*
Y1216539D01*
X315774D01*
Y1214000D01*
X313235D01*
X336088Y1226696D02*
X333549Y1229235D01*
X328470D01*
X325931Y1226696D01*
Y1216539D01*
X328470Y1214000D01*
X333549D01*
X336088Y1216539D01*
Y1221618D01*
X331009D01*
X341166Y1229235D02*
X351323D01*
X346244D01*
Y1214000D01*
X356401D02*
Y1229235D01*
X364019D01*
X366558Y1226696D01*
Y1221618D01*
X364019Y1219078D01*
X356401D01*
X386871Y1221618D02*
X397028D01*
X417341Y1229235D02*
X427498D01*
X422420D01*
Y1214000D01*
X435116D02*
X440194D01*
X442733Y1216539D01*
Y1221618D01*
X440194Y1224157D01*
X435116D01*
X432576Y1221618D01*
Y1216539D01*
X435116Y1214000D01*
X447812Y1208922D02*
Y1224157D01*
X455429D01*
X457968Y1221618D01*
Y1216539D01*
X455429Y1214000D01*
X447812D01*
X478282D02*
Y1229235D01*
X485899D01*
X488438Y1226696D01*
Y1221618D01*
X485899Y1219078D01*
X478282D01*
X496056Y1224157D02*
X501134D01*
X503674Y1221618D01*
Y1214000D01*
X496056D01*
X493517Y1216539D01*
X496056Y1219078D01*
X503674D01*
X508752Y1214000D02*
X516369D01*
X518909Y1216539D01*
X516369Y1219078D01*
X511291D01*
X508752Y1221618D01*
X511291Y1224157D01*
X518909D01*
X526526Y1226696D02*
Y1224157D01*
X523987D01*
X529065D01*
X526526D01*
Y1216539D01*
X529065Y1214000D01*
X544300D02*
X539222D01*
X536683Y1216539D01*
Y1221618D01*
X539222Y1224157D01*
X544300D01*
X546839Y1221618D01*
Y1219078D01*
X536683D01*
X298000Y1201696D02*
X308157Y1191539D01*
X298000D02*
X308157Y1201696D01*
X298000Y1196618D02*
X308157D01*
X303078Y1191539D02*
Y1201696D01*
X313235Y1189000D02*
Y1191539D01*
X315774D01*
Y1189000D01*
X313235D01*
X336088Y1201696D02*
X333549Y1204235D01*
X328470D01*
X325931Y1201696D01*
Y1191539D01*
X328470Y1189000D01*
X333549D01*
X336088Y1191539D01*
Y1196618D01*
X331009D01*
X341166Y1204235D02*
X351323D01*
X346244D01*
Y1189000D01*
X366558Y1201696D02*
X364019Y1204235D01*
X358940D01*
X356401Y1201696D01*
Y1199157D01*
X358940Y1196618D01*
X364019D01*
X366558Y1194078D01*
Y1191539D01*
X364019Y1189000D01*
X358940D01*
X356401Y1191539D01*
X386871Y1196618D02*
X397028D01*
X417341Y1204235D02*
X427498D01*
X422420D01*
Y1189000D01*
X435116D02*
X440194D01*
X442733Y1191539D01*
Y1196618D01*
X440194Y1199157D01*
X435116D01*
X432576Y1196618D01*
Y1191539D01*
X435116Y1189000D01*
X447812Y1183922D02*
Y1199157D01*
X455429D01*
X457968Y1196618D01*
Y1191539D01*
X455429Y1189000D01*
X447812D01*
X488438Y1201696D02*
X485899Y1204235D01*
X480821D01*
X478282Y1201696D01*
Y1199157D01*
X480821Y1196618D01*
X485899D01*
X488438Y1194078D01*
Y1191539D01*
X485899Y1189000D01*
X480821D01*
X478282Y1191539D01*
X496056Y1189000D02*
X501134D01*
X503674Y1191539D01*
Y1196618D01*
X501134Y1199157D01*
X496056D01*
X493517Y1196618D01*
Y1191539D01*
X496056Y1189000D01*
X508752D02*
X513830D01*
X511291D01*
Y1204235D01*
X508752D01*
X531604D02*
Y1189000D01*
X523987D01*
X521448Y1191539D01*
Y1196618D01*
X523987Y1199157D01*
X531604D01*
X544300Y1189000D02*
X539222D01*
X536683Y1191539D01*
Y1196618D01*
X539222Y1199157D01*
X544300D01*
X546839Y1196618D01*
Y1194078D01*
X536683D01*
X551918Y1199157D02*
Y1189000D01*
Y1194078D01*
X554457Y1196618D01*
X556996Y1199157D01*
X559535D01*
X298000Y1176696D02*
X308157Y1166539D01*
X298000D02*
X308157Y1176696D01*
X298000Y1171618D02*
X308157D01*
X303078Y1166539D02*
Y1176696D01*
X313235Y1164000D02*
Y1166539D01*
X315774D01*
Y1164000D01*
X313235D01*
X336088Y1176696D02*
X333549Y1179235D01*
X328470D01*
X325931Y1176696D01*
Y1166539D01*
X328470Y1164000D01*
X333549D01*
X336088Y1166539D01*
Y1171618D01*
X331009D01*
X341166Y1179235D02*
X351323D01*
X346244D01*
Y1164000D01*
X356401Y1179235D02*
Y1164000D01*
X366558D01*
X386871Y1171618D02*
X397028D01*
X417341Y1179235D02*
Y1164000D01*
X427498D01*
X432576D02*
X437655D01*
X435116D01*
Y1179235D01*
X432576Y1176696D01*
X465586Y1164000D02*
X460507Y1169078D01*
Y1174157D01*
X465586Y1179235D01*
X473203Y1164000D02*
Y1179235D01*
X480821D01*
X483360Y1176696D01*
Y1171618D01*
X480821Y1169078D01*
X473203D01*
X490978Y1164000D02*
X496056D01*
X498595Y1166539D01*
Y1171618D01*
X496056Y1174157D01*
X490978D01*
X488438Y1171618D01*
Y1166539D01*
X490978Y1164000D01*
X503673D02*
X511291D01*
X513830Y1166539D01*
X511291Y1169078D01*
X506213D01*
X503673Y1171618D01*
X506213Y1174157D01*
X513830D01*
X518909Y1164000D02*
X523987D01*
X521448D01*
Y1174157D01*
X518909D01*
X534144Y1176696D02*
Y1174157D01*
X531604D01*
X536683D01*
X534144D01*
Y1166539D01*
X536683Y1164000D01*
X544300D02*
X549379D01*
X546839D01*
Y1174157D01*
X544300D01*
X556996D02*
X562075Y1164000D01*
X567153Y1174157D01*
X579849Y1164000D02*
X574770D01*
X572231Y1166539D01*
Y1171618D01*
X574770Y1174157D01*
X579849D01*
X582388Y1171618D01*
Y1169078D01*
X572231D01*
X587466Y1164000D02*
X592545Y1169078D01*
Y1174157D01*
X587466Y1179235D01*
X298000Y1151696D02*
X308157Y1141539D01*
X298000D02*
X308157Y1151696D01*
X298000Y1146618D02*
X308157D01*
X303078Y1141539D02*
Y1151696D01*
X313235Y1139000D02*
Y1141539D01*
X315774D01*
Y1139000D01*
X313235D01*
X336088Y1151696D02*
X333549Y1154235D01*
X328470D01*
X325931Y1151696D01*
Y1141539D01*
X328470Y1139000D01*
X333549D01*
X336088Y1141539D01*
Y1146618D01*
X331009D01*
X341166Y1154235D02*
Y1139000D01*
X348784D01*
X351323Y1141539D01*
Y1144078D01*
X348784Y1146618D01*
X341166D01*
X348784D01*
X351323Y1149157D01*
Y1151696D01*
X348784Y1154235D01*
X341166D01*
X356401D02*
Y1139000D01*
X366558D01*
X386871Y1146618D02*
X397028D01*
X417341Y1154235D02*
Y1139000D01*
X427498D01*
X442733D02*
X432576D01*
X442733Y1149157D01*
Y1151696D01*
X440194Y1154235D01*
X435116D01*
X432576Y1151696D01*
X468125Y1139000D02*
X463047Y1144078D01*
Y1149157D01*
X468125Y1154235D01*
X475742Y1139000D02*
Y1154235D01*
X483360D01*
X485899Y1151696D01*
Y1146618D01*
X483360Y1144078D01*
X475742D01*
X493517Y1139000D02*
X498595D01*
X501134Y1141539D01*
Y1146618D01*
X498595Y1149157D01*
X493517D01*
X490978Y1146618D01*
Y1141539D01*
X493517Y1139000D01*
X506213D02*
X513830D01*
X516369Y1141539D01*
X513830Y1144078D01*
X508752D01*
X506213Y1146618D01*
X508752Y1149157D01*
X516369D01*
X521448Y1139000D02*
X526526D01*
X523987D01*
Y1149157D01*
X521448D01*
X536683Y1151696D02*
Y1149157D01*
X534144D01*
X539222D01*
X536683D01*
Y1141539D01*
X539222Y1139000D01*
X546839D02*
X551918D01*
X549379D01*
Y1149157D01*
X546839D01*
X559535D02*
X564614Y1139000D01*
X569692Y1149157D01*
X582388Y1139000D02*
X577310D01*
X574770Y1141539D01*
Y1146618D01*
X577310Y1149157D01*
X582388D01*
X584927Y1146618D01*
Y1144078D01*
X574770D01*
X590005Y1139000D02*
X595084Y1144078D01*
Y1149157D01*
X590005Y1154235D01*
X298000Y1126696D02*
X308157Y1116539D01*
X298000D02*
X308157Y1126696D01*
X298000Y1121618D02*
X308157D01*
X303078Y1116539D02*
Y1126696D01*
X313235Y1114000D02*
Y1116539D01*
X315774D01*
Y1114000D01*
X313235D01*
X336088Y1126696D02*
X333549Y1129235D01*
X328470D01*
X325931Y1126696D01*
Y1116539D01*
X328470Y1114000D01*
X333549D01*
X336088Y1116539D01*
Y1121618D01*
X331009D01*
X341166Y1129235D02*
Y1114000D01*
X348784D01*
X351323Y1116539D01*
Y1119078D01*
X348784Y1121618D01*
X341166D01*
X348784D01*
X351323Y1124157D01*
Y1126696D01*
X348784Y1129235D01*
X341166D01*
X366558Y1126696D02*
X364019Y1129235D01*
X358940D01*
X356401Y1126696D01*
Y1124157D01*
X358940Y1121618D01*
X364019D01*
X366558Y1119078D01*
Y1116539D01*
X364019Y1114000D01*
X358940D01*
X356401Y1116539D01*
X386871Y1121618D02*
X397028D01*
X417341Y1129235D02*
Y1114000D01*
X424959D01*
X427498Y1116539D01*
Y1119078D01*
X424959Y1121618D01*
X417341D01*
X424959D01*
X427498Y1124157D01*
Y1126696D01*
X424959Y1129235D01*
X417341D01*
X435116Y1114000D02*
X440194D01*
X442733Y1116539D01*
Y1121618D01*
X440194Y1124157D01*
X435116D01*
X432576Y1121618D01*
Y1116539D01*
X435116Y1114000D01*
X450351Y1126696D02*
Y1124157D01*
X447812D01*
X452890D01*
X450351D01*
Y1116539D01*
X452890Y1114000D01*
X463047Y1126696D02*
Y1124157D01*
X460507D01*
X465586D01*
X463047D01*
Y1116539D01*
X465586Y1114000D01*
X475742D02*
X480821D01*
X483360Y1116539D01*
Y1121618D01*
X480821Y1124157D01*
X475742D01*
X473203Y1121618D01*
Y1116539D01*
X475742Y1114000D01*
X488438D02*
Y1124157D01*
X490978D01*
X493517Y1121618D01*
Y1114000D01*
Y1121618D01*
X496056Y1124157D01*
X498595Y1121618D01*
Y1114000D01*
X529065Y1126696D02*
X526526Y1129235D01*
X521448D01*
X518909Y1126696D01*
Y1124157D01*
X521448Y1121618D01*
X526526D01*
X529065Y1119078D01*
Y1116539D01*
X526526Y1114000D01*
X521448D01*
X518909Y1116539D01*
X536683Y1114000D02*
X541761D01*
X544300Y1116539D01*
Y1121618D01*
X541761Y1124157D01*
X536683D01*
X534144Y1121618D01*
Y1116539D01*
X536683Y1114000D01*
X549379D02*
X554457D01*
X551918D01*
Y1129235D01*
X549379D01*
X572231D02*
Y1114000D01*
X564614D01*
X562075Y1116539D01*
Y1121618D01*
X564614Y1124157D01*
X572231D01*
X584927Y1114000D02*
X579849D01*
X577310Y1116539D01*
Y1121618D01*
X579849Y1124157D01*
X584927D01*
X587466Y1121618D01*
Y1119078D01*
X577310D01*
X592545Y1124157D02*
Y1114000D01*
Y1119078D01*
X595084Y1121618D01*
X597623Y1124157D01*
X600162D01*
X298000Y1101696D02*
X308157Y1091539D01*
X298000D02*
X308157Y1101696D01*
X298000Y1096618D02*
X308157D01*
X303078Y1091539D02*
Y1101696D01*
X313235Y1089000D02*
Y1091539D01*
X315774D01*
Y1089000D01*
X313235D01*
X336088Y1101696D02*
X333549Y1104235D01*
X328470D01*
X325931Y1101696D01*
Y1091539D01*
X328470Y1089000D01*
X333549D01*
X336088Y1091539D01*
Y1096618D01*
X331009D01*
X341166Y1104235D02*
Y1089000D01*
X348784D01*
X351323Y1091539D01*
Y1094078D01*
X348784Y1096618D01*
X341166D01*
X348784D01*
X351323Y1099157D01*
Y1101696D01*
X348784Y1104235D01*
X341166D01*
X364019D02*
X358940D01*
X356401Y1101696D01*
Y1091539D01*
X358940Y1089000D01*
X364019D01*
X366558Y1091539D01*
Y1101696D01*
X364019Y1104235D01*
X386871Y1096618D02*
X397028D01*
X417341Y1104235D02*
Y1089000D01*
X424959D01*
X427498Y1091539D01*
Y1094078D01*
X424959Y1096618D01*
X417341D01*
X424959D01*
X427498Y1099157D01*
Y1101696D01*
X424959Y1104235D01*
X417341D01*
X435116Y1089000D02*
X440194D01*
X442733Y1091539D01*
Y1096618D01*
X440194Y1099157D01*
X435116D01*
X432576Y1096618D01*
Y1091539D01*
X435116Y1089000D01*
X450351Y1101696D02*
Y1099157D01*
X447812D01*
X452890D01*
X450351D01*
Y1091539D01*
X452890Y1089000D01*
X463047Y1101696D02*
Y1099157D01*
X460507D01*
X465586D01*
X463047D01*
Y1091539D01*
X465586Y1089000D01*
X475742D02*
X480821D01*
X483360Y1091539D01*
Y1096618D01*
X480821Y1099157D01*
X475742D01*
X473203Y1096618D01*
Y1091539D01*
X475742Y1089000D01*
X488438D02*
Y1099157D01*
X490978D01*
X493517Y1096618D01*
Y1089000D01*
Y1096618D01*
X496056Y1099157D01*
X498595Y1096618D01*
Y1089000D01*
X526526Y1104235D02*
X521448D01*
X518909Y1101696D01*
Y1091539D01*
X521448Y1089000D01*
X526526D01*
X529065Y1091539D01*
Y1101696D01*
X526526Y1104235D01*
X534144Y1099157D02*
X539222Y1089000D01*
X544300Y1099157D01*
X556996Y1089000D02*
X551918D01*
X549379Y1091539D01*
Y1096618D01*
X551918Y1099157D01*
X556996D01*
X559535Y1096618D01*
Y1094078D01*
X549379D01*
X564614Y1099157D02*
Y1089000D01*
Y1094078D01*
X567153Y1096618D01*
X569692Y1099157D01*
X572231D01*
X579849Y1089000D02*
X584927D01*
X582388D01*
Y1104235D01*
X579849D01*
X595084Y1099157D02*
X600162D01*
X602701Y1096618D01*
Y1089000D01*
X595084D01*
X592545Y1091539D01*
X595084Y1094078D01*
X602701D01*
X607780Y1099157D02*
Y1091539D01*
X610319Y1089000D01*
X617937D01*
Y1086461D01*
X615397Y1083922D01*
X612858D01*
X617937Y1089000D02*
Y1099157D01*
X298000Y1076696D02*
X308157Y1066539D01*
X298000D02*
X308157Y1076696D01*
X298000Y1071618D02*
X308157D01*
X303078Y1066539D02*
Y1076696D01*
X313235Y1064000D02*
Y1066539D01*
X315774D01*
Y1064000D01*
X313235D01*
X336088Y1076696D02*
X333549Y1079235D01*
X328470D01*
X325931Y1076696D01*
Y1066539D01*
X328470Y1064000D01*
X333549D01*
X336088Y1066539D01*
Y1071618D01*
X331009D01*
X341166Y1064000D02*
Y1079235D01*
X346244Y1074157D01*
X351323Y1079235D01*
Y1064000D01*
X366558D02*
X356401D01*
X366558Y1074157D01*
Y1076696D01*
X364019Y1079235D01*
X358940D01*
X356401Y1076696D01*
X371636Y1066539D02*
X374175Y1064000D01*
X379254D01*
X381793Y1066539D01*
Y1076696D01*
X379254Y1079235D01*
X374175D01*
X371636Y1076696D01*
Y1074157D01*
X374175Y1071618D01*
X381793D01*
X402106D02*
X412263D01*
X432576Y1064000D02*
Y1079235D01*
X437655Y1074157D01*
X442733Y1079235D01*
Y1064000D01*
X455429D02*
X450351D01*
X447812Y1066539D01*
Y1071618D01*
X450351Y1074157D01*
X455429D01*
X457968Y1071618D01*
Y1069078D01*
X447812D01*
X473203Y1074157D02*
X465586D01*
X463047Y1071618D01*
Y1066539D01*
X465586Y1064000D01*
X473203D01*
X478282Y1079235D02*
Y1064000D01*
Y1071618D01*
X480821Y1074157D01*
X485899D01*
X488438Y1071618D01*
Y1064000D01*
X496056Y1074157D02*
X501134D01*
X503674Y1071618D01*
Y1064000D01*
X496056D01*
X493517Y1066539D01*
X496056Y1069078D01*
X503674D01*
X508752Y1064000D02*
Y1074157D01*
X516369D01*
X518909Y1071618D01*
Y1064000D01*
X523987D02*
X529065D01*
X526526D01*
Y1074157D01*
X523987D01*
X546839D02*
X539222D01*
X536683Y1071618D01*
Y1066539D01*
X539222Y1064000D01*
X546839D01*
X554457Y1074157D02*
X559535D01*
X562075Y1071618D01*
Y1064000D01*
X554457D01*
X551918Y1066539D01*
X554457Y1069078D01*
X562075D01*
X567153Y1064000D02*
X572231D01*
X569692D01*
Y1079235D01*
X567153D01*
X595084D02*
Y1064000D01*
X602701D01*
X605241Y1066539D01*
Y1076696D01*
X602701Y1079235D01*
X595084D01*
X610319Y1074157D02*
Y1064000D01*
Y1069078D01*
X612858Y1071618D01*
X615397Y1074157D01*
X617937D01*
X628093D02*
X633172D01*
X635711Y1071618D01*
Y1064000D01*
X628093D01*
X625554Y1066539D01*
X628093Y1069078D01*
X635711D01*
X640789Y1074157D02*
Y1066539D01*
X643328Y1064000D01*
X645867Y1066539D01*
X648407Y1064000D01*
X650946Y1066539D01*
Y1074157D01*
X656024Y1064000D02*
X661103D01*
X658563D01*
Y1074157D01*
X656024D01*
X668720Y1064000D02*
Y1074157D01*
X676338D01*
X678877Y1071618D01*
Y1064000D01*
X689034Y1058922D02*
X691573D01*
X694112Y1061461D01*
Y1074157D01*
X686494D01*
X683955Y1071618D01*
Y1066539D01*
X686494Y1064000D01*
X694112D01*
X298000Y1026696D02*
X308157Y1016539D01*
X298000D02*
X308157Y1026696D01*
X298000Y1021618D02*
X308157D01*
X303078Y1016539D02*
Y1026696D01*
X313235Y1014000D02*
Y1016539D01*
X315774D01*
Y1014000D01*
X313235D01*
X336088Y1026696D02*
X333549Y1029235D01*
X328470D01*
X325931Y1026696D01*
Y1016539D01*
X328470Y1014000D01*
X333549D01*
X336088Y1016539D01*
Y1021618D01*
X331009D01*
X341166Y1014000D02*
Y1029235D01*
X346244Y1024157D01*
X351323Y1029235D01*
Y1014000D01*
X364019D02*
Y1029235D01*
X356401Y1021618D01*
X366558D01*
X386871D02*
X397028D01*
X417341Y1029235D02*
Y1014000D01*
X427498D01*
X432576D02*
X437655D01*
X435116D01*
Y1024157D01*
X432576D01*
X455429D02*
X447812D01*
X445272Y1021618D01*
Y1016539D01*
X447812Y1014000D01*
X455429D01*
X468125D02*
X463047D01*
X460507Y1016539D01*
Y1021618D01*
X463047Y1024157D01*
X468125D01*
X470664Y1021618D01*
Y1019078D01*
X460507D01*
X475742Y1014000D02*
Y1024157D01*
X483360D01*
X485899Y1021618D01*
Y1014000D01*
X501134Y1024157D02*
X493517D01*
X490978Y1021618D01*
Y1016539D01*
X493517Y1014000D01*
X501134D01*
X513830D02*
X508752D01*
X506213Y1016539D01*
Y1021618D01*
X508752Y1024157D01*
X513830D01*
X516369Y1021618D01*
Y1019078D01*
X506213D01*
X1088157Y460696D02*
X1085618Y463235D01*
X1080539D01*
X1078000Y460696D01*
Y450539D01*
X1080539Y448000D01*
X1085618D01*
X1088157Y450539D01*
X1095774Y448000D02*
X1100853D01*
X1103392Y450539D01*
Y455617D01*
X1100853Y458157D01*
X1095774D01*
X1093235Y455617D01*
Y450539D01*
X1095774Y448000D01*
X1108470D02*
Y458157D01*
X1116088D01*
X1118627Y455617D01*
Y448000D01*
X1126244Y460696D02*
Y458157D01*
X1123705D01*
X1128784D01*
X1126244D01*
Y450539D01*
X1128784Y448000D01*
X1138940Y458157D02*
X1144019D01*
X1146558Y455617D01*
Y448000D01*
X1138940D01*
X1136401Y450539D01*
X1138940Y453078D01*
X1146558D01*
X1161793Y458157D02*
X1154175D01*
X1151636Y455617D01*
Y450539D01*
X1154175Y448000D01*
X1161793D01*
X1169410Y460696D02*
Y458157D01*
X1166871D01*
X1171950D01*
X1169410D01*
Y450539D01*
X1171950Y448000D01*
X1179567Y458157D02*
X1182106D01*
Y455617D01*
X1179567D01*
Y458157D01*
Y450539D02*
X1182106D01*
Y448000D01*
X1179567D01*
Y450539D01*
X1230539Y458157D02*
X1235618D01*
X1238157Y455617D01*
Y448000D01*
X1230539D01*
X1228000Y450539D01*
X1230539Y453078D01*
X1238157D01*
X1243235Y448000D02*
X1248313D01*
X1245774D01*
Y463235D01*
X1243235D01*
X1255931Y448000D02*
X1261009D01*
X1258470D01*
Y458157D01*
X1255931D01*
X1268627D02*
Y448000D01*
Y453078D01*
X1271166Y455617D01*
X1273705Y458157D01*
X1276244D01*
X1291479Y448000D02*
X1286401D01*
X1283862Y450539D01*
Y455617D01*
X1286401Y458157D01*
X1291479D01*
X1294019Y455617D01*
Y453078D01*
X1283862D01*
X1299097Y458157D02*
X1309254D01*
X1299097Y448000D01*
X1309254D01*
X1316871Y458157D02*
X1321950D01*
X1324489Y455617D01*
Y448000D01*
X1316871D01*
X1314332Y450539D01*
X1316871Y453078D01*
X1324489D01*
X1329567Y448000D02*
Y450539D01*
X1332106D01*
Y448000D01*
X1329567D01*
X1342263Y442922D02*
X1344802D01*
X1347341Y445461D01*
Y458157D01*
X1360037D02*
X1365116D01*
X1367655Y455617D01*
Y448000D01*
X1360037D01*
X1357498Y450539D01*
X1360037Y453078D01*
X1367655D01*
X1372733Y463235D02*
Y448000D01*
Y455617D01*
X1375272Y458157D01*
X1380351D01*
X1382890Y455617D01*
Y448000D01*
X1390507Y458157D02*
X1395586D01*
X1398125Y455617D01*
Y448000D01*
X1390507D01*
X1387968Y450539D01*
X1390507Y453078D01*
X1398125D01*
X1403203Y448000D02*
Y458157D01*
X1410821D01*
X1413360Y455617D01*
Y448000D01*
X1420978Y458157D02*
X1426056D01*
X1428595Y455617D01*
Y448000D01*
X1420978D01*
X1418438Y450539D01*
X1420978Y453078D01*
X1428595D01*
X1433674Y463235D02*
Y448000D01*
X1441291D01*
X1443830Y450539D01*
Y453078D01*
Y455617D01*
X1441291Y458157D01*
X1433674D01*
X1451448D02*
X1456526D01*
X1459065Y455617D01*
Y448000D01*
X1451448D01*
X1448909Y450539D01*
X1451448Y453078D01*
X1459065D01*
X1464144Y448000D02*
Y463235D01*
Y453078D02*
X1471761Y458157D01*
X1464144Y453078D02*
X1471761Y448000D01*
X1479379Y463235D02*
Y448000D01*
Y455617D01*
X1481918Y458157D01*
X1486996D01*
X1489535Y455617D01*
Y448000D01*
X1494614D02*
X1502231D01*
X1504771Y450539D01*
X1502231Y453078D01*
X1497153D01*
X1494614Y455617D01*
X1497153Y458157D01*
X1504771D01*
X1509849Y463235D02*
Y448000D01*
Y455617D01*
X1512388Y458157D01*
X1517466D01*
X1520005Y455617D01*
Y448000D01*
X1525084D02*
X1530162D01*
X1527623D01*
Y458157D01*
X1525084D01*
X1545397Y453078D02*
Y455617D01*
X1542858D01*
Y453078D01*
X1545397D01*
X1547937Y455617D01*
Y460696D01*
X1545397Y463235D01*
X1540319D01*
X1537780Y460696D01*
Y450539D01*
X1540319Y448000D01*
X1547937D01*
X1553015Y458157D02*
Y450539D01*
X1555554Y448000D01*
X1563172D01*
Y445461D01*
X1560632Y442922D01*
X1558093D01*
X1563172Y448000D02*
Y458157D01*
X1570789D02*
X1575867D01*
X1578407Y455617D01*
Y448000D01*
X1570789D01*
X1568250Y450539D01*
X1570789Y453078D01*
X1578407D01*
X1583485Y463235D02*
Y448000D01*
Y455617D01*
X1586024Y458157D01*
X1591102D01*
X1593642Y455617D01*
Y448000D01*
X1601259D02*
X1606338D01*
X1608877Y450539D01*
Y455617D01*
X1606338Y458157D01*
X1601259D01*
X1598720Y455617D01*
Y450539D01*
X1601259Y448000D01*
X1616494D02*
X1621573D01*
X1624112Y450539D01*
Y455617D01*
X1621573Y458157D01*
X1616494D01*
X1613955Y455617D01*
Y450539D01*
X1616494Y448000D01*
X1629190D02*
Y450539D01*
X1631729D01*
Y448000D01*
X1629190D01*
X1652043Y458157D02*
X1644425D01*
X1641886Y455617D01*
Y450539D01*
X1644425Y448000D01*
X1652043D01*
X1659660D02*
X1664739D01*
X1667278Y450539D01*
Y455617D01*
X1664739Y458157D01*
X1659660D01*
X1657121Y455617D01*
Y450539D01*
X1659660Y448000D01*
X1672356D02*
Y458157D01*
X1674895D01*
X1677435Y455617D01*
Y448000D01*
Y455617D01*
X1679974Y458157D01*
X1682513Y455617D01*
Y448000D01*
X1088157Y560696D02*
X1085618Y563235D01*
X1080539D01*
X1078000Y560696D01*
Y550539D01*
X1080539Y548000D01*
X1085618D01*
X1088157Y550539D01*
X1095774Y548000D02*
X1100853D01*
X1103392Y550539D01*
Y555617D01*
X1100853Y558157D01*
X1095774D01*
X1093235Y555617D01*
Y550539D01*
X1095774Y548000D01*
X1108470Y542922D02*
Y558157D01*
X1116088D01*
X1118627Y555617D01*
Y550539D01*
X1116088Y548000D01*
X1108470D01*
X1123705Y558157D02*
Y550539D01*
X1126244Y548000D01*
X1133862D01*
Y545461D01*
X1131323Y542922D01*
X1128784D01*
X1133862Y548000D02*
Y558157D01*
X1138940D02*
Y548000D01*
Y553078D01*
X1141479Y555617D01*
X1144019Y558157D01*
X1146558D01*
X1154175Y548000D02*
X1159254D01*
X1156715D01*
Y558157D01*
X1154175D01*
X1171950Y542922D02*
X1174489D01*
X1177028Y545461D01*
Y558157D01*
X1169410D01*
X1166871Y555617D01*
Y550539D01*
X1169410Y548000D01*
X1177028D01*
X1182106Y563235D02*
Y548000D01*
Y555617D01*
X1184645Y558157D01*
X1189724D01*
X1192263Y555617D01*
Y548000D01*
X1199881Y560696D02*
Y558157D01*
X1197341D01*
X1202420D01*
X1199881D01*
Y550539D01*
X1202420Y548000D01*
X1235429D02*
X1225272D01*
X1235429Y558157D01*
Y560696D01*
X1232890Y563235D01*
X1227812D01*
X1225272Y560696D01*
X1240507D02*
X1243047Y563235D01*
X1248125D01*
X1250664Y560696D01*
Y550539D01*
X1248125Y548000D01*
X1243047D01*
X1240507Y550539D01*
Y560696D01*
X1265899Y548000D02*
X1255742D01*
X1265899Y558157D01*
Y560696D01*
X1263360Y563235D01*
X1258282D01*
X1255742Y560696D01*
X1270978D02*
X1273517Y563235D01*
X1278595D01*
X1281134Y560696D01*
Y558157D01*
X1278595Y555617D01*
X1276056D01*
X1278595D01*
X1281134Y553078D01*
Y550539D01*
X1278595Y548000D01*
X1273517D01*
X1270978Y550539D01*
X1078000Y523000D02*
Y538235D01*
X1085618D01*
X1088157Y535696D01*
Y530617D01*
X1085618Y528078D01*
X1078000D01*
X1093235Y523000D02*
Y533157D01*
X1098313Y538235D01*
X1103392Y533157D01*
Y523000D01*
Y530617D01*
X1093235D01*
X1108470Y538235D02*
X1118627D01*
X1113549D01*
Y523000D01*
X1133862Y538235D02*
X1123705D01*
Y523000D01*
X1133862D01*
X1123705Y530617D02*
X1128784D01*
X1149097Y535696D02*
X1146558Y538235D01*
X1141479D01*
X1138940Y535696D01*
Y525539D01*
X1141479Y523000D01*
X1146558D01*
X1149097Y525539D01*
X1154175Y538235D02*
Y523000D01*
Y530617D01*
X1164332D01*
Y538235D01*
Y523000D01*
X1478000Y563235D02*
Y548000D01*
X1485618D01*
X1488157Y550539D01*
Y560696D01*
X1485618Y563235D01*
X1478000D01*
X1500853Y548000D02*
X1495774D01*
X1493235Y550539D01*
Y555617D01*
X1495774Y558157D01*
X1500853D01*
X1503392Y555617D01*
Y553078D01*
X1493235D01*
X1508470Y548000D02*
X1516088D01*
X1518627Y550539D01*
X1516088Y553078D01*
X1511009D01*
X1508470Y555617D01*
X1511009Y558157D01*
X1518627D01*
X1523705Y548000D02*
X1528784D01*
X1526244D01*
Y558157D01*
X1523705D01*
X1541479Y542922D02*
X1544019D01*
X1546558Y545461D01*
Y558157D01*
X1538940D01*
X1536401Y555617D01*
Y550539D01*
X1538940Y548000D01*
X1546558D01*
X1551636D02*
Y558157D01*
X1559254D01*
X1561793Y555617D01*
Y548000D01*
X1574489D02*
X1569410D01*
X1566871Y550539D01*
Y555617D01*
X1569410Y558157D01*
X1574489D01*
X1577028Y555617D01*
Y553078D01*
X1566871D01*
X1592263Y563235D02*
Y548000D01*
X1584646D01*
X1582106Y550539D01*
Y555617D01*
X1584646Y558157D01*
X1592263D01*
X1612576Y563235D02*
Y548000D01*
X1620194D01*
X1622733Y550539D01*
Y553078D01*
Y555617D01*
X1620194Y558157D01*
X1612576D01*
X1627811D02*
Y550539D01*
X1630351Y548000D01*
X1637968D01*
Y545461D01*
X1635429Y542922D01*
X1632890D01*
X1637968Y548000D02*
Y558157D01*
X1658282Y548000D02*
Y563235D01*
X1665899D01*
X1668438Y560696D01*
Y555617D01*
X1665899Y553078D01*
X1658282D01*
X1673517Y548000D02*
Y558157D01*
X1678595Y563235D01*
X1683674Y558157D01*
Y548000D01*
Y555617D01*
X1673517D01*
X1688752Y563235D02*
X1698909D01*
X1693830D01*
Y548000D01*
X1714144Y563235D02*
X1703987D01*
Y548000D01*
X1714144D01*
X1703987Y555617D02*
X1709065D01*
X1729379Y560696D02*
X1726839Y563235D01*
X1721761D01*
X1719222Y560696D01*
Y550539D01*
X1721761Y548000D01*
X1726839D01*
X1729379Y550539D01*
X1734457Y563235D02*
Y548000D01*
Y555617D01*
X1744614D01*
Y563235D01*
Y548000D01*
X1478000Y533157D02*
Y525539D01*
X1480539Y523000D01*
X1483078Y525539D01*
X1485618Y523000D01*
X1488157Y525539D01*
Y533157D01*
X1493235D02*
Y525539D01*
X1495774Y523000D01*
X1498313Y525539D01*
X1500853Y523000D01*
X1503392Y525539D01*
Y533157D01*
X1508470D02*
Y525539D01*
X1511009Y523000D01*
X1513548Y525539D01*
X1516088Y523000D01*
X1518627Y525539D01*
Y533157D01*
X1523705Y523000D02*
Y525539D01*
X1526244D01*
Y523000D01*
X1523705D01*
X1536401Y517922D02*
Y533157D01*
X1544019D01*
X1546558Y530617D01*
Y525539D01*
X1544019Y523000D01*
X1536401D01*
X1554175Y533157D02*
X1559254D01*
X1561793Y530617D01*
Y523000D01*
X1554175D01*
X1551636Y525539D01*
X1554175Y528078D01*
X1561793D01*
X1569410Y535696D02*
Y533157D01*
X1566871D01*
X1571950D01*
X1569410D01*
Y525539D01*
X1571950Y523000D01*
X1587185D02*
X1582106D01*
X1579567Y525539D01*
Y530617D01*
X1582106Y533157D01*
X1587185D01*
X1589724Y530617D01*
Y528078D01*
X1579567D01*
X1604959Y533157D02*
X1597341D01*
X1594802Y530617D01*
Y525539D01*
X1597341Y523000D01*
X1604959D01*
X1610037Y538235D02*
Y523000D01*
Y530617D01*
X1612576Y533157D01*
X1617655D01*
X1620194Y530617D01*
Y523000D01*
X1625272D02*
Y525539D01*
X1627811D01*
Y523000D01*
X1625272D01*
X1637968D02*
X1643047D01*
X1640507D01*
Y533157D01*
X1637968D01*
X1650664D02*
Y523000D01*
Y528078D01*
X1653203Y530617D01*
X1655742Y533157D01*
X1658282D01*
X298000Y1051696D02*
X308157Y1041539D01*
X298000D02*
X308157Y1051696D01*
X298000Y1046618D02*
X308157D01*
X303078Y1041539D02*
Y1051696D01*
X313235Y1039000D02*
Y1041539D01*
X315774D01*
Y1039000D01*
X313235D01*
X336088Y1051696D02*
X333549Y1054235D01*
X328470D01*
X325931Y1051696D01*
Y1041539D01*
X328470Y1039000D01*
X333549D01*
X336088Y1041539D01*
Y1046618D01*
X331009D01*
X341166Y1039000D02*
Y1054235D01*
X346244Y1049157D01*
X351323Y1054235D01*
Y1039000D01*
X356401Y1051696D02*
X358940Y1054235D01*
X364019D01*
X366558Y1051696D01*
Y1049157D01*
X364019Y1046618D01*
X361479D01*
X364019D01*
X366558Y1044078D01*
Y1041539D01*
X364019Y1039000D01*
X358940D01*
X356401Y1041539D01*
X386871Y1046618D02*
X397028D01*
X417341Y1039000D02*
Y1054235D01*
X422420Y1049157D01*
X427498Y1054235D01*
Y1039000D01*
X435116Y1049157D02*
X440194D01*
X442733Y1046618D01*
Y1039000D01*
X435116D01*
X432576Y1041539D01*
X435116Y1044078D01*
X442733D01*
X447812Y1039000D02*
Y1049157D01*
X455429D01*
X457968Y1046618D01*
Y1039000D01*
X463047Y1049157D02*
Y1041539D01*
X465586Y1039000D01*
X473203D01*
Y1049157D01*
X480821Y1039000D02*
Y1051696D01*
Y1046618D01*
X478282D01*
X483360D01*
X480821D01*
Y1051696D01*
X483360Y1054235D01*
X493517Y1049157D02*
X498595D01*
X501134Y1046618D01*
Y1039000D01*
X493517D01*
X490978Y1041539D01*
X493517Y1044078D01*
X501134D01*
X516369Y1049157D02*
X508752D01*
X506213Y1046618D01*
Y1041539D01*
X508752Y1039000D01*
X516369D01*
X523987Y1051696D02*
Y1049157D01*
X521448D01*
X526526D01*
X523987D01*
Y1041539D01*
X526526Y1039000D01*
X534144Y1049157D02*
Y1041539D01*
X536683Y1039000D01*
X544300D01*
Y1049157D01*
X549379D02*
Y1039000D01*
Y1044078D01*
X551918Y1046618D01*
X554457Y1049157D01*
X556996D01*
X564614Y1039000D02*
X569692D01*
X567153D01*
Y1049157D01*
X564614D01*
X577310Y1039000D02*
Y1049157D01*
X584927D01*
X587466Y1046618D01*
Y1039000D01*
X597623Y1033922D02*
X600162D01*
X602701Y1036461D01*
Y1049157D01*
X595084D01*
X592545Y1046618D01*
Y1041539D01*
X595084Y1039000D01*
X602701D01*
X623015D02*
Y1054235D01*
X633172Y1039000D01*
Y1054235D01*
X640789Y1039000D02*
X645867D01*
X648407Y1041539D01*
Y1046618D01*
X645867Y1049157D01*
X640789D01*
X638250Y1046618D01*
Y1041539D01*
X640789Y1039000D01*
X656024Y1051696D02*
Y1049157D01*
X653485D01*
X658563D01*
X656024D01*
Y1041539D01*
X658563Y1039000D01*
X673798D02*
X668720D01*
X666181Y1041539D01*
Y1046618D01*
X668720Y1049157D01*
X673798D01*
X676338Y1046618D01*
Y1044078D01*
X666181D01*
X681416Y1039000D02*
X689034D01*
X691573Y1041539D01*
X689034Y1044078D01*
X683955D01*
X681416Y1046618D01*
X683955Y1049157D01*
X691573D01*
M02*
