G04*
G04 #@! TF.GenerationSoftware,Altium Limited,Altium Designer,23.1.1 (15)*
G04*
G04 Layer_Color=16711935*
%FSLAX44Y44*%
%MOMM*%
G71*
G04*
G04 #@! TF.SameCoordinates,9F4D0ECE-2CF4-41AA-81F9-B76AE3B11C26*
G04*
G04*
G04 #@! TF.FilePolarity,Positive*
G04*
G01*
G75*
%ADD13C,0.2540*%
%ADD17C,0.1524*%
%ADD69C,1.0160*%
%ADD70C,0.3810*%
%ADD71C,0.7000*%
D13*
X945760Y200920D02*
X961000Y206000D01*
X945760Y211080D02*
X961000Y206000D01*
X286000D02*
X301240Y211080D01*
X286000Y206000D02*
X301240Y200920D01*
X657779Y206000D02*
X961000D01*
X286000D02*
X581093D01*
X961000Y203460D02*
Y285658D01*
X286000Y203460D02*
Y280574D01*
X978760Y161920D02*
X994000Y167000D01*
X978760Y172080D02*
X994000Y167000D01*
X254000D02*
X269240Y172080D01*
X254000Y167000D02*
X269240Y161920D01*
X658279Y167000D02*
X994000D01*
X254000D02*
X581593D01*
X994000Y164460D02*
Y260380D01*
X254000Y164460D02*
Y260380D01*
X201920Y283240D02*
X207000Y268000D01*
X212080Y283240D01*
X207000Y667004D02*
X212080Y651764D01*
X201920D02*
X207000Y667004D01*
Y268000D02*
Y425095D01*
Y501781D02*
Y667004D01*
X204460Y268000D02*
X298574D01*
X204460Y667004D02*
X298574D01*
X163000Y698000D02*
X168080Y682760D01*
X157920D02*
X163000Y698000D01*
X157920Y253240D02*
X163000Y238000D01*
X168080Y253240D01*
X163000Y502279D02*
Y698000D01*
Y238000D02*
Y425593D01*
X160460Y698000D02*
X276380D01*
X160460Y238000D02*
X276380D01*
D17*
X595314Y212094D02*
X590235Y209554D01*
X585157Y204476D01*
Y199398D01*
X587696Y196859D01*
X592775D01*
X595314Y199398D01*
Y201937D01*
X592775Y204476D01*
X585157D01*
X600392Y212094D02*
X610549D01*
Y209554D01*
X600392Y199398D01*
Y196859D01*
X615627D02*
Y199398D01*
X618166D01*
Y196859D01*
X615627D01*
X638480Y212094D02*
X628323D01*
Y204476D01*
X633401Y207015D01*
X635941D01*
X638480Y204476D01*
Y199398D01*
X635941Y196859D01*
X630862D01*
X628323Y199398D01*
X643558Y209554D02*
X646097Y212094D01*
X651176D01*
X653715Y209554D01*
Y199398D01*
X651176Y196859D01*
X646097D01*
X643558Y199398D01*
Y209554D01*
X585657Y173093D02*
X595814D01*
Y170554D01*
X585657Y160398D01*
Y157858D01*
X608510D02*
Y173093D01*
X600892Y165476D01*
X611049D01*
X616127Y157858D02*
Y160398D01*
X618666D01*
Y157858D01*
X616127D01*
X628823Y170554D02*
X631362Y173093D01*
X636441D01*
X638980Y170554D01*
Y160398D01*
X636441Y157858D01*
X631362D01*
X628823Y160398D01*
Y170554D01*
X644058D02*
X646597Y173093D01*
X651676D01*
X654215Y170554D01*
Y160398D01*
X651676Y157858D01*
X646597D01*
X644058Y160398D01*
Y170554D01*
X203446Y429159D02*
X200907Y431698D01*
Y436777D01*
X203446Y439316D01*
X205985D01*
X208524Y436777D01*
Y434238D01*
Y436777D01*
X211063Y439316D01*
X213602D01*
X216141Y436777D01*
Y431698D01*
X213602Y429159D01*
Y444394D02*
X216141Y446933D01*
Y452012D01*
X213602Y454551D01*
X203446D01*
X200907Y452012D01*
Y446933D01*
X203446Y444394D01*
X205985D01*
X208524Y446933D01*
Y454551D01*
X216141Y459629D02*
X213602D01*
Y462169D01*
X216141D01*
Y459629D01*
X213602Y472325D02*
X216141Y474864D01*
Y479943D01*
X213602Y482482D01*
X203446D01*
X200907Y479943D01*
Y474864D01*
X203446Y472325D01*
X205985D01*
X208524Y474864D01*
Y482482D01*
X203446Y487560D02*
X200907Y490099D01*
Y495178D01*
X203446Y497717D01*
X213602D01*
X216141Y495178D01*
Y490099D01*
X213602Y487560D01*
X203446D01*
X172141Y437275D02*
X156906D01*
X164524Y429657D01*
Y439814D01*
X156906Y455049D02*
X159446Y449971D01*
X164524Y444892D01*
X169602D01*
X172141Y447431D01*
Y452510D01*
X169602Y455049D01*
X167063D01*
X164524Y452510D01*
Y444892D01*
X172141Y460127D02*
X169602D01*
Y462666D01*
X172141D01*
Y460127D01*
X159446Y472823D02*
X156906Y475362D01*
Y480441D01*
X159446Y482980D01*
X169602D01*
X172141Y480441D01*
Y475362D01*
X169602Y472823D01*
X159446D01*
Y488058D02*
X156906Y490597D01*
Y495676D01*
X159446Y498215D01*
X169602D01*
X172141Y495676D01*
Y490597D01*
X169602Y488058D01*
X159446D01*
D69*
X961000Y646806D02*
G03*
X981194Y667000I0J20194D01*
G01*
D02*
G03*
X961000Y687194I-20194J0D01*
G01*
D02*
G03*
X940806Y667000I0J-20194D01*
G01*
D02*
G03*
X961000Y646806I20194J0D01*
G01*
X286000Y646810D02*
G03*
X306194Y667004I0J20194D01*
G01*
D02*
G03*
X286000Y687198I-20194J0D01*
G01*
D02*
G03*
X265806Y667004I0J-20194D01*
G01*
D02*
G03*
X286000Y646810I20194J0D01*
G01*
Y247806D02*
G03*
X306194Y268000I0J20194D01*
G01*
D02*
G03*
X286000Y288194I-20194J0D01*
G01*
D02*
G03*
X265806Y268000I0J-20194D01*
G01*
D02*
G03*
X286000Y247806I20194J0D01*
G01*
X961000Y247810D02*
G03*
X981194Y268004I0J20194D01*
G01*
D02*
G03*
X961000Y288198I-20194J0D01*
G01*
D02*
G03*
X940806Y268004I0J-20194D01*
G01*
D02*
G03*
X961000Y247810I20194J0D01*
G01*
X254000Y268000D02*
G03*
X284000Y238000I30000J0D01*
G01*
X964000D02*
G03*
X994000Y268000I0J30000D01*
G01*
Y668000D02*
G03*
X964000Y698000I-30000J0D01*
G01*
X284000D02*
G03*
X254000Y668000I0J-30000D01*
G01*
X284000Y238000D02*
X964000D01*
X994000Y268000D02*
Y668000D01*
X284000Y698000D02*
X964000D01*
X254000Y268000D02*
Y668000D01*
D70*
X39000Y225313D02*
Y208386D01*
X42386Y205000D01*
X49157D01*
X52542Y208386D01*
Y225313D01*
X59313Y205000D02*
Y218542D01*
X69470D01*
X72856Y215157D01*
Y205000D01*
X79627D02*
X86398D01*
X83012D01*
Y218542D01*
X79627D01*
X99940Y221928D02*
Y218542D01*
X96555D01*
X103326D01*
X99940D01*
Y208386D01*
X103326Y205000D01*
X113483D02*
X123639D01*
X127025Y208386D01*
X123639Y211771D01*
X116868D01*
X113483Y215157D01*
X116868Y218542D01*
X127025D01*
X133796D02*
X137182D01*
Y215157D01*
X133796D01*
Y218542D01*
Y208386D02*
X137182D01*
Y205000D01*
X133796D01*
Y208386D01*
X171037Y205000D02*
Y218542D01*
X174423D01*
X177808Y215157D01*
Y205000D01*
Y215157D01*
X181194Y218542D01*
X184580Y215157D01*
Y205000D01*
X191351D02*
Y218542D01*
X194736D01*
X198122Y215157D01*
Y205000D01*
Y215157D01*
X201507Y218542D01*
X204893Y215157D01*
Y205000D01*
X52542Y171928D02*
X49157Y175313D01*
X42386D01*
X39000Y171928D01*
Y168542D01*
X42386Y165157D01*
X49157D01*
X52542Y161771D01*
Y158386D01*
X49157Y155000D01*
X42386D01*
X39000Y158386D01*
X72856Y168542D02*
X62699D01*
X59313Y165157D01*
Y158386D01*
X62699Y155000D01*
X72856D01*
X83012Y168542D02*
X89784D01*
X93169Y165157D01*
Y155000D01*
X83012D01*
X79627Y158386D01*
X83012Y161771D01*
X93169D01*
X99940Y155000D02*
X106711D01*
X103326D01*
Y175313D01*
X99940D01*
X127025Y155000D02*
X120254D01*
X116868Y158386D01*
Y165157D01*
X120254Y168542D01*
X127025D01*
X130410Y165157D01*
Y161771D01*
X116868D01*
X137182Y168542D02*
X140567D01*
Y165157D01*
X137182D01*
Y168542D01*
Y158386D02*
X140567D01*
Y155000D01*
X137182D01*
Y158386D01*
X174423Y155000D02*
X181194D01*
X177808D01*
Y175313D01*
X174423Y171928D01*
X191351Y168542D02*
X194736D01*
Y165157D01*
X191351D01*
Y168542D01*
Y158386D02*
X194736D01*
Y155000D01*
X191351D01*
Y158386D01*
X208279Y155000D02*
X215050D01*
X211664D01*
Y175313D01*
X208279Y171928D01*
D71*
X359832Y772000D02*
X371494D01*
X377326Y777831D01*
Y789494D01*
X371494Y795326D01*
X359832D01*
X354000Y789494D01*
Y777831D01*
X359832Y772000D01*
X394820D02*
Y801157D01*
Y789494D01*
X388989D01*
X400652D01*
X394820D01*
Y801157D01*
X400652Y806989D01*
X453135D02*
Y772000D01*
Y789494D01*
X476460D01*
Y806989D01*
Y772000D01*
X488123Y806989D02*
Y772000D01*
Y783663D01*
X511449Y806989D01*
X493955Y789494D01*
X511449Y772000D01*
X523112Y801157D02*
X528943Y806989D01*
X540606D01*
X546438Y801157D01*
Y795326D01*
X540606Y789494D01*
X534775D01*
X540606D01*
X546438Y783663D01*
Y777831D01*
X540606Y772000D01*
X528943D01*
X523112Y777831D01*
X581427Y772000D02*
X558101D01*
X581427Y795326D01*
Y801157D01*
X575595Y806989D01*
X563932D01*
X558101Y801157D01*
X616415Y806989D02*
X593089D01*
Y789494D01*
X604752D01*
X593089D01*
Y772000D01*
X628078Y801157D02*
X633910Y806989D01*
X645573D01*
X651404Y801157D01*
Y777831D01*
X645573Y772000D01*
X633910D01*
X628078Y777831D01*
Y801157D01*
X663067D02*
X668898Y806989D01*
X680561D01*
X686393Y801157D01*
Y795326D01*
X680561Y789494D01*
X674730D01*
X680561D01*
X686393Y783663D01*
Y777831D01*
X680561Y772000D01*
X668898D01*
X663067Y777831D01*
X698056Y801157D02*
X703887Y806989D01*
X715550D01*
X721381Y801157D01*
Y777831D01*
X715550Y772000D01*
X703887D01*
X698056Y777831D01*
Y801157D01*
X304000Y847000D02*
Y881989D01*
X315663Y870326D01*
X327326Y881989D01*
Y847000D01*
X356483D02*
X344820D01*
X338989Y852831D01*
Y864494D01*
X344820Y870326D01*
X356483D01*
X362314Y864494D01*
Y858663D01*
X338989D01*
X397303Y870326D02*
X379809D01*
X373977Y864494D01*
Y852831D01*
X379809Y847000D01*
X397303D01*
X408966Y881989D02*
Y847000D01*
Y864494D01*
X414798Y870326D01*
X426460D01*
X432292Y864494D01*
Y847000D01*
X449786Y870326D02*
X461449D01*
X467281Y864494D01*
Y847000D01*
X449786D01*
X443955Y852831D01*
X449786Y858663D01*
X467281D01*
X478943Y847000D02*
Y870326D01*
X496438D01*
X502269Y864494D01*
Y847000D01*
X513932D02*
X525595D01*
X519764D01*
Y870326D01*
X513932D01*
X566415D02*
X548921D01*
X543089Y864494D01*
Y852831D01*
X548921Y847000D01*
X566415D01*
X583910Y870326D02*
X595573D01*
X601404Y864494D01*
Y847000D01*
X583910D01*
X578078Y852831D01*
X583910Y858663D01*
X601404D01*
X613067Y847000D02*
X624730D01*
X618898D01*
Y881989D01*
X613067D01*
X677213D02*
Y847000D01*
X694707D01*
X700539Y852831D01*
Y876157D01*
X694707Y881989D01*
X677213D01*
X712202Y870326D02*
Y847000D01*
Y858663D01*
X718033Y864494D01*
X723864Y870326D01*
X729696D01*
X753022D02*
X764685D01*
X770516Y864494D01*
Y847000D01*
X753022D01*
X747190Y852831D01*
X753022Y858663D01*
X770516D01*
X782179Y870326D02*
Y852831D01*
X788010Y847000D01*
X793842Y852831D01*
X799673Y847000D01*
X805505Y852831D01*
Y870326D01*
X817168Y847000D02*
X828830D01*
X822999D01*
Y870326D01*
X817168D01*
X846325Y847000D02*
Y870326D01*
X863819D01*
X869651Y864494D01*
Y847000D01*
X892977Y835337D02*
X898808D01*
X904639Y841169D01*
Y870326D01*
X887145D01*
X881314Y864494D01*
Y852831D01*
X887145Y847000D01*
X904639D01*
X760000Y807989D02*
Y784663D01*
X771663Y773000D01*
X783326Y784663D01*
Y807989D01*
X794989Y773000D02*
X806652D01*
X800820D01*
Y807989D01*
X794989Y802157D01*
X824146Y773000D02*
Y778831D01*
X829977D01*
Y773000D01*
X824146D01*
X853303Y802157D02*
X859135Y807989D01*
X870798D01*
X876629Y802157D01*
Y778831D01*
X870798Y773000D01*
X859135D01*
X853303Y778831D01*
Y802157D01*
M02*
