M48
;Layer_Color=9474304
;FILE_FORMAT=4:4
METRIC,LZ
;TYPE=PLATED
T1F00S00C0.4000
T2F00S00C1.0000
T3F00S00C1.1000
%
T01
X00573Y00272
X00542Y00392
X00732Y00271
X00821Y00371
X008Y00404
X00865Y00426
X00955Y00406
X00973Y00455
X00961Y00504
X00955Y00603
X0078Y00677
X0061Y00573
X00538
X00523Y00508
Y00468
Y00428
X00485Y00429
X00457Y0044046
X00476Y00463
X00623Y00447
X00645Y00424
X00649Y00469
X00438Y00608
X00454Y00626
X00493Y0067
X00364Y00571
X00357Y00549
X00352Y005
Y00486
X00338Y00444
X00266Y00442
T02
X003482Y00269
X003736
X00399
X004244
X004498
X006038Y003053
Y003307
X006292
X006546
X0068
X007054
X007308
X007562
X007816
Y003053
X007562
X007308
X007054
X0068
X006546
X006292
X00807
Y003307
X008324
Y003053
X0083065Y006053
X0080525
Y006307
X0083065
X0077985
Y006053
X0075445
X0072905
X0070365
X0067825
X0065285
X0062745
X0060205
Y006307
X0062745
X0065285
X0067825
X0070365
X0072905
X0075445
X00421Y0055125
X003956
T03
X0049685Y003084
X0054145Y003085
M30
